<?xml version="1.0" encoding="utf-8"?>
<!-- Generator: Adobe Illustrator 21.1.0, SVG Export Plug-In . SVG Version: 6.00 Build 0)  -->
<svg version="1.1" id="Foursquare" xmlns="http://www.w3.org/2000/svg" xmlns:xlink="http://www.w3.org/1999/xlink" x="0px" y="0px"
	 viewBox="0 0 64 64" enable-background="new 0 0 64 64" xml:space="preserve">
<rect fill="#FA4778" width="64" height="64"/>
<sodipodi:namedview  bordercolor="#666666" borderopacity="1" gridtolerance="10" guidetolerance="10" id="namedview25" inkscape:current-layer="Layer_1" inkscape:cx="70.093162" inkscape:cy="12.466722" inkscape:pageopacity="0" inkscape:pageshadow="2" inkscape:window-height="1001" inkscape:window-maximized="1" inkscape:window-width="1920" inkscape:window-x="-9" inkscape:window-y="-9" inkscape:zoom="3.6383149" objecttolerance="10" pagecolor="#ffffff" showgrid="false">
	</sodipodi:namedview>
<path id="foursquare-path22" inkscape:connector-curvature="0" fill="#FFFFFF" d="M49.1415,12.19l-1.533,7.4021
	c-0.1752,0.7884-0.9198,1.4892-1.8396,1.4892H32.4539c-1.4892,0-2.7156,1.2264-2.7156,2.7156v1.6206
	c0,1.4892,1.2264,2.7156,2.7156,2.7156h11.2565c1.0512,0,1.9272,1.0074,1.7082,2.1024c-0.219,1.1388-1.4016,6.9203-1.533,7.5335
	c-0.0876,0.657-0.7884,1.4892-1.8396,1.4892h-9.1979c-1.9272,0.0438-2.3214,0.0876-3.4602,1.4892
	c-1.1388,1.4016-11.2127,14.0159-11.2127,14.0159C18.0876,54.8946,18,54.8508,18,54.7193V11.8396C18,10.8322,18.8322,10,19.8396,10
	h27.6375C48.4407,10,49.4043,10.9636,49.1415,12.19"/>
</svg>
