<?xml version="1.0" encoding="utf-8"?>
<!-- Generator: Adobe Illustrator 21.1.0, SVG Export Plug-In . SVG Version: 6.00 Build 0)  -->
<svg version="1.1" id="Pocket" xmlns="http://www.w3.org/2000/svg" xmlns:xlink="http://www.w3.org/1999/xlink" x="0px" y="0px"
	 viewBox="0 0 72 72" enable-background="new 0 0 72 72" xml:space="preserve">
<g>
	<rect fill="#FF4555" width="72" height="72"/>
	<path id="pocket-path9-6" fill="#FFFFFF" d="M52.5943,15H19.4058C16.144,15,13.5,17.6791,13.5,20.982v16.572
		c0,0.3076,0.0229,0.6097,0.0681,0.9051C13.5219,38.9004,13.5,39.3466,13.5,39.7972C13.5,49.2965,23.5729,57,35.9998,57
		C48.4264,57,58.5,49.2965,58.5,39.7972c0-0.4507-0.024-0.8969-0.0683-1.3382C58.476,38.1639,58.5,37.8616,58.5,37.554V20.9821
		C58.5,17.6782,55.8531,15,52.5943,15L52.5943,15z M49.7977,31.66L38.1765,43.34c-0.5903,0.5934-1.3659,0.8856-2.1401,0.879
		c-0.798,0.0276-1.6043-0.265-2.2151-0.879L22.2028,31.66c-1.1674-1.173-1.1646-3.0756,0-4.2463
		c1.1659-1.1733,3.0553-1.1751,4.2244,0L36,37.0364l9.5731-9.6227c1.1637-1.1733,3.0602-1.1703,4.2246,0
		C50.9653,28.5863,50.9653,30.4853,49.7977,31.66L49.7977,31.66z"/>
</g>
</svg>
