<?xml version="1.0" encoding="utf-8"?>
<!-- Generator: Adobe Illustrator 21.1.0, SVG Export Plug-In . SVG Version: 6.00 Build 0)  -->
<svg version="1.1" id="Quora" xmlns="http://www.w3.org/2000/svg" xmlns:xlink="http://www.w3.org/1999/xlink" x="0px" y="0px"
	 viewBox="0 0 72 72" enable-background="new 0 0 72 72" xml:space="preserve">
<g>
	<rect fill="#C31F00" width="72" height="72"/>
	<g>
		<path fill="#FFFFFF" d="M16.5,33.7735c0,11.2002,8.7282,20.2736,19.5,20.2736c1.5825,0,3.1222-0.2022,4.5947-0.5742
			c1.851,3.454,4.6732,5.9004,10.6591,4.7314v-3.4366c0,0-3.8421-0.9902-5.0088-3.747c5.5543-3.5714,9.255-9.9609,9.255-17.2472
			c0-11.1972-8.7324-20.2734-19.5-20.2734C25.2282,13.5001,16.5,22.5763,16.5,33.7735z M26.1866,31.2306
			c0-6.9843,4.4604-12.6446,9.9621-12.6446c5.5015,0,9.9591,5.6602,9.9591,12.6446c0,0.8966,0,4.3302,0,5.2237
			c0,3.3867-1.0497,6.4569-2.7564,8.7275c-2.1424-2.3408-5.5017-4.2656-9.7636-4.0196v0.4131v3.5714
			c0,0,2.8908,0.1201,4.8703,3.6064c-0.7426,0.2226-1.514,0.3428-2.3094,0.3428c-5.5017,0-9.9621-5.6573-9.9621-12.6416
			C26.1866,35.5608,26.1866,32.1272,26.1866,31.2306z"/>
	</g>
</g>
</svg>
