<?xml version="1.0" encoding="utf-8"?>
<!-- Generator: Adobe Illustrator 21.1.0, SVG Export Plug-In . SVG Version: 6.00 Build 0)  -->
<svg version="1.1" id="Reddit" xmlns="http://www.w3.org/2000/svg" xmlns:xlink="http://www.w3.org/1999/xlink" x="0px" y="0px"
	 viewBox="0 0 72.0027 72" enable-background="new 0 0 72.0027 72" xml:space="preserve">
<g transform="translate(-373.642 -318.344)">
	<rect x="373.642" y="318.344" fill="#6BC1FF" width="72.0027" height="72"/>
	
		<linearGradient id="SVGID_1_" gradientUnits="userSpaceOnUse" x1="-1693.9935" y1="-457.176" x2="-1695.4824" y2="-452.8363" gradientTransform="matrix(-6.279 0 0 6.279 -10244.5908 3178.4548)">
		<stop  offset="0" style="stop-color:#FFFFFF"/>
		<stop  offset="1" style="stop-color:#FFFFFF;stop-opacity:0"/>
	</linearGradient>
	<path fill="url(#SVGID_1_)" d="M426.5765,321.4946h-33.8998c-8.9734,0-16.1976,7.2793-16.1976,16.321v33.0568
		c0.2906,7.0579,1.4079,2.5959,3.5344-5.2202c2.4718-9.0839,10.5209-17.0232,20.3239-22.9735
		c7.482-4.5415,15.8565-7.4416,31.1013-7.7177C440.0839,334.8048,439.3211,323.7462,426.5765,321.4946L426.5765,321.4946z"/>
	<path fill="#FFFFFF" stroke="#000000" d="M394.3124,355.2316c0,3.0724-2.3828,5.5629-5.3221,5.5629s-5.3221-2.4905-5.3221-5.5629
		c0-3.0724,2.3828-5.5629,5.3221-5.5629S394.3124,352.1591,394.3124,355.2316z M434.3203,355.3548
		c0,3.0724-2.3825,5.5629-5.3224,5.5629c-2.939,0-5.3221-2.4905-5.3221-5.5629c0-3.0724,2.3828-5.5629,5.3221-5.5629
		C431.9378,349.7919,434.3203,352.2824,434.3203,355.3548z"/>
	<path fill="none" stroke="#000000" d="M423.4927,340.3136c-4.022-1.65-8.1203-3.605-11.195-1.4674
		c-3.5603,1.6387-3.3905,7.0056-3.1197,12.4732"/>
	<path fill="#FFFFFF" stroke="#000000" stroke-linecap="round" d="M431.0797,363.334c0,8.5605-9.8328,15.4999-21.9623,15.4999
		s-21.9623-6.9394-21.9623-15.4999c0-8.5603,9.833-15.4999,21.9623-15.4999C421.2469,347.8341,431.0797,354.7737,431.0797,363.334
		L431.0797,363.334z"/>
	<path fill="#FFFFFF" stroke="#000000" stroke-linecap="round" d="M430.6501,341.1389c0,2.7861-2.0955,5.0444-4.68,5.0444
		c-2.5847,0-4.68-2.2583-4.68-5.0444c0-2.7858,2.0953-5.0444,4.68-5.0444C428.5545,336.0945,430.6501,338.3528,430.6501,341.1389z"
		/>
	<path fill="#FF0000" d="M404.1296,361.421c0,1.8598-1.4726,3.3677-3.2893,3.3677s-3.289-1.5079-3.289-3.3677
		s1.4725-3.3677,3.289-3.3677C402.6567,358.0533,404.1296,359.5609,404.1296,361.421z M421.2491,361.1321
		c0,1.8598-1.4728,3.3677-3.2893,3.3677s-3.2893-1.5079-3.2893-3.3677c0-1.86,1.4728-3.3677,3.2893-3.3677
		S421.2491,359.2721,421.2491,361.1321z"/>
	<path fill="none" stroke="#000000" stroke-linecap="round" d="M399.818,368.7453c6.9652,4.9178,12.2151,2.9789,17.2512,0.1836"/>
</g>
</svg>
