<?xml version="1.0" encoding="utf-8"?>
<!-- Generator: Adobe Illustrator 21.1.0, SVG Export Plug-In . SVG Version: 6.00 Build 0)  -->
<svg version="1.1" id="Shazam" xmlns="http://www.w3.org/2000/svg" xmlns:xlink="http://www.w3.org/1999/xlink" x="0px" y="0px"
	 viewBox="0 0 23.9864 24.0012" enable-background="new 0 0 23.9864 24.0012" xml:space="preserve">
<rect fill="#2107F0" width="23.9864" height="24.0012"/>
<title>Shazam icon</title>
<g>
	<circle fill="#170751" cx="11.9946" cy="12.1425" r="9"/>
	<path fill="#FFFFFF" d="M10.6681,15.4189c-0.8933,0-1.7858-0.2957-2.4716-0.8891c-0.8426-0.7281-1.3423-1.7206-1.4083-2.7929
		C6.7258,10.6965,7.0798,9.6935,7.785,8.9141c0.7926-0.8766,2.2134-2.2384,2.2731-2.2967c0.3852-0.3692,0.996-0.3547,1.3645,0.0312
		c0.3679,0.3866,0.3554,0.9988-0.0305,1.368c-0.0146,0.0139-1.4305,1.3715-2.1773,2.196c-0.3526,0.3915-0.5303,0.8905-0.499,1.4069
		c0.034,0.5476,0.2971,1.0612,0.7426,1.4478c0.5858,0.5067,1.7421,0.6184,2.466-0.0298c0.4296-0.388,0.9523-0.9557,0.9578-0.962
		c0.3609-0.3935,0.9717-0.4185,1.3638-0.0562c0.3921,0.3609,0.4185,0.9731,0.0576,1.3666
		c-0.0243,0.0243-0.5913,0.6413-1.0911,1.0911C12.515,15.1031,11.5912,15.4189,10.6681,15.4189 M16.5052,15.3502
		c-0.7933,0.8759-2.2134,2.2384-2.2738,2.2967c-0.1874,0.1777-0.4268,0.2672-0.6663,0.2672c-0.2554,0-0.5081-0.1006-0.6982-0.2984
		c-0.3685-0.388-0.3554-0.9988,0.0305-1.368c0.0146-0.0139,1.4319-1.3722,2.1773-2.1974c0.3526-0.3908,0.5303-0.8905,0.499-1.4069
		c-0.0333-0.5476-0.2971-1.0612-0.7426-1.4464c-0.5858-0.5067-1.7421-0.6198-2.4653,0.0305
		c-0.431,0.3859-0.9529,0.955-0.9578,0.9606c-0.3616,0.3928-0.971,0.4192-1.3645,0.0583c-0.3915-0.3616-0.4192-0.9745-0.0569-1.368
		c0.0236-0.0257,0.59-0.6427,1.0904-1.0918c1.3736-1.234,3.6237-1.2583,5.016-0.0534c0.8426,0.7295,1.343,1.7213,1.4076,2.7936
		C17.5643,13.5657,17.2096,14.5707,16.5052,15.3502"/>
</g>
</svg>
