<?xml version="1.0" encoding="utf-8"?>
<!-- Generator: Adobe Illustrator 21.1.0, SVG Export Plug-In . SVG Version: 6.00 Build 0)  -->
<svg version="1.1" id="Tumblr" xmlns="http://www.w3.org/2000/svg" xmlns:xlink="http://www.w3.org/1999/xlink" x="0px" y="0px"
	 viewBox="0 0 72 72" enable-background="new 0 0 72 72" xml:space="preserve">
<g>
	<rect fill="#0F4260" width="72" height="72"/>
	<g>
		<path fill="#FFFFFF" d="M28.961,52.4327c0.4114,1.0826,1.1478,2.1049,2.2198,3.0673c1.0638,0.9551,2.3515,1.6992,3.8631,2.2223
			c1.509,0.5155,2.6679,0.7777,4.6359,0.7777c1.73,0,3.3396-0.186,4.829-0.5493c1.4921-0.3633,3.1576-1.0005,4.9912-1.9058v-7.0942
			c-2.1528,1.4809-4.3195,2.2208-6.4947,2.2208c-1.2259,0-2.3094-0.3003-3.264-0.8981c-0.7165-0.4408-1.3773-1.2056-1.6376-1.9408
			c-0.2632-0.7383-0.2323-2.2441-0.2323-4.8545V31.9395h9.9405v-8.0347h-9.9405V13.5h-6.1138
			c-0.2743,2.3188-0.7782,4.2334-1.509,5.7334c-0.7278,1.5028-1.6935,2.7891-2.9001,3.8643
			C26.1476,24.17,24.188,24.9932,22.5,25.566v6.3735h5.8424v15.7807C28.3424,49.7769,28.5466,51.3486,28.961,52.4327z"/>
	</g>
</g>
</svg>
