<?xml version="1.0" encoding="utf-8"?>
<!-- Generator: Adobe Illustrator 21.1.0, SVG Export Plug-In . SVG Version: 6.00 Build 0)  -->
<svg version="1.1" id="Apple" xmlns="http://www.w3.org/2000/svg" xmlns:xlink="http://www.w3.org/1999/xlink" x="0px" y="0px"
	 viewBox="0 0 119.7 119.4" enable-background="new 0 0 119.7 119.4" xml:space="preserve">
<rect fill="#00000C" width="119.7" height="119.4"/>
<title>WWDC</title>
<desc>Created with Sketch.</desc>
<g id="apple-page-1">
	<g id="apple-icons" transform="translate(-506.000000, -1266.000000)">
		<g id="apple-apple-apps" transform="translate(50.000000, 50.000000)">
			<g id="apple-wwdc" transform="translate(456.000000, 1216.000000)">
				<path id="apple--" fill="#FF000C" d="M71.4,27.1c3-3.3,4.7-7.8,4.4-12.4c-4.1,0-8.9,2.4-11.9,6c-2.4,2.9-4.9,7.5-4,12.1
					C64.2,33.3,68.8,30.6,71.4,27.1L71.4,27.1L71.4,27.1z M75.4,33.8c-6.4,0-12,3.5-15.1,3.5c-3.2,0-7.8-3.7-12.9-3.5
					c-6.7,0.1-12.9,4.1-16.4,10C28.5,48,27.6,53,27.7,58c0.1,9.5,3.9,19.4,8.2,25.7c3.4,4.8,7.2,10,12.6,10c4.9,0,6.7-3.2,13-3.2
					c5.9,0,7.8,3.2,12.9,3.2c5.4,0,8.9-4.9,12.1-9.8c4-5.7,5.4-11,5.6-11.3c-0.2,0-10.3-4.1-10.7-15.9c0-10.3,8.4-14.9,8.7-15.2
					C85.6,34.6,78.2,33.8,75.4,33.8L75.4,33.8L75.4,33.8z"/>
			</g>
		</g>
	</g>
</g>
</svg>
