<?xml version="1.0" encoding="utf-8"?>
<!-- Generator: Adobe Illustrator 21.1.0, SVG Export Plug-In . SVG Version: 6.00 Build 0)  -->
<svg version="1.1" id="Bbm" xmlns="http://www.w3.org/2000/svg" xmlns:xlink="http://www.w3.org/1999/xlink" x="0px" y="0px"
	 viewBox="0 0 128 128" enable-background="new 0 0 128 128" xml:space="preserve">
<g>
	<rect width="128" height="128"/>
	<path fill="#FFFFFF" d="M61.1219,92.6449c7.4055,0,9.5114-3.4972,9.5114-6.7629c0-2.3018-1.4013-5.2191-7.3118-5.2191h-9.1188
		L51.616,92.6449H61.1219z M96.0156,76.8622c0-2.2933-1.4099-5.2191-7.325-5.2191h-9.1096l-2.5867,11.9819h9.4928
		C93.9097,83.6251,96.0156,80.1186,96.0156,76.8622z M74.1568,67.1109c0-2.3018-1.4006-5.2012-7.3157-5.2012h-9.1134
		l-2.5828,11.9641h9.4835C72.0509,73.873,74.1568,70.3673,74.1568,67.1109z M39.2462,73.8737
		c7.4047-0.0008,9.5238-3.5065,9.5238-6.7629c0-2.3018-1.4099-5.2012-7.3288-5.2012h-9.1088l-2.5929,11.9641H39.2462z
		 M90.02,66.5666c7.4225,0,9.5284-3.5065,9.5284-6.7629c0-2.3018-1.4006-5.2105-7.3157-5.2105h-9.1181l-2.5875,11.9734H90.02z
		 M42.5204,55.8513c7.4225,0,9.5416-3.5065,9.5423-6.7629c0-2.3018-1.4145-5.2098-7.3296-5.2098h-9.1181l-2.5743,11.9726
		C33.0407,55.8513,42.5204,55.8513,42.5204,55.8513z M67.9204,55.8513c7.4233,0,9.5377-3.5065,9.5377-6.7629
		c0-2.3018-1.4099-5.2098-7.3335-5.2098h-9.1003l-2.5875,11.9726C58.4369,55.8513,67.9204,55.8513,67.9204,55.8513z"/>
</g>
</svg>
