<?xml version="1.0" encoding="utf-8"?>
<!-- Generator: Adobe Illustrator 21.1.0, SVG Export Plug-In . SVG Version: 6.00 Build 0)  -->
<svg version="1.1"
	 id="Udemy.svg" inkscape:version="0.92.2 (5c3e80d, 2017-08-06)" sodipodi:docname="udemy-icon.svg" xmlns:cc="http://creativecommons.org/ns#" xmlns:dc="http://purl.org/dc/elements/1.1/" xmlns:inkscape="http://www.inkscape.org/namespaces/inkscape" xmlns:rdf="http://www.w3.org/1999/02/22-rdf-syntax-ns#" xmlns:sodipodi="http://sodipodi.sourceforge.net/DTD/sodipodi-0.dtd" xmlns:svg="http://www.w3.org/2000/svg"
	 xmlns="http://www.w3.org/2000/svg" xmlns:xlink="http://www.w3.org/1999/xlink" x="0px" y="0px" viewBox="0 0 64 64"
	 enable-background="new 0 0 64 64" xml:space="preserve">
<sodipodi:namedview  bordercolor="#666666" borderopacity="1" gridtolerance="10" guidetolerance="10" id="namedview10" inkscape:current-layer="svg8" inkscape:cx="35.870206" inkscape:cy="83.5" inkscape:pageopacity="0" inkscape:pageshadow="2" inkscape:window-height="1001" inkscape:window-maximized="1" inkscape:window-width="1920" inkscape:window-x="-9" inkscape:window-y="-9" inkscape:zoom="1.3242188" objecttolerance="10" pagecolor="#ffffff" showgrid="false">
	</sodipodi:namedview>
<g id="Page-1_3_">
	<g id="Icons_3_" transform="translate(-2634.000000, -810.000000)">
		<g id="Travel-Apps_1_" transform="translate(2330.000000, 50.000000)">
			<g id="Expedia" transform="translate(304.000000, 760.000000)">
				<rect x="0.1116" y="0.1342" fill="#FFFF00" width="63.8886" height="63.8886"/>
				<g id="Icon_4_" transform="translate(27.000000, 27.000000)">
					<g id="Mask_1_">
						<ellipse id="path-3_1_" cx="5.7939" cy="5.3591" rx="23.9721" ry="23.9721"/>
					</g>
					<defs>
						
							<filter id="Adobe_OpacityMaskFilter" filterUnits="userSpaceOnUse" x="-18.9046" y="-14.9164" width="49.0336" height="34.0368">
							<feColorMatrix  type="matrix" values="1 0 0 0 0  0 1 0 0 0  0 0 1 0 0  0 0 0 1 0"/>
						</filter>
					</defs>
					<mask maskUnits="userSpaceOnUse" x="-18.9046" y="-14.9164" width="49.0336" height="34.0368" id="mask-4_1_">
						<g filter="url(#Adobe_OpacityMaskFilter)">
							<ellipse id="path-3_2_" fill="#FFFFFF" cx="5.7939" cy="5.3591" rx="23.9721" ry="23.9721"/>
						</g>
					</mask>
					<path mask="url(#mask-4_1_)" fill="#FFFF00" d="M-18.9046,9.2357c0,0,6.0953-2.4223,9.1317-3.4588
						c6.7022-2.2879,19.8732-6.5342,19.8732-6.5342c0.1875-0.0605,0.2403-0.2458,0.1255-0.4034L0.8475-14.0401
						c-0.2379-0.3267-0.1163-0.6991,0.2628-0.829l-0.0318,0.0109c0.383-0.1312,0.9399-0.0335,1.2508,0.224l14.3523,11.886
						c0,0,6.4078-1.77,9.6227-2.549c0.983-0.2382,2.9987-0.4707,2.9987-0.4707l0.8259,2.4513c0,0-1.8163,0.9325-2.8852,1.2926
						c-3.1789,1.0708-9.5218,2.8797-9.5218,2.8797l-5.5457,17.3327c-0.1229,0.3842-0.5437,0.7802-0.9264,0.881l-0.1064,0.028
						c-0.3887,0.1024-0.6855-0.1457-0.6638-0.5375l0.8573-15.4903c0.0111-0.1997-0.1401-0.3173-0.3345-0.2637
						c0,0-12.1205,3.359-20.0913,5.2633c-2.1016,0.5021-9.597,1.855-9.597,1.855L-18.9046,9.2357z"/>
				</g>
			</g>
		</g>
	</g>
</g>
</svg>
