<?xml version="1.0" encoding="utf-8"?>
<!-- Generator: Adobe Illustrator 21.1.0, SVG Export Plug-In . SVG Version: 6.00 Build 0)  -->
<svg version="1.1"
	 id="Udemy.svg" inkscape:version="0.92.2 (5c3e80d, 2017-08-06)" sodipodi:docname="udemy-icon.svg" xmlns:cc="http://creativecommons.org/ns#" xmlns:dc="http://purl.org/dc/elements/1.1/" xmlns:inkscape="http://www.inkscape.org/namespaces/inkscape" xmlns:rdf="http://www.w3.org/1999/02/22-rdf-syntax-ns#" xmlns:sodipodi="http://sodipodi.sourceforge.net/DTD/sodipodi-0.dtd" xmlns:svg="http://www.w3.org/2000/svg"
	 xmlns="http://www.w3.org/2000/svg" xmlns:xlink="http://www.w3.org/1999/xlink" x="0px" y="0px" viewBox="0 0 64 64"
	 enable-background="new 0 0 64 64" xml:space="preserve">
<sodipodi:namedview  bordercolor="#666666" borderopacity="1" gridtolerance="10" guidetolerance="10" id="namedview10" inkscape:current-layer="svg8" inkscape:cx="35.870206" inkscape:cy="83.5" inkscape:pageopacity="0" inkscape:pageshadow="2" inkscape:window-height="1001" inkscape:window-maximized="1" inkscape:window-width="1920" inkscape:window-x="-9" inkscape:window-y="-9" inkscape:zoom="1.3242188" objecttolerance="10" pagecolor="#ffffff" showgrid="false">
	</sodipodi:namedview>
<g>
	<rect x="0.0268" y="0.1693" fill="#FA4778" width="63.8843" height="63.9431"/>
	<path id="path22" inkscape:connector-curvature="0" fill="#FFFFFF" d="M49.0795,12.3484l-1.5302,7.3955
		c-0.1749,0.7877-0.9181,1.4879-1.8363,1.4879H32.422c-1.4865,0-2.7107,1.2253-2.7107,2.7132v1.6191
		c0,1.4879,1.2242,2.7132,2.7107,2.7132h11.2361c1.0493,0,1.9237,1.0065,1.7051,2.1005c-0.2186,1.1378-1.3991,6.9142-1.5302,7.5268
		c-0.0875,0.6564-0.787,1.4879-1.8363,1.4879h-9.1813c-1.9237,0.0438-2.3172,0.0875-3.4539,1.4879
		c-1.1367,1.4003-11.1924,14.0034-11.1924,14.0034c-0.0875,0.1313-0.1749,0.0875-0.1749-0.0438V11.9983
		c0-1.0065,0.8307-1.8379,1.8363-1.8379h27.5876C48.3799,10.1604,49.3418,11.1231,49.0795,12.3484"/>
</g>
</svg>
