<?xml version="1.0" encoding="utf-8"?>
<!-- Generator: Adobe Illustrator 21.1.0, SVG Export Plug-In . SVG Version: 6.00 Build 0)  -->
<svg version="1.1" id="ICQ" xmlns="http://www.w3.org/2000/svg" xmlns:xlink="http://www.w3.org/1999/xlink" x="0px" y="0px"
	 viewBox="0 0 72 72" enable-background="new 0 0 72 72" xml:space="preserve">
<g>
	<rect fill="#00E066" width="72" height="72"/>
	<path id="icq-path9-16" fill="#FFFFFF" d="M57.6189,38.2001l-0.3232-0.5075c-0.5173-0.7616-1.034-1.5231-1.8101-2.0299
		c-0.6457-0.4443-1.4218-0.7614-2.1328-1.079c2.0043-0.9519,3.4262-2.2839,4.0728-3.9972c0.4527-1.3959,0.3232-2.5377-0.3231-3.68
		v-0.1269c-0.7752-1.2691-1.8099-2.0942-3.4259-2.5377c-0.9699-0.1902-2.0689-0.1902-3.0384-0.127l-2.1333,0.4444l0.7115-1.5859
		c0.6466-2.0298,0.4525-3.9972-0.6467-5.8367l-0.1941-0.3174c-0.9697-1.5865-2.3918-2.538-4.3308-3.0453
		c-2.0041-0.5079-3.8784-0.3174-5.6893,0.6347c-1.8096,0.951-3.1027,2.4106-3.6842,4.3145v0.1271l-0.0648,0.444l-0.2584-0.444
		l-0.6467-1.1423c-1.0353-1.584-2.3284-2.5358-3.9442-2.9799c-1.4222-0.3174-2.586-0.1906-3.8138,0.4441
		c-1.358,0.8247-2.1341,2.094-2.4574,3.8703c-0.3232,1.8395,0,3.6166,0.97,5.3925l0.4529,0.6341l-1.552-0.5075
		c-1.9392-0.4445-3.7497-0.1905-5.5596,0.7614c-1.8744,0.9517-3.0385,2.2838-3.8143,4.1241
		c-0.7113,1.7769-0.6462,3.4898,0.2586,5.0754c0.3881,0.6981,0.9699,1.2686,1.4866,1.6493c0.7758,0.7614,1.7457,1.2059,2.909,1.3955
		l0.453,0.1269l-0.97,0.8253c-0.9053,0.7611-1.4219,1.7124-1.7454,2.6642c-0.3232,1.1424-0.1939,2.284,0.4526,3.363
		c0.3234,0.5068,0.646,0.9511,1.1632,1.2682c0.5174,0.4443,1.1639,0.7616,1.9392,0.8246c1.4226,0.3174,2.9093,0.3174,4.5251-0.1914
		l-1.1639,1.9034l-0.3232,0.8255c-0.646,2.0303-0.4529,3.8074,0.517,5.646c0.4527,0.6981,0.9701,1.3334,1.4874,1.9034
		c0.7758,0.6977,1.7453,1.1419,2.909,1.4594c1.939,0.507,3.8791,0.4443,5.7537-0.507c1.8105-0.9524,2.9737-2.4748,3.5556-4.3788
		l0.0648-0.3807c1.2277,1.3334,2.3919,2.2211,3.6852,2.5382c1.2924,0.381,2.5857,0.3172,3.7495-0.4443
		c1.0992-0.6345,1.8747-1.7132,2.2625-3.0453c0.3234-1.396,0.3234-2.7913,0-4.3771c0.6457,0.444,1.2924,0.7603,2.0686,0.9511
		c2.0685,0.6347,3.8786,0.5706,5.6889-0.3807c1.7459-0.9513,2.909-2.475,3.491-4.4417
		C58.7184,41.8162,58.5891,39.977,57.6189,38.2001L57.6189,38.2001z M48.2464,27.6063l0.7751-0.3167
		c1.1642-0.5076,2.2627-0.6345,3.4266-0.5076c1.0992,0.1269,1.8751,0.6339,2.2621,1.3955l0.2589,0.8244l-0.1295,0.6347
		c-0.4525,1.1422-1.4224,2.0299-3.0384,2.7279c-0.6458,0.3176-1.3572,0.4445-2.1333,0.5708l-7.9514,0.9519l-0.1293-0.4441
		l-0.129-0.1898l0.2583-0.3172L48.2464,27.6063L48.2464,27.6063z M37.2564,19.6138c0.3236-1.2685,1.2281-2.2201,2.3921-2.8549
		c1.1634-0.6339,2.4566-0.7614,3.6843-0.3172c1.358,0.3165,2.328,1.0145,2.9098,2.0928c0.3233,0.6337,0.5172,1.3954,0.5172,2.2203
		l-0.1941,1.3955c-0.2583,0.6981-0.5817,1.3326-0.9697,1.903l-5.8185,6.9798c-0.5819-0.4442-1.2285-0.7614-1.8752-1.0788
		l-0.6459-7.169l-0.0648-2.5377L37.2564,19.6138L37.2564,19.6138z M26.2011,19.8036c0.0648-1.1424,0.5175-1.903,1.2927-2.3475
		c0.3878-0.3173,0.9701-0.3173,1.4865-0.0633c1.1642,0.3173,2.1333,1.1421,2.9093,2.7281c0.3234,0.6345,0.6467,1.2686,0.7758,2.03
		l1.2928,7.4871l-0.9699,0.3174l-5.7537-6.1545l-0.3232-0.6338C26.3953,22.024,26.072,20.9459,26.2011,19.8036L26.2011,19.8036z
		 M16.6985,33.2542c-0.5172-0.9519-0.5172-1.903-0.1292-2.8549c0.4524-1.2057,1.2924-2.1576,2.521-2.6646
		c1.1632-0.6354,2.3267-0.8257,3.6198-0.5083l1.7457,0.6979l5.689,4.061c-0.5173,0.6339-0.8401,1.2684-1.0339,1.9029l-9.3092,1.1423
		l-0.6467-0.127C17.9913,34.713,17.216,34.2056,16.6985,33.2542z M34.6699,51.9708l-0.0648,0.6347
		c-0.4524,1.1408-1.2287,2.0928-2.3918,2.6006c-1.1634,0.6346-2.3919,0.7611-3.5557,0.444c-1.2925-0.3158-2.2623-1.0774-2.78-2.0927
		c-0.3234-0.6345-0.5818-1.3959-0.5818-2.1579l0.3234-1.458c0.1294-0.6345,0.4527-1.2699,0.9699-1.7771l5.4303-6.3448
		c0.6466,0.3163,1.2924,0.6338,2.0037,0.6973c0.1296,2.1573,0.3234,4.4413,0.6466,6.9158v2.5381H34.6699z M32.5367,39.2811
		c-0.8405-0.7617-1.2924-1.8404-1.2924-2.9822c0-1.1413,0.452-2.0936,1.2924-2.9822c0.7752-0.6978,1.81-1.1413,3.0385-1.1413
		c1.1642,0,2.2626,0.444,2.9738,1.1413c0.9054,0.8886,1.2931,1.8408,1.2931,2.9822c0,1.1418-0.3879,2.2203-1.2931,2.9822
		c-0.8405,0.8244-1.8099,1.2684-2.9738,1.2684C34.3467,40.5495,33.312,40.1055,32.5367,39.2811L32.5367,39.2811z M44.4967,50.3845
		c-0.1295,1.1423-0.5175,1.9668-1.2929,2.2839c-0.4524,0.3172-0.9697,0.3172-1.4865,0.2529
		c-1.2286-0.3158-2.1986-1.2681-2.909-2.7913l-0.7761-2.093l-0.9699-5.52l1.0993-0.381l0.8399-0.4443l2.7151,2.7284l1.6808,2.0298
		l0.3231,0.6349C44.3025,48.1633,44.6259,49.1787,44.4967,50.3845L44.4967,50.3845z M55.6164,42.96
		c-0.3232,1.2699-1.0992,2.2212-2.1985,2.7282c-1.1638,0.6345-2.327,0.7614-3.6203,0.3172c-0.7761-0.1899-1.2927-0.507-1.746-1.0142
		l-6.7881-5.52l0.4525-0.9514l0.1947-0.7621l7.3056-0.6339l2.586-0.0634l0.6467,0.0634c0.9694,0.3174,1.875,0.8885,2.3914,1.8399
		c0.646,0.6978,0.9694,1.6493,0.9694,2.7277L55.6164,42.96L55.6164,42.96z"/>
</g>
</svg>
