<?xml version="1.0" encoding="utf-8"?>
<!-- Generator: Adobe Illustrator 21.1.0, SVG Export Plug-In . SVG Version: 6.00 Build 0)  -->
<svg version="1.1" id="Kik" xmlns="http://www.w3.org/2000/svg" xmlns:xlink="http://www.w3.org/1999/xlink" x="0px" y="0px"
	 viewBox="0 0 512 511.5273" enable-background="new 0 0 512 511.5273" xml:space="preserve">
<sodipodi:namedview  bordercolor="#666666" borderopacity="1" fit-margin-bottom="0" fit-margin-left="0" fit-margin-right="0" fit-margin-top="0" gridtolerance="10" guidetolerance="10" id="namedview3432" inkscape:current-layer="svg3415" inkscape:cx="256" inkscape:cy="256" inkscape:pageopacity="0" inkscape:pageshadow="2" inkscape:window-height="1056" inkscape:window-maximized="1" inkscape:window-width="1855" inkscape:window-x="65" inkscape:window-y="24" inkscape:zoom="1.7949219" objecttolerance="10" pagecolor="#ffffff" showgrid="false">
	</sodipodi:namedview>
<title  id="title3417">logo</title>
<desc  id="desc3419">Created with Sketch.</desc>
<rect fill="#5DCD11" width="512" height="511.5273"/>
<g id="kik-g3517" transform="matrix(11.533184,0,0,11.533184,93.497293,-5475.1161)">
	<path id="kik-fill-1" inkscape:connector-curvature="0" fill="#FFFFFF" d="M26.8278,495.1927c2.029,0,3.6733,1.6422,3.6733,3.668
		s-1.6443,3.668-3.6733,3.668c-2.0289,0-3.673-1.6422-3.673-3.668S24.799,495.1927,26.8278,495.1927"/>
	<path id="kik-fill-8" inkscape:connector-curvature="0" fill="#FFFFFF" d="M14.8883,498.5728l4.2011-4.1471
		c1.3589-1.3414,1.3292-3.5485-0.0653-4.8528l0,0c-1.3099-1.2252-3.3491-1.2002-4.6287,0.057l-6.227,6.1172l-0.0258-12.3825
		c-0.0037-1.8023-1.4003-3.3366-3.196-3.4033c-1.8888-0.0702-3.4465,1.4453-3.4465,3.3289L1.5,508.6434
		c0,1.8312,1.4799,3.3156,3.3055,3.3156l0,0c1.8256,0,3.3054-1.4843,3.3055-3.3155l0.0002-4.1394l1.6755-1.5593l5.6636,7.6469
		c1.0889,1.4703,3.1546,1.7879,4.6324,0.7121l0,0c1.4984-1.0907,1.8233-3.1971,0.7238-4.6909L14.8883,498.5728L14.8883,498.5728z"/>
</g>
</svg>
