<?xml version="1.0" encoding="utf-8"?>
<!-- Generator: Adobe Illustrator 21.1.0, SVG Export Plug-In . SVG Version: 6.00 Build 0)  -->
<svg version="1.1" id="Mail" xmlns="http://www.w3.org/2000/svg" xmlns:xlink="http://www.w3.org/1999/xlink" x="0px" y="0px"
	 viewBox="0 0 72 72" enable-background="new 0 0 72 72" xml:space="preserve">
<g id="mail-layer-224">
	<g>
		<rect fill="#669C41" width="72" height="72"/>
		<g>
			<path fill="#FFFFFF" d="M55.5885,28.6995c-0.0705-0.057-0.135-0.081-0.1995-0.108V17.334c0-0.3285-0.264-0.5955-0.5805-0.5955
				h-14.367c-0.0375-0.042-0.0645-0.084-0.12-0.129L36.768,13.797c-0.4095-0.3255-1.0785-0.3255-1.488,0l-3.5505,2.8125
				c-0.0585,0.045-0.0855,0.087-0.12,0.129h-14.34c-0.3165,0-0.5775,0.267-0.5775,0.5955v11.2455
				c-0.0735,0.024-0.147,0.057-0.228,0.12l-2.1945,1.737c-0.4065,0.324-0.741,1.023-0.741,1.5525v25.599
				c0,0.5295,0.4215,0.9645,0.9345,0.9645h43.125c0.519,0,0.9405-0.4335,0.9405-0.9645V31.989c0-0.5295-0.3345-1.2285-0.744-1.5525
				L55.5885,28.6995z M52.296,35.811c0,0.3285-0.228,0.723-0.51,0.876l-15.24,8.43c-0.2775,0.153-0.738,0.153-1.017,0l-15.237-8.43
				c-0.279-0.153-0.507-0.5475-0.507-0.876V19.89c0-0.3285,0.258-0.5955,0.5745-0.5955h31.356c0.3165,0,0.5805,0.267,0.5805,0.5955
				V35.811z"/>
			<rect x="23.2365" y="24.39" fill="#FFFFFF" width="9" height="9.2505"/>
			<rect x="34.8405" y="24.39" fill="#FFFFFF" width="15.237" height="1.7055"/>
			<rect x="34.8405" y="27.858" fill="#FFFFFF" width="15.237" height="1.704"/>
			<rect x="34.8405" y="31.326" fill="#FFFFFF" width="6.222" height="1.707"/>
		</g>
	</g>
</g>
<g id="mail-layer-1">
</g>
</svg>
