<?xml version="1.0" encoding="utf-8"?>
<!-- Generator: Adobe Illustrator 21.1.0, SVG Export Plug-In . SVG Version: 6.00 Build 0)  -->
<svg version="1.1" id="Spotify" xmlns="http://www.w3.org/2000/svg" xmlns:xlink="http://www.w3.org/1999/xlink" x="0px" y="0px"
	 viewBox="0 0 72 72" enable-background="new 0 0 72 72" xml:space="preserve">
<g>
	<rect width="72" height="72"/>
	<path fill="#2EBD59" d="M34.8879,9c-14.9122,0-27,12.0878-27,27s12.0878,27,27,27s27-12.0878,27-27
		C61.8879,21.0897,49.8001,9.0018,34.8879,9z M47.2705,47.9404c-0.4845,0.7959-1.5218,1.0446-2.314,0.5601
		c-6.3396-3.8745-14.3208-4.7496-23.7187-2.6033c-0.9064,0.2082-1.8092-0.3593-2.0156-1.2657
		c-0.2082-0.9064,0.3574-1.8092,1.2657-2.0156c10.2841-2.349,19.1073-1.3376,26.2244,3.0104
		C47.5045,46.1146,47.7569,47.1482,47.2705,47.9404z M50.5739,40.5912c-0.6098,0.9912-1.9069,1.3007-2.8962,0.6927
		c-7.2553-4.4604-18.3206-5.7519-26.9042-3.1468c-1.1128,0.3372-2.2882-0.2911-2.6272-1.402
		c-0.3353-1.1128,0.2929-2.2864,1.4039-2.6254c9.8051-2.9754,21.9961-1.5347,30.3292,3.5871
		C50.8705,38.3067,51.1837,39.6018,50.5739,40.5912L50.5739,40.5912z M50.8576,32.9343
		c-8.7034-5.1679-23.0592-5.6432-31.3683-3.1228c-1.3339,0.4053-2.7451-0.3482-3.1486-1.6821
		c-0.4035-1.3339,0.3482-2.7451,1.6839-3.1505c9.538-2.8944,25.3916-2.3361,35.4104,3.6111c1.1994,0.713,1.5937,2.2624,0.8825,3.46
		C53.6083,33.2512,52.0552,33.6473,50.8576,32.9343z"/>
</g>
</svg>
