<?xml version="1.0" encoding="utf-8"?>
<!-- Generator: Adobe Illustrator 21.1.0, SVG Export Plug-In . SVG Version: 6.00 Build 0)  -->
<svg version="1.1" id="Udemy" xmlns="http://www.w3.org/2000/svg" xmlns:xlink="http://www.w3.org/1999/xlink" x="0px" y="0px"
	 viewBox="0 0 63.7744 63.7629" enable-background="new 0 0 63.7744 63.7629" xml:space="preserve">
<rect fill="#EA5252" width="63.7744" height="63.7629"/>
<sodipodi:namedview  bordercolor="#666666" borderopacity="1" gridtolerance="10" guidetolerance="10" id="namedview10" inkscape:current-layer="svg8" inkscape:cx="35.870206" inkscape:cy="83.5" inkscape:pageopacity="0" inkscape:pageshadow="2" inkscape:window-height="1001" inkscape:window-maximized="1" inkscape:window-width="1920" inkscape:window-x="-9" inkscape:window-y="-9" inkscape:zoom="1.3242188" objecttolerance="10" pagecolor="#ffffff" showgrid="false">
	</sodipodi:namedview>
<path id="udemy-udemy-path4" inkscape:connector-curvature="0" fill="#FFFFFF" d="M53.1587,34.6858
	c-0.1463-0.1198-0.3201-0.2015-0.5057-0.2377c-1.0918,1.0881-2.424,2.2344-3.607,3.005c-0.5458,0.3626-1.2325,0.5441-1.6869,0.5441
	c-1.0463,0-1.501-0.9976-1.6376-2.5835c-0.1819-2.1301-0.3049-4.6815-0.3049-8.6249c0-4.0444-0.9179-6.7938-3.3629-7.0095
	c-0.1034-0.0093-0.2079-0.0155-0.3167-0.0155c-1.5012,0-2.229,0.7703-3.184,2.7195c-0.8188,1.6768-2.0922,4.1241-4.4572,8.747
	c-2.0468,3.9888-4.3208,7.524-6.2771,9.9716c-0.5447,0.6783-0.9752,1.1444-1.3799,1.4096c-0.2704,0.178-0.5298,0.267-0.8031,0.267
	c-0.772,0-1.3355-0.6516-1.5238-2.1685c-0.0448-0.3605-0.0683-0.7699-0.0683-1.2308c0-3.1271,1.1829-8.2034,3.2293-15.682
	c1.501-5.4385,0.8645-9.1545-2.4109-9.1545h-0.0366l-0.0021,0.0004c-0.7417,0.0086-1.3564,0.2773-1.9489,0.7434
	c-0.5831,0.4592-1.1668,1.451-1.7115,2.7845c-0.6141,1.5018-4.3486,8.9927-10.2924,12.8515
	c-0.07,1.4671,0.7606,2.9336,2.4434,3.0927c1.532,0.1452,2.6199-0.5005,4.0205-1.4413c-0.1878,0.8374-0.3728,1.6755-0.5551,2.5141
	c-0.1069,0.4896-0.1745,0.8048-0.1948,0.892c-0.1848,0.8405-0.3261,1.6899-0.4234,2.5449
	c-0.8382,7.4913,2.6339,11.1877,6.7001,11.1877c0.6796,0,1.3529-0.0808,2.0215-0.2508c4.4801-1.136,8.7931-6.2749,13.8981-18.1047
	c-0.0776,1.2868-0.0855,2.4887-0.0297,3.604c0.3361,6.78,3.0179,8.8143,6.8067,8.8143c2.8655,0,5.549-1.4954,6.9134-3.3538
	c1.0009-1.3144,1.4103-2.7649,1.4103-3.8979C53.8814,35.7442,53.6024,35.0422,53.1587,34.6858"/>
</svg>
