<?xml version="1.0" encoding="utf-8"?>
<!-- Generator: Adobe Illustrator 21.1.0, SVG Export Plug-In . SVG Version: 6.00 Build 0)  -->
<svg version="1.1"
	 id="Udemy.svg" inkscape:version="0.92.2 (5c3e80d, 2017-08-06)" sodipodi:docname="udemy-icon.svg" xmlns:cc="http://creativecommons.org/ns#" xmlns:dc="http://purl.org/dc/elements/1.1/" xmlns:inkscape="http://www.inkscape.org/namespaces/inkscape" xmlns:rdf="http://www.w3.org/1999/02/22-rdf-syntax-ns#" xmlns:sodipodi="http://sodipodi.sourceforge.net/DTD/sodipodi-0.dtd" xmlns:svg="http://www.w3.org/2000/svg"
	 xmlns="http://www.w3.org/2000/svg" xmlns:xlink="http://www.w3.org/1999/xlink" x="0px" y="0px" viewBox="0 0 64 64"
	 enable-background="new 0 0 64 64" xml:space="preserve">
<sodipodi:namedview  bordercolor="#666666" borderopacity="1" gridtolerance="10" guidetolerance="10" id="namedview10" inkscape:current-layer="svg8" inkscape:cx="35.870206" inkscape:cy="83.5" inkscape:pageopacity="0" inkscape:pageshadow="2" inkscape:window-height="1001" inkscape:window-maximized="1" inkscape:window-width="1920" inkscape:window-x="-9" inkscape:window-y="-9" inkscape:zoom="1.3242188" objecttolerance="10" pagecolor="#ffffff" showgrid="false">
	</sodipodi:namedview>
<g>
	<rect x="0.2401" y="0.0217" fill="#EA5252" width="64" height="64"/>
	<path id="path4" inkscape:connector-curvature="0" fill="#FFFFFF" d="M54.5344,35.6519c-0.1531-0.1253-0.3349-0.2108-0.529-0.2486
		c-1.1422,1.1383-2.5359,2.3375-3.7734,3.1436c-0.571,0.3794-1.2894,0.5692-1.7648,0.5692c-1.0946,0-1.5702-1.0437-1.7131-2.7027
		c-0.1903-2.2284-0.319-4.8976-0.319-9.0229c0-4.231-0.9603-7.1073-3.518-7.3329c-0.1082-0.0097-0.2175-0.0162-0.3314-0.0162
		c-1.5705,0-2.3319,0.8059-3.3309,2.8449c-0.8566,1.7542-2.1888,4.3144-4.6629,9.1507c-2.1412,4.1729-4.5202,7.8712-6.5668,10.4317
		c-0.5698,0.7096-1.0202,1.1972-1.4435,1.4747c-0.2829,0.1862-0.5543,0.2793-0.8401,0.2793c-0.8077,0-1.3971-0.6816-1.5941-2.2686
		c-0.0469-0.3771-0.0715-0.8054-0.0715-1.2876c0-3.2714,1.2375-8.5819,3.3783-16.4056c1.5702-5.6894,0.9044-9.5769-2.5222-9.5769
		h-0.0383l-0.0023,0.0005c-0.7759,0.009-1.419,0.2901-2.0389,0.7777c-0.61,0.4804-1.2206,1.5179-1.7905,2.913
		c-0.6424,1.5711-4.5493,9.4076-10.7673,13.4446c-0.0733,1.5348,0.7957,3.069,2.5562,3.2354
		c1.6027,0.1519,2.7408-0.5236,4.206-1.5078c-0.1965,0.8761-0.39,1.7528-0.5807,2.6301c-0.1118,0.5121-0.1826,0.8419-0.2038,0.9332
		c-0.1933,0.8792-0.3412,1.7679-0.4429,2.6624c-0.8769,7.837,2.7555,11.7039,7.0092,11.7039c0.711,0,1.4154-0.0845,2.1148-0.2624
		c4.6868-1.1884,9.1989-6.5645,14.5394-18.9402c-0.0811,1.3462-0.0895,2.6035-0.0311,3.7703
		c0.3516,7.0929,3.1571,9.221,7.1208,9.221c2.9978,0,5.8051-1.5644,7.2324-3.5086c1.0471-1.375,1.4753-2.8925,1.4753-4.0777
		C55.2905,36.7591,54.9986,36.0247,54.5344,35.6519"/>
</g>
</svg>
