<?xml version="1.0" encoding="utf-8"?>
<!-- Generator: Adobe Illustrator 21.1.0, SVG Export Plug-In . SVG Version: 6.00 Build 0)  -->
<svg version="1.1" id="Whatsapp" xmlns="http://www.w3.org/2000/svg" xmlns:xlink="http://www.w3.org/1999/xlink" x="0px" y="0px"
	 viewBox="0 0 72 72" enable-background="new 0 0 72 72" xml:space="preserve">
<g>
	<rect fill="#00C451" width="72" height="72"/>
	<path id="whatsapp-whatsapp" fill="#FFFFFF" d="M58.5,35.4208c0,12.1061-9.8901,21.9201-22.091,21.9201
		c-3.8734,0-7.5124-0.9903-10.6785-2.7273L13.5,58.5l3.9867-11.7612c-2.0112-3.3037-3.1693-7.1777-3.1693-11.3181
		c0-12.1068,9.8904-21.9207,22.0915-21.9207C48.6099,13.5001,58.5,23.3141,58.5,35.4208z M36.409,16.9911
		c-10.2421,0-18.573,8.2678-18.573,18.4297c0,4.0322,1.3143,7.7673,3.5376,10.8051l-2.3199,6.8436l7.1373-2.2684
		c2.933,1.9252,6.4454,3.0486,10.2178,3.0486c10.2408,0,18.573-8.2671,18.573-18.429
		C54.9819,25.2589,46.6498,16.9911,36.409,16.9911z M47.5639,40.4687c-0.136-0.2237-0.4969-0.3584-1.0377-0.6267
		c-0.542-0.2685-3.2051-1.5688-3.7005-1.7475c-0.4971-0.1793-0.8586-0.2693-1.2194,0.2682
		c-0.3604,0.5389-1.3981,1.7476-1.7148,2.106c-0.3159,0.3591-0.6311,0.4039-1.1729,0.135
		c-0.5407-0.2685-2.2863-0.8356-4.3548-2.6664c-1.6095-1.4241-2.6966-3.1821-3.0124-3.7206
		c-0.3161-0.5376-0.0335-0.8283,0.2373-1.0957c0.2437-0.2416,0.5416-0.6279,0.8127-0.9408c0.2709-0.3144,0.3609-0.538,0.541-0.8965
		c0.1814-0.3588,0.09-0.6723-0.0448-0.9417c-0.1353-0.2682-1.2188-2.9127-1.67-3.9881c-0.4513-1.0755-0.9014-0.8962-1.218-0.8962
		c-0.3161,0-0.6767-0.045-1.0383-0.045c-0.361,0-0.948,0.1348-1.444,0.672c-0.496,0.538-1.8946,1.8375-1.8946,4.4812
		c0,2.6444,1.9398,5.1988,2.211,5.557c0.2705,0.3575,3.7449,5.9594,9.2494,8.1116c5.5066,2.1502,5.5066,1.4337,6.4996,1.3429
		c0.9915-0.0886,3.2028-1.2987,3.6549-2.5539C47.6986,41.7691,47.6986,40.6926,47.5639,40.4687L47.5639,40.4687z"/>
</g>
</svg>
