<?xml version="1.0" encoding="utf-8"?>
<!-- Generator: Adobe Illustrator 21.1.0, SVG Export Plug-In . SVG Version: 6.00 Build 0)  -->
<svg version="1.1" id="Android" xmlns="http://www.w3.org/2000/svg" xmlns:xlink="http://www.w3.org/1999/xlink" x="0px" y="0px"
	 viewBox="0 0 72 72" enable-background="new 0 0 72 72" xml:space="preserve">
<g id="android-layer-256">
	<g>
		<rect fill="#98BF24" width="72" height="72"/>
		<g>
			<path fill="#FFFFFF" d="M42.1305,17.322l0.498-0.738l0.492-0.723l1.1055-1.629c0.1335-0.2025,0.081-0.471-0.123-0.606
				c-0.2055-0.132-0.48-0.0795-0.6135,0.123l-1.1865,1.746l-0.498,0.735l-0.507,0.744c-1.5975-0.612-3.387-0.9525-5.271-0.9525
				s-3.6705,0.339-5.271,0.9525l-0.507-0.744l-0.495-0.735l-1.1865-1.746c-0.1365-0.1995-0.411-0.255-0.6165-0.123
				c-0.1995,0.135-0.2565,0.4035-0.1185,0.606l1.1025,1.629l0.492,0.723l0.501,0.738c-3.7635,1.719-6.309,4.98-6.309,8.715h24.819
				C48.4365,22.302,45.891,19.0425,42.1305,17.322z M30.711,22.554c-0.7365,0-1.3305-0.5865-1.3305-1.3065
				c0-0.723,0.594-1.3065,1.3305-1.3065c0.7335,0,1.3275,0.5835,1.3275,1.3065C32.037,21.969,31.4445,22.554,30.711,22.554z
				 M41.346,22.554c-0.7365,0-1.3305-0.5865-1.3305-1.3065c0-0.723,0.594-1.3065,1.3305-1.3065
				c0.7335,0,1.3305,0.5835,1.3305,1.3065C42.6765,21.969,42.0795,22.554,41.346,22.554z"/>
			<path fill="#FFFFFF" d="M48.4365,46.941V31.725v-1.773v-2.1735H48.246H23.811h-0.1935v2.1735v1.773v15.2175
				c0,1.521,1.2585,2.76,2.808,2.76h2.025c-0.066,0.228-0.108,0.471-0.108,0.723v0.144v0.873v4.5c0,1.4415,1.1925,2.61,2.6625,2.61
				c1.467,0,2.6595-1.1685,2.6595-2.61v-4.5v-0.873v-0.144c0-0.252-0.039-0.495-0.108-0.723h4.938
				c-0.066,0.228-0.105,0.471-0.105,0.723v0.144v0.873v4.5c0,1.4415,1.1925,2.61,2.6595,2.61c1.467,0,2.6595-1.1685,2.6595-2.61
				v-4.5v-0.873v-0.144c0-0.252-0.039-0.495-0.108-0.723h2.028C47.178,49.701,48.4365,48.462,48.4365,46.941z"/>
			<path fill="#FFFFFF" d="M16.527,30.3915V41.571c0,1.4415,1.1895,2.61,2.6595,2.61c1.467,0,2.6595-1.1685,2.6595-2.61V30.3915
				c0-1.4445-1.1925-2.613-2.6595-2.613C17.7165,27.7785,16.527,28.947,16.527,30.3915z"/>
			<path fill="#FFFFFF" d="M50.211,30.3915V41.571c0,1.4415,1.1895,2.61,2.6565,2.61c1.47,0,2.6595-1.1685,2.6595-2.61V30.3915
				c0-1.4445-1.1895-2.613-2.6595-2.613C51.4005,27.7785,50.211,28.947,50.211,30.3915z"/>
		</g>
	</g>
</g>
</svg>
