<?xml version="1.0" encoding="utf-8"?>
<!-- Generator: Adobe Illustrator 21.1.0, SVG Export Plug-In . SVG Version: 6.00 Build 0)  -->
<svg version="1.1" id="Bebo" xmlns="http://www.w3.org/2000/svg" xmlns:xlink="http://www.w3.org/1999/xlink" x="0px" y="0px"
	 viewBox="0 0 72 72" enable-background="new 0 0 72 72" xml:space="preserve">
<g>
	<rect fill="#FF0014" width="72" height="72"/>
	<g>
		<path fill="#FFFFFF" d="M19.6698,13.5C17.0872,13.5,15,15.5127,15,18v22.4985C15,50.4215,23.3733,58.5,33.6666,58.5h4.6698
			C48.6267,58.5,57,50.9268,57,41.6265c0-9.3076-6.2768-16.875-13.997-16.875h-9.3364c-2.5794,0-4.6667,2.0112-4.6667,4.5
			c0,2.4828,2.0872,4.5,4.6667,4.5h9.3364c2.154,0,4.6637,3.4365,4.6637,7.875c0,4.3389-4.1866,7.8735-9.3303,7.8735h-4.6698
			c-5.1435,0-9.3302-4.0401-9.3302-9.0015V18C24.3364,15.5127,22.2432,13.5,19.6698,13.5z"/>
	</g>
</g>
</svg>
