<?xml version="1.0" encoding="utf-8"?>
<!-- Generator: Adobe Illustrator 21.1.0, SVG Export Plug-In . SVG Version: 6.00 Build 0)  -->
<svg version="1.1" id="Books" xmlns="http://www.w3.org/2000/svg" xmlns:xlink="http://www.w3.org/1999/xlink" x="0px" y="0px"
	 viewBox="0 0 72 72" enable-background="new 0 0 72 72" xml:space="preserve">
<g id="books-layer-222">
	<g>
		<rect fill="#2BB673" width="72" height="72"/>
		<g>
			<rect x="23.685" y="48.7419" fill="#FFFFFF" width="18.108" height="3.7935"/>
			<polygon fill="#FFFFFF" points="47.1225,14.2005 50.217,31.6995 54.027,31.05 50.9325,13.5525 			"/>
			<polygon fill="#FFFFFF" points="42.228,43.875 24.201,42.246 23.8485,46.023 41.8755,47.652 			"/>
			<polygon fill="#FFFFFF" points="43.419,38.925 25.935,34.314 24.9315,37.977 42.4125,42.588 			"/>
			<polygon fill="#FFFFFF" points="45.7005,34.5855 30.108,25.5645 28.14,28.8285 43.7385,37.8525 			"/>
			<polygon fill="#FFFFFF" points="36.129,19.392 46.3305,34.065 49.527,31.929 39.324,17.253 			"/>
			<path fill="#FFFFFF" d="M44.868,55.563H21.1215v-15.51H18.027v18.483h0.033c0,0.0165,0.9015,0.0165,0.9015,0.0165H47.931V58.536
				c0.03,0,0.03-0.885,0.03-0.885V40.053h-3.0945v15.51H44.868z"/>
		</g>
	</g>
</g>
<g id="books-layer-1">
</g>
</svg>
