<?xml version="1.0" encoding="utf-8"?>
<!-- Generator: Adobe Illustrator 21.1.0, SVG Export Plug-In . SVG Version: 6.00 Build 0)  -->
<svg version="1.1" id="CNN" xmlns="http://www.w3.org/2000/svg" xmlns:xlink="http://www.w3.org/1999/xlink" x="0px" y="0px"
	 viewBox="0 0 72 72" enable-background="new 0 0 72 72" xml:space="preserve">
<g id="cnn-page-1">
	<g id="cnn-icons" transform="translate(-3090.000000, -354.000000)">
		<g id="cnn-news-apps" transform="translate(2330.000000, 50.000000)">
			<g id="cnn-cnn" transform="translate(760.000000, 304.000000)">
				<rect fill="#CC0000" width="72" height="72"/>
				<g id="cnn-icon" transform="translate(12.000000, 38.000000)">
					<path id="cnn-background" fill="#FFFFFF" d="M7.8083-7.4c0,0-3.3739-0.2181-4.8444,3.2425s1.0526,5.9931,1.0526,5.9931
						S5.3934,3.3685,7.8083,3.4c2.4149,0.0314,6.0536,0,6.0536,0v-15.0027c0-1.9867,1.6069-3.5973,3.5944-3.5973h1.4069
						c1.3279,0,2.9583,0.9265,3.6356,2.0595L28.8-2.6v-8.9978c0-1.9895,1.6097-3.6022,3.6034-3.6022h1.6775
						c1.3244,0,2.9364,0.9265,3.6029,2.0736L43.8-2.6v-12.6h7.5V7.5983c0,1.9891-1.6144,3.6017-3.5978,3.6017h-1.1539
						c-1.3266,0-2.9569-0.9265-3.6354-2.0595L36.6-1.4v8.9978c0,1.9894-1.6082,3.6022-3.5999,3.6022h-1.6759
						c-1.3231,0-2.9529-0.9163-3.6437-2.0524L21.2677-1.4v8.9978c0,1.9894-1.6151,3.6022-3.5983,3.6022H7.1885l0,0
						C0.5674,11.2-4.8,5.5608-4.8-1.4008v-1.1985C-4.8-9.5584,0.8373-15.2,7.7993-15.2H12.6l0,7.8H7.8083z"/>
					<path id="cnn-line" fill="none" stroke="#CC0000" stroke-width="2" d="M12.6-11.3H7.8025C2.8305-11.3-1.2-7.2755-1.2-2.2997
						v0.5993C-1.2,3.2704,2.8264,7.3,7.8014,7.3h7.9196c0.9911,0,1.7945-0.8115,1.7945-1.8008V-9.7943
						c0-1.9914,0.8989-2.2656,2.0043-0.6178L30.6044,6.1122c1.1069,1.6501,2.0043,1.3787,2.0043-0.6147V-9.7975
						c0-1.9896,0.8865-2.2541,1.9795-0.5914L45.4205,6.0889C46.5138,7.7519,47.4,7.4868,47.4,5.5014V-15.2"/>
				</g>
			</g>
		</g>
	</g>
</g>
</svg>
