<?xml version="1.0" encoding="utf-8"?>
<!-- Generator: Adobe Illustrator 21.1.0, SVG Export Plug-In . SVG Version: 6.00 Build 0)  -->
<svg version="1.1" id="Gmail" xmlns="http://www.w3.org/2000/svg" xmlns:xlink="http://www.w3.org/1999/xlink" x="0px" y="0px"
	 viewBox="0 0 71.9628 72" enable-background="new 0 0 71.9628 72" xml:space="preserve">
<g>
	<rect fill="#075A4D" width="71.9628" height="72"/>
	<path fill="none" d="M60.5766,62.1999h0.014 M60.5906,62.1999h-0.014"/>
	<g>
		<path fill="#B2392F" d="M66.5394,22.168l0.0081,30.9325c-0.1192,3.4381-1.6943,4.6652-6.9384,4.7229l-0.0135-30.9646
			l6.9452-4.6921L66.5394,22.168L66.5394,22.168z"/>
		<g>
			<path fill="#E75A4D" d="M61.5278,16.0676c2.7494,0,4.999,2.1276,4.999,4.728v1.3706l-6.9452,4.6921L35.937,42.2631
				L12.2924,26.702v31.1208h-1.7796c-2.7494,0-4.999-2.1276-4.999-4.7279V20.7968c0-2.6004,2.2496-4.728,4.999-4.728L35.937,33.8971
				l25.5894-17.8283L61.5278,16.0676L61.5278,16.0676z"/>
			<path fill="#E7E4D7" d="M12.2924,26.702v31.1208h47.2906V26.8583L35.937,42.2631L12.2924,26.702z"/>
			<path fill="#B7B6AD" d="M59.5829,26.8583l0.0135,30.9645L35.937,42.2631L59.5829,26.8583z"/>
			<path fill="#F7F5ED" d="M10.5127,16.0676L35.937,33.8959l25.5908-17.8283H10.5127z"/>
		</g>
	</g>
</g>
</svg>
