<?xml version="1.0" encoding="utf-8"?>
<!-- Generator: Adobe Illustrator 21.1.0, SVG Export Plug-In . SVG Version: 6.00 Build 0)  -->
<svg version="1.1" id="Metacafe" xmlns="http://www.w3.org/2000/svg" xmlns:xlink="http://www.w3.org/1999/xlink" x="0px" y="0px"
	 viewBox="0 0 72 72" enable-background="new 0 0 72 72" xml:space="preserve">
<g>
	<rect fill="#E27000" width="72" height="72"/>
	<g>
		<polygon fill="#FFFFFF" points="50.3409,45.9858 47.8182,38.2515 45.2985,45.9858 37.1364,45.9858 43.737,50.7655 41.2173,58.5 
			47.8182,53.7202 54.4189,58.5 51.8991,50.7655 58.5,45.9858 		"/>
		<path fill="#FFFFFF" d="M41.8435,51.3793c-1.3876-1.0048-9.6614-6.996-9.6614-6.996s10.226,0,11.946,0
			c0.5292-1.629,3.69-11.3233,3.69-11.3233s3.1606,9.6943,3.6928,11.3233c0.835,0,3.6753,0,6.3773,0L47.8182,13.5l-8.1003,24.8481
			H13.5l26.3473,19.1572C40.6911,54.9184,41.5849,52.1791,41.8435,51.3793z"/>
	</g>
</g>
</svg>
