<?xml version="1.0" encoding="utf-8"?>
<!-- Generator: Adobe Illustrator 21.1.0, SVG Export Plug-In . SVG Version: 6.00 Build 0)  -->
<svg version="1.1" id="Pinterest" xmlns="http://www.w3.org/2000/svg" xmlns:xlink="http://www.w3.org/1999/xlink" x="0px" y="0px"
	 viewBox="0 0 72 72" enable-background="new 0 0 72 72" xml:space="preserve">
<g>
	<rect fill="#EB1A22" width="72" height="72"/>
	<g>
		<path fill="#FFFFFF" d="M25.7262,58.2138c0.0423,0.3077,0.451,0.3809,0.6357,0.1494c0.2634-0.3311,3.6663-4.3974,4.8228-8.458
			c0.327-1.1514,1.8771-7.1045,1.8771-7.1045c0.9294,1.7139,3.6422,3.2197,6.5273,3.2197c8.586,0,14.411-7.5732,14.411-17.7131
			c0-7.667-6.7121-14.8067-16.9118-14.8067C24.4,13.5007,18,22.3046,18,29.6463c0,4.4443,1.7407,8.3994,5.4676,9.876
			c0.6145,0.2403,1.1625,0.0089,1.3382-0.6474c0.1242-0.4542,0.4147-1.5968,0.548-2.0772c0.1756-0.6474,0.1089-0.873-0.3845-1.4385
			c-1.0777-1.2275-1.765-2.8183-1.765-5.0683c0-6.5332,5.0529-12.3808,13.1516-12.3808c7.1719,0,11.1138,4.2421,11.1138,9.9053
			c0,7.4532-3.4089,13.7433-8.4648,13.7433c-2.7973,0-4.8894-2.2355-4.2204-4.9776c0.8053-3.2754,2.3614-6.8087,2.3614-9.173
			c0-2.1152-1.1746-3.8789-3.6027-3.8789c-2.8579,0-5.1528,2.8593-5.1528,6.6885c0,2.4404,0.8538,4.0927,0.8538,4.0927
			s-2.9246,11.9825-3.4362,14.0831C24.7876,52.5741,25.6534,57.6981,25.7262,58.2138z"/>
	</g>
</g>
</svg>
