<?xml version="1.0" encoding="utf-8"?>
<!-- Generator: Adobe Illustrator 21.1.0, SVG Export Plug-In . SVG Version: 6.00 Build 0)  -->
<svg version="1.1" id="WeChat" xmlns="http://www.w3.org/2000/svg" xmlns:xlink="http://www.w3.org/1999/xlink" x="0px" y="0px"
	 viewBox="0 0 71.8815 71.9313" enable-background="new 0 0 71.8815 71.9313" xml:space="preserve">
<rect fill="#2DC100" width="71.8815" height="71.9313"/>
<g>
	<path fill="#FFFFFF" d="M48.2147,26.8635c-5.8138,0.3037-10.8693,2.0661-14.9737,6.0479c-4.1469,4.0228-6.04,8.9522-5.5225,15.063
		c-2.2724-0.2814-4.3421-0.5912-6.4237-0.7664c-0.7189-0.0605-1.572,0.0255-2.1809,0.369
		c-2.0212,1.1405-3.9589,2.4282-6.2556,3.8638c0.4214-1.906,0.6942-3.575,1.177-5.1804c0.3551-1.1799,0.1906-1.8366-0.8963-2.6049
		C6.16,38.7282,3.2182,31.3542,5.4198,23.7624c2.0368-7.0232,7.0388-11.2825,13.8354-13.5028
		c9.2766-3.0302,19.7019,0.0607,25.3428,7.4259C46.6353,20.3459,47.8846,23.3319,48.2147,26.8635L48.2147,26.8635z M21.4576,24.4979
		c0.0535-1.3886-1.1496-2.6395-2.5788-2.6813c-1.4632-0.043-2.6667,1.0752-2.7094,2.5171
		c-0.0432,1.4613,1.0745,2.6323,2.5483,2.6698C20.1788,27.0404,21.4036,25.9208,21.4576,24.4979L21.4576,24.4979z M35.4178,21.8156
		c-1.4344,0.0264-2.6465,1.2481-2.621,2.6422c0.0262,1.445,1.2152,2.5754,2.6902,2.5576c1.4788-0.0178,2.6004-1.1602,2.5865-2.6357
		C38.0612,22.9314,36.8775,21.789,35.4178,21.8156z"/>
	<path fill="#FFFFFF" d="M61.2762,63.108c-1.8409-0.8197-3.5296-2.0496-5.3276-2.2373c-1.791-0.187-3.6737,0.8461-5.5475,1.0378
		c-5.7076,0.584-10.821-1.0068-15.0373-4.9059c-8.0189-7.417-6.8731-18.7895,2.4045-24.8677
		c8.2456-5.402,20.3382-3.6012,26.1518,3.8943c5.0733,6.5406,4.4771,15.2229-1.7163,20.7176
		c-1.7922,1.5902-2.4371,2.8988-1.2872,4.9952C61.1288,62.1291,61.153,62.6191,61.2762,63.108L61.2762,63.108z M40.3209,42.819
		c1.172,0.0012,2.137-0.916,2.1814-2.0736c0.0468-1.2255-0.9388-2.2534-2.166-2.2585c-1.215-0.0055-2.2328,1.0368-2.1905,2.2441
		C38.1856,41.8845,39.1573,42.8175,40.3209,42.819L40.3209,42.819z M53.8297,38.4917c-1.1372-0.0079-2.1034,0.923-2.1497,2.0719
		c-0.0492,1.2286,0.9057,2.2376,2.1216,2.2407c1.1761,0.0038,2.1053-0.8855,2.148-2.0558
		C55.9952,39.517,55.0398,38.5001,53.8297,38.4917z"/>
</g>
</svg>
