<?xml version="1.0" encoding="utf-8"?>
<!-- Generator: Adobe Illustrator 21.1.0, SVG Export Plug-In . SVG Version: 6.00 Build 0)  -->
<svg version="1.1" id="Youtube" xmlns="http://www.w3.org/2000/svg" xmlns:xlink="http://www.w3.org/1999/xlink" x="0px" y="0px"
	 viewBox="0 0 72 72" enable-background="new 0 0 72 72" xml:space="preserve">
<g>
	<rect fill="#FF312E" width="72" height="72"/>
	<g>
		<g id="youtube-lozenge">
			<g>
				<path fill="#FFFFFF" d="M58.0488,26.6173c0,0-0.4395-3.2347-1.7871-4.6584c-1.7109-1.8663-3.6299-1.8784-4.5059-1.9855
					C45.4541,19.5,36.0117,19.5,36.0117,19.5h-0.0205c0,0-9.4482,0-15.7441,0.4734c-0.8789,0.1071-2.7949,0.1193-4.5088,1.9855
					c-1.3477,1.4236-1.7871,4.6584-1.7871,4.6584S13.5,30.4144,13.5,34.2114v3.5588c0,3.8001,0.4512,7.597,0.4512,7.597
					s0.4395,3.2319,1.7871,4.6554c1.7139,1.8694,3.9639,1.8084,4.9629,2.0038C24.3018,52.3869,36,52.5,36,52.5
					s9.4541-0.0183,15.7559-0.4887c0.876-0.1101,2.7949-0.1193,4.5059-1.9887c1.3477-1.4235,1.7871-4.6554,1.7871-4.6554
					S58.5,41.5703,58.5,37.7701v-3.5588C58.5,30.4144,58.0488,26.6173,58.0488,26.6173z M31.3564,42.0865l-0.0029-13.1841
					l12.1582,6.6165L31.3564,42.0865z"/>
			</g>
		</g>
	</g>
</g>
</svg>
