<?xml version="1.0" encoding="utf-8"?>
<!-- Generator: Adobe Illustrator 21.1.0, SVG Export Plug-In . SVG Version: 6.00 Build 0)  -->
<svg version="1.1" id="Zomata" xmlns="http://www.w3.org/2000/svg" xmlns:xlink="http://www.w3.org/1999/xlink" x="0px" y="0px"
	 viewBox="0 0 719 719" enable-background="new 0 0 719 719" xml:space="preserve">
<rect width="719" height="719"/>
<title>zomato_logo</title>
<desc>Created with Sketch.</desc>
<g id="zomata-page-1">
	<g id="zomata-zomato-logo">
		<g id="zomata-logo">
			<path id="zomata-shape" fill="#FF0000" d="M143.6165,407.912v-15.8252h-51.777l51.777-58.5154v-13.2701H68.7741l0.0002,15.8284
				h50.0029l-51.777,58.5154v13.2668H143.6165z M200.457,409.83c27.1069,0,47.1068-20.6211,47.1068-45.5618v-0.3196
				c0-25.1017-19.8401-45.4052-46.7765-45.4052c-27.0963,0-47.1026,20.7841-47.1026,45.7249v0.3197
				C153.6847,389.5286,173.5205,409.83,200.457,409.83L200.457,409.83z M200.7873,393.0459
				c-16.132,0-27.7463-13.1102-27.7463-28.7777v-0.3196c0-15.5087,10.8044-28.6189,27.416-28.6189
				c16.132,0,27.7463,13.2701,27.7463,28.9386v0.3197C228.2032,380.0955,217.3988,393.0459,200.7873,393.0459L200.7873,393.0459z
				 M264.7294,407.912h19.3499v-49.3998c0-13.7495,8.066-22.3824,19.6803-22.3824c11.6142,0,18.3909,7.6739,18.3909,21.5833v50.199
				h19.5098v-49.5597c0-14.3889,8.2259-22.2226,19.5204-22.2226c11.6142,0,18.5508,7.6739,18.5508,21.9029v49.8793h19.3606v-55.6353
				c0-21.4235-11.7847-33.7335-31.1346-33.7335c-13.7133,0-22.9088,6.2344-30.0052,15.5077
				c-4.6776-9.2733-13.7026-15.5077-26.6061-15.5077c-13.7133,0-21.4597,7.3542-27.2668,15.3478v-13.5897h-19.3499V407.912
				L264.7294,407.912z M451.0897,395.6042c-9.8348,0-17.741-4.9568-17.741-13.7495v-0.3196c0-9.2733,7.9062-15.0292,21.2892-15.0292
				c8.3857,0,15.4927,1.5994,20.8097,3.5184v6.3942C475.4476,387.7704,464.9628,395.6042,451.0897,395.6042L451.0897,395.6042z
				 M445.9325,409.6702c13.7133,0,23.0686-5.7538,29.0356-12.9472v11.1891h18.8704v-52.118c0-11.5109-2.9089-20.6243-9.3553-26.8587
				c-6.2973-6.2354-16.132-9.7527-29.1954-9.7527c-14.033,0-23.5481,2.878-33.2337,7.1944l5.1678,15.0282
				c8.066-3.3575,15.4821-5.4352,25.4873-5.4352c14.5125,0,22.4186,6.8748,22.4186,19.6642v2.2387
				c-6.9366-2.2387-14.1928-3.6771-24.1981-3.6771c-21.6089,0-36.6114,9.2733-36.6114,28.1384v0.3196
				C414.3184,400.2403,429.321,409.6702,445.9325,409.6702L445.9325,409.6702z M543.5878,409.3505
				c7.4161,0,12.9035-1.5983,17.9008-4.3154v-15.8262c-4.0276,1.919-8.066,3.0378-12.5838,3.0378
				c-7.0964,0-11.2839-3.3575-11.2839-11.351v-43.9668h24.1874v-16.6275h-24.1874V296h-19.3606v24.3014h-11.4544v16.6275h11.4544
				v47.0046C518.2603,402.9574,528.7451,409.3505,543.5878,409.3505L543.5878,409.3505z M663.2708,364.2682v-0.3196
				c0-25.1017-19.84-45.4052-46.7765-45.4052c-27.0963,0-47.0962,20.7841-47.0962,45.7249v0.3197
				c0,24.9407,19.84,45.2422,46.7765,45.2422C643.2709,409.83,663.2708,389.2089,663.2708,364.2682z M616.4943,393.0459
				c-16.1321,0-27.7463-13.1102-27.7463-28.7777v-0.3196c0-15.5087,10.8151-28.6189,27.4266-28.6189
				c16.1321,0,27.7357,13.2701,27.7357,28.9386v0.3197C643.9102,380.0955,633.1058,393.0459,616.4943,393.0459L616.4943,393.0459z"
				/>
		</g>
	</g>
</g>
</svg>
