<?xml version="1.0" encoding="utf-8"?>
<!-- Generator: Adobe Illustrator 21.1.0, SVG Export Plug-In . SVG Version: 6.00 Build 0)  -->
<svg version="1.1" id="Figment" xmlns="http://www.w3.org/2000/svg" xmlns:xlink="http://www.w3.org/1999/xlink" x="0px" y="0px"
	 viewBox="0 0 6.6017 17.8956" enable-background="new 0 0 6.6017 17.8956" xml:space="preserve">
<path id="antenna-left" d="M4.5688,1.4285C5.012,1.3788,5.315,0.2049,5.0959,0.0458c-0.2064-0.15-1.077,0.5982-1.0219,1.0226
	C4.0974,1.2492,4.3663,1.4512,4.5688,1.4285z"/>
<path id="antenna-right" d="M2.0909,1.4023C1.6478,1.3527,1.3448,0.1788,1.5639,0.0196c0.2064-0.15,1.077,0.5982,1.0219,1.0226
	C2.5624,1.223,2.2935,1.425,2.0909,1.4023z"/>
<path id="body" fill="#FF0000" d="M3.4563,17.1446C5.3795,8.2663,5.7224,7.0706,5.7058,4.057
	C5.682-0.2603,0.8913-0.4661,0.8857,4.1905C0.8815,7.7098,1.6015,8.6549,3.4432,17.1448"/>
<circle id="eye" cx="3.2794" cy="3.431" r="1.1456"/>
<path id="first-left" d="M1.117,2.6263c0,0-1.1678,0.2645-1.1153,0.8082S0.9251,4.117,0.9251,4.117
	s0.0102-0.3524,0.035-0.6354C1.0109,2.9008,1.117,2.6263,1.117,2.6263z"/>
<path id="first-right" d="M5.4847,2.6271c0,0,1.1678,0.2645,1.1153,0.8082C6.5475,3.979,5.6766,4.1179,5.6766,4.1179
	s-0.0102-0.3524-0.035-0.6354C5.5908,2.9016,5.4847,2.6271,5.4847,2.6271z"/>
<path id="second-left" d="M0.9284,5.1648c0,0-0.6852,0.2424-0.6561,0.7689c0.0291,0.5264,0.771,0.6625,0.771,0.6625
	S1.017,6.2443,0.9966,5.9426C0.9707,5.5592,0.9236,5.2893,0.9284,5.1648z"/>
<path id="second-right" d="M5.6776,5.1719c0,0,0.6852,0.2424,0.6561,0.7689c-0.0291,0.5264-0.771,0.6625-0.771,0.6625
	s0.0262-0.3518,0.0466-0.6536C5.6352,5.5663,5.6824,5.2964,5.6776,5.1719z"/>
<path id="third-left" d="M1.2972,7.9278c0,0-0.5795,0.2078-0.5519,0.7212s0.86,0.6671,0.86,0.6671S1.5217,8.9529,1.4552,8.622
	C1.3844,8.2699,1.3249,8.117,1.2972,7.9278z"/>
<path id="third-right" d="M5.3814,7.9256c0,0,0.5856,0.2054,0.558,0.7189c-0.0276,0.5135-0.815,0.6584-0.815,0.6584
	s0.0589-0.3507,0.1254-0.6816C5.3205,8.2691,5.3537,8.1148,5.3814,7.9256z"/>
<path id="fourth-left" d="M1.9385,10.6221c0,0-0.5507,0.1894-0.5251,0.6392c0.0256,0.4498,0.8092,0.5827,0.8092,0.5827
	s-0.0589-0.2707-0.1463-0.6182C2.0106,10.964,1.9639,10.7879,1.9385,10.6221z"/>
<path id="fourth-right" d="M4.8526,10.6231c0,0,0.5507,0.1894,0.5251,0.6392c-0.0256,0.4498-0.7799,0.579-0.7799,0.579
	s0.0536-0.2738,0.1255-0.6248C4.786,10.9107,4.8088,10.8044,4.8526,10.6231z"/>
<path id="fifth-left" d="M2.5716,13.2851c0,0-0.4157,0.128-0.3951,0.4902c0.0206,0.3623,0.6198,0.4709,0.6198,0.4709
	s-0.0555-0.2049-0.1185-0.4989C2.6347,13.5463,2.6134,13.4322,2.5716,13.2851z"/>
<path id="fifth-right" d="M4.289,13.2851c0,0,0.4157,0.128,0.3951,0.4902S4.073,14.2461,4.073,14.2461
	s0.0467-0.2047,0.1098-0.4987C4.2258,13.5463,4.2472,13.4322,4.289,13.2851z"/>
<path id="sixth-left" d="M3.0704,15.4179c0,0-0.2742,0.1185-0.2612,0.4496c0.013,0.3311,0.4472,0.4271,0.4472,0.4271
	s-0.0322-0.1845-0.0933-0.4473C3.1233,15.676,3.0999,15.5521,3.0704,15.4179z"/>
<path id="sixth-right" d="M3.8244,15.4189c0,0,0.2742,0.1185,0.2612,0.4496c-0.013,0.3311-0.4436,0.4259-0.4436,0.4259
	s0.0285-0.1833,0.0896-0.4461C3.7715,15.677,3.7948,15.5531,3.8244,15.4189z"/>
<circle id="tail" cx="3.4553" cy="17.1115" r="0.3777"/>
</svg>
