<?xml version="1.0" encoding="utf-8"?>
<!-- Generator: Adobe Illustrator 21.1.0, SVG Export Plug-In . SVG Version: 6.00 Build 0)  -->
<svg version="1.1" id="_x31_2" xmlns="http://www.w3.org/2000/svg" xmlns:xlink="http://www.w3.org/1999/xlink" x="0px" y="0px"
	 viewBox="0 0 72 72" enable-background="new 0 0 72 72" xml:space="preserve">
<g>
	<rect fill="#007338" width="72" height="72"/>
	<g>
		<path fill="#FFFFFF" d="M17.3287,58.5h16.5908v-9.1202l-4.4444-3.0819l0.7339-1.0577l3.7104,2.5722V40.503h4.2246v4.8017
			l3.8671-1.9482l0.5816,1.1514l-4.4487,2.2411v3.5406l7.1001-3.5787l0.5787,1.1499l-7.6788,3.8716V58.5H54.672
			c0.3486,0,0.6708-0.1728,0.8641-0.4658c0.189-0.2886,0.2212-0.6592,0.0821-0.9786L36.9795,14.1212
			c-0.1639-0.378-0.5361-0.6212-0.9477-0.6212c-0.4116,0-0.7837,0.2431-0.9464,0.6196l-18.703,42.9346
			c-0.1392,0.3207-0.1084,0.6898,0.0821,0.9799C16.6578,58.3242,16.98,58.5,17.3287,58.5z"/>
	</g>
</g>
</svg>
