<?xml version="1.0" encoding="utf-8"?>
<!-- Generator: Adobe Illustrator 21.1.0, SVG Export Plug-In . SVG Version: 6.00 Build 0)  -->
<svg version="1.1" id="_x31_6" xmlns="http://www.w3.org/2000/svg" xmlns:xlink="http://www.w3.org/1999/xlink" x="0px" y="0px"
	 viewBox="0 0 72 72" enable-background="new 0 0 72 72" xml:space="preserve">
<g>
	<rect fill="#00A2F4" width="72" height="72"/>
	<g id="_x31_6-g18086" transform="matrix(4.6798804,0,0,4.6798804,-14628.123,-100339.87)">
		<g id="_x31_6-bag" transform="translate(2886.7719,21269.267)">
			<g id="_x31_6-handles">
				<path id="_x31_6-path205" fill="#FFFFFF" d="M246.5131,175.1909c-0.4214,0.1458-0.7293,0.2703-0.7293,1.0626v0.3814
					l0.2523-0.0501v-0.3293c-0.0063-0.5374,0.1356-0.6498,0.504-0.8063C246.5384,175.3476,246.5292,175.2618,246.5131,175.1909
					L246.5131,175.1909z"/>
				<path id="_x31_6-path207" fill="#FFFFFF" d="M247.2469,175.0214c0.0167,0.0767,0.0301,0.1602,0.0391,0.2498
					c0.6596-0.0934,0.647,0.1745,0.647,0.7337v0.2066l0.2497-0.0504v-0.1562C248.1826,175.1365,248.0447,174.9038,247.2469,175.0214
					z"/>
				<path id="_x31_6-path209" fill="#FFFFFF" d="M244.6471,176.8585v-1.1423c-0.008-0.7075,0.3633-0.9242,1.0486-1.0824
					c1.0324-0.2384,1.0981,0.4168,1.0981,0.8336v0.9683l0.2528-0.0503v-0.8966c-0.0025-0.789-0.2524-1.3797-1.4012-1.1233
					c-0.6188,0.1383-1.2505,0.2935-1.2505,1.3271v1.2153L244.6471,176.8585L244.6471,176.8585z"/>
			</g>
			<path id="_x31_6-path211" fill="#FFFFFF" d="M249.4459,176.2136l-6.9453,1.3671v4.9727l6.9453,1.3671l1.3882-0.497v-6.7129
				L249.4459,176.2136L249.4459,176.2136z M245.535,181.5249l-1.5411-0.2139v-1.2593h1.5411V181.5249z M245.535,179.8606h-1.5411
				v-1.1584l1.5411-0.2142V179.8606z M247.6713,181.8164l-1.9428-0.2796v-1.4851h1.9428V181.8164z M247.6713,179.8606h-1.9428
				v-1.3839l1.9428-0.28V179.8606z"/>
		</g>
	</g>
</g>
</svg>
