<?xml version="1.0" encoding="utf-8"?>
<!-- Generator: Adobe Illustrator 21.1.0, SVG Export Plug-In . SVG Version: 6.00 Build 0)  -->
<svg version="1.1" id="_x32_3" xmlns="http://www.w3.org/2000/svg" xmlns:xlink="http://www.w3.org/1999/xlink" x="0px" y="0px"
	 viewBox="0 0 72 72" enable-background="new 0 0 72 72" xml:space="preserve">
<g>
	<rect fill="#F40404" width="72" height="72"/>
	<g>
		<path fill="#FFFFFF" d="M39.0043,34.8787c0.8364,0,1.254,0.054,1.5688,0.1602l0.4702,0.1062l0.3661-0.3742l1.1499-1.2275
			l0.9405-1.015l-1.3593-0.3741c-0.6798-0.2142-1.3067-0.4283-2.9781-0.3204c-2.9282,0.1062-5.5928,1.9221-6.063,4.0597
			c-0.3661,1.7095,0.104,2.8833,1.9337,4.9686c1.9335,2.0808,2.4038,2.991,2.143,4.2186c-0.1567,0.8008-1.4634,1.8158-2.9795,2.03
			c-0.7852,0.1062-1.3081,0.1062-1.7784,0l-0.5215-0.1617l-0.3133,0.4281l-1.254,1.5495l-0.889,1.0674l1.3593,0.3218
			c0.8364,0.2127,2.0889,0.2127,3.4497-0.0537c3.0292-0.4806,6.6372-2.7248,7.2642-5.5017
			c0.5757-2.5644-0.4703-4.1661-2.6661-6.4087c-1.7241-1.7634-1.62-2.1917-1.516-2.5117
			C37.3843,35.4655,38.064,34.9328,39.0043,34.8787z"/>
		<polygon fill="#FFFFFF" points="56.0419,30.8188 53.5884,31.2471 53.3262,31.2471 53.1153,31.4595 50.0859,34.8247 
			53.5356,18.2124 49.1455,18 42.9243,47.3772 42.6636,48.6063 43.8661,48.4461 46.5307,48.018 47.1064,47.964 47.2647,47.3772 
			48.205,43.1048 49.248,46.8966 49.4575,47.6437 50.1885,47.5374 52.9599,47.1108 53.9532,47.0031 51.3399,38.298 58.5,30.3921 		
			"/>
		<path fill="#FFFFFF" d="M28.081,24.2484l-2.874,0.4806L13.5,54l1.516-0.3203l2.4552-0.4268l0.4716-0.1077l0.1567-0.4268
			l1.8808-4.9131l3.6577-0.5345v3.8459l-0.0513,1.0134l0.9916-0.1602l2.8755-0.4806l0.7325-0.1062l-0.0527-0.7485L28.081,24.2484z
			 M23.5342,43.3712l-2.4054,0.3204l2.9796-8.9745L23.5342,43.3712z"/>
	</g>
</g>
</svg>
