<?xml version="1.0" encoding="utf-8"?>
<!-- Generator: Adobe Illustrator 21.1.0, SVG Export Plug-In . SVG Version: 6.00 Build 0)  -->
<svg version="1.1" id="_x33_1" xmlns="http://www.w3.org/2000/svg" xmlns:xlink="http://www.w3.org/1999/xlink" x="0px" y="0px"
	 viewBox="0 0 72 72" enable-background="new 0 0 72 72" xml:space="preserve">
<g>
	<rect fill="#85BF00" width="72" height="72"/>
	<g>
		<path fill="#FFFFFF" d="M42.1035,17.2701l0.4978-0.7383l0.492-0.7237l1.1063-1.6288c0.1341-0.2022,0.0804-0.4716-0.1222-0.6065
			c-0.2057-0.1319-0.48-0.0791-0.6143,0.123l-1.1868,1.7462l-0.4978,0.7353l-0.5069,0.7442
			C39.6735,16.309,37.8844,15.9693,36,15.9693s-3.6705,0.3397-5.2716,0.9521l-0.5067-0.7442l-0.4952-0.7353l-1.1866-1.7462
			c-0.1372-0.1992-0.4114-0.2549-0.6173-0.123c-0.1998,0.1348-0.2563,0.4043-0.1191,0.6065l1.1031,1.6288l0.492,0.7237
			l0.5009,0.7383c-3.7628,1.7196-6.3092,4.9804-6.3092,8.7157h24.8193C48.4096,22.2505,45.8633,18.9897,42.1035,17.2701z
			 M30.6837,22.5024c-0.7364,0-1.3298-0.5859-1.3298-1.3067c0-0.7236,0.5934-1.3067,1.3298-1.3067
			c0.7335,0,1.3267,0.5831,1.3267,1.3067C32.0104,21.9165,31.4172,22.5024,30.6837,22.5024z M41.3193,22.5024
			c-0.7364,0-1.3298-0.5859-1.3298-1.3067c0-0.7236,0.5934-1.3067,1.3298-1.3067c0.7335,0,1.3299,0.5831,1.3299,1.3067
			C42.6492,21.9165,42.0528,22.5024,41.3193,22.5024z"/>
		<path fill="#FFFFFF" d="M48.4096,46.8893V31.6723V29.9v-2.1738h-0.1908H23.7841h-0.1938V29.9v1.7724v15.2169
			c0,1.5204,1.2582,2.7597,2.8086,2.7597h2.0247c-0.0655,0.2286-0.1074,0.4718-0.1074,0.7236v0.1436v0.8731v4.5
			c0,1.4413,1.1928,2.6103,2.6627,2.6103c1.467,0,2.6596-1.1689,2.6596-2.6103v-4.5v-0.8731v-0.1436
			c0-0.2519-0.0388-0.495-0.1074-0.7236h4.9377c-0.0657,0.2286-0.1044,0.4718-0.1044,0.7236v0.1436v0.8731v4.5
			c0,1.4413,1.1926,2.6103,2.6597,2.6103c1.467,0,2.6596-1.1689,2.6596-2.6103v-4.5v-0.8731v-0.1436
			c0-0.2519-0.0388-0.495-0.1074-0.7236h2.0275C47.1515,49.6489,48.4096,48.4096,48.4096,46.8893z"/>
		<path fill="#FFFFFF" d="M16.5,30.3393v11.1798c0,1.4413,1.1896,2.6103,2.6597,2.6103c1.467,0,2.6595-1.1689,2.6595-2.6103V30.3393
			c0-1.4442-1.1925-2.6131-2.6595-2.6131C17.6896,27.7262,16.5,28.8951,16.5,30.3393z"/>
		<path fill="#FFFFFF" d="M50.1837,30.3393v11.1798c0,1.4413,1.1896,2.6103,2.6568,2.6103c1.47,0,2.6595-1.1689,2.6595-2.6103
			V30.3393c0-1.4442-1.1895-2.6131-2.6595-2.6131C51.3733,27.7262,50.1837,28.8951,50.1837,30.3393z"/>
	</g>
</g>
</svg>
