<?xml version="1.0" encoding="utf-8"?>
<!-- Generator: Adobe Illustrator 21.1.0, SVG Export Plug-In . SVG Version: 6.00 Build 0)  -->
<svg version="1.1" id="_x33_2" xmlns="http://www.w3.org/2000/svg" xmlns:xlink="http://www.w3.org/1999/xlink" x="0px" y="0px"
	 viewBox="0 0 72 72" enable-background="new 0 0 72 72" xml:space="preserve">
<g>
	<rect fill="#A7AAAD" width="72" height="72"/>
	<g>
		<path fill="#FFFFFF" d="M29.6298,58.4972c2.8034-0.1143,3.8598-1.8442,7.2446-1.8442c3.3877,0,4.3377,1.8442,7.2993,1.7871
			c3.0107-0.0571,4.9218-2.7847,6.764-5.5269c2.1329-3.1728,3.0107-6.2447,3.0624-6.3999c-0.0662-0.0322-5.8716-2.2954-5.932-9.1026
			c-0.0548-5.6997,4.5678-8.433,4.7751-8.5707c-2.5992-3.8658-6.6459-4.3975-8.088-4.4575c-3.4424-0.356-6.715,2.064-8.462,2.064
			c-1.7443,0-4.4412-2.0127-7.2964-1.9601c-3.7533,0.0571-7.2129,2.2222-9.147,5.6427c-3.8971,6.8847-0.996,17.0874,2.8034,22.6756
			C24.5094,55.5366,26.7228,58.6085,29.6298,58.4972z"/>
		<path fill="#FFFFFF" d="M38.2877,16.9058c-1.4276,1.689-2.6798,4.377-2.3459,6.9639c2.484,0.1977,5.014-1.2846,6.5597-3.1845
			c1.5397-1.9044,2.5847-4.5513,2.2997-7.1852C42.5792,13.5909,39.8852,15.0043,38.2877,16.9058z"/>
	</g>
</g>
</svg>
