<?xml version="1.0" encoding="utf-8"?>
<!-- Generator: Adobe Illustrator 21.1.0, SVG Export Plug-In . SVG Version: 6.00 Build 0)  -->
<svg version="1.1" id="_x33_4" xmlns="http://www.w3.org/2000/svg" xmlns:xlink="http://www.w3.org/1999/xlink" x="0px" y="0px"
	 viewBox="0 0 72 72" enable-background="new 0 0 72 72" xml:space="preserve">
<g>
	<rect fill="#00BC00" width="72" height="72"/>
	<g>
		<path fill="#FFFFFF" d="M20.4397,44.9804L19.1272,58.5l12.1611-7.5176c2.4433,0.6762,5.045,1.0536,7.749,1.0536
			c7.8164,0,14.7803-3.0916,19.4649-7.9221V23.0163c0-5.2473-4.1427-9.5163-9.2314-9.5163H21.591
			c-4.9584,4.0698-8.0933,9.8151-8.0933,16.2248C13.4977,35.6361,16.1463,40.9892,20.4397,44.9804z M39.0373,16.7667
			c8.9238,0,16.4649,5.9355,16.4649,12.958c0,7.0285-7.5411,12.958-16.4649,12.958s-16.4649-5.9295-16.4649-12.958
			C22.5724,22.7022,30.1135,16.7667,39.0373,16.7667z"/>
	</g>
</g>
</svg>
