<?xml version="1.0" encoding="utf-8"?>
<!-- Generator: Adobe Illustrator 21.1.0, SVG Export Plug-In . SVG Version: 6.00 Build 0)  -->
<svg version="1.1" id="_x34_0" xmlns="http://www.w3.org/2000/svg" xmlns:xlink="http://www.w3.org/1999/xlink" x="0px" y="0px"
	 viewBox="0 0 72 72" enable-background="new 0 0 72 72" xml:space="preserve">
<g>
	<rect fill="#454240" width="72" height="72"/>
	<g>
		<path fill="#FFFFFF" d="M45.9448,15.8584c-2.6045-1.3536-5.4053-2.0772-8.3379-2.2705c-0.1464-0.0102-0.2929-0.0556-0.4365-0.0879
			c-0.7793,0-1.5587,0-2.3379,0c-0.709,0.0907-1.4268,0.1596-2.1329,0.2754c-7.5732,1.2627-13.1484,5.3174-16.7431,12.0791
			c-1.4121,2.6616-2.1679,5.5299-2.3672,8.5401c-0.0117,0.1479-0.0587,0.2929-0.0879,0.435c0,0.7794,0,1.5586,0,2.3409
			c0.0879,0.6944,0.1552,1.3931,0.2695,2.0816c1.2655,7.667,5.376,13.2846,12.2431,16.8735
			c2.6162,1.3638,5.4317,2.0933,8.3818,2.2881c0.1464,0.0087,0.29,0.0585,0.4365,0.0864c0.7793,0,1.5587,0,2.3379,0
			c0.6943-0.0879,1.3946-0.1538,2.0831-0.271c7.6288-1.2554,13.2333-5.3379,16.831-12.1626
			c1.3885-2.6382,2.1299-5.4814,2.326-8.4624c0.0119-0.1449,0.0617-0.29,0.0879-0.4335c0-0.7822,0-1.5615,0-2.3409
			c-0.0879-0.6929-0.1523-1.3931-0.2666-2.0829C56.9605,25.062,52.8384,19.4385,45.9448,15.8584z M27.0513,54.1699
			c-4.4327-2.253-7.7168-5.6293-9.6651-10.2261c-2.2704-5.3613-2.1708-10.7447,0.0645-16.0899c0.0411,0,0.0821,0.003,0.126,0.003
			c3.1933,8.748,6.3867,17.4975,9.5772,26.2442C27.1216,54.123,27.0864,54.1479,27.0513,54.1699z M30.2622,55.4179
			c2.0216-5.8712,4.0284-11.6982,6.0323-17.5269c0.0411-0.0043,0.0821-0.0043,0.123-0.0043
			c2.0861,5.7144,4.172,11.4243,6.2871,17.2192C38.5914,56.5181,34.4839,56.622,30.2622,55.4179z M46.0825,48.2724
			c-2.455-7.308-4.878-14.5019-7.3155-21.7602c0.6123-0.0528,1.172-0.1011,1.7315-0.1537c0.208-0.0162,0.4189-0.0338,0.6241-0.0733
			c0.4863-0.0879,0.75-0.4233,0.7119-0.873c-0.0439-0.4688-0.378-0.7589-0.9024-0.7325c-1.1689,0.0602-2.3379,0.1933-3.5039,0.1875
			c-2.2002-0.0087-4.4034-0.0938-6.6036-0.1509c-0.2079-0.0058-0.419-0.0424-0.6269-0.0366
			c-0.4601,0.0117-0.753,0.3003-0.794,0.7545c-0.0411,0.4569,0.1934,0.7807,0.668,0.8451c0.5625,0.0777,1.1308,0.1422,1.6962,0.1656
			c0.3428,0.016,0.5303,0.1128,0.6534,0.4629c0.9403,2.6192,1.9072,5.2309,2.8506,7.8471c0.0732,0.1964,0.1171,0.4542,0.0526,0.6402
			c-1.4032,4.2495-2.8212,8.4916-4.2391,12.7368c-0.0177,0.0571-0.0411,0.1069-0.1671,0.189
			c-2.4375-7.2423-4.872-14.4888-7.3329-21.813c0.6327-0.0528,1.1777-0.1011,1.7285-0.1494
			c0.1786-0.0132,0.3574-0.0249,0.5361-0.0557c0.5917-0.0997,0.8409-0.397,0.7852-0.9375
			c-0.0528-0.4732-0.3868-0.7164-0.9786-0.6826c-1.1954,0.0644-2.3936,0.1611-3.5917,0.2066
			c-0.9522,0.0336-1.9073,0.0058-2.9972,0.0058c2.9443-4.3097,6.8115-7.2042,11.7832-8.4609
			c7.0048-1.7711,13.2334-0.1217,18.8349,4.5938c-0.3252,0.0394-0.5186,0.057-0.7148,0.0877
			c-1.8926,0.315-3.1817,2.0919-2.9268,3.9918c0.126,0.9258,0.4688,1.7622,0.9258,2.5605c0.4835,0.8453,0.999,1.67,1.4678,2.5254
			c1.3359,2.4536,1.579,5.0274,0.7881,7.6977c-1.002,3.3707-2.0215,6.7355-3.0351,10.1046
			C46.1793,48.0454,46.1529,48.0938,46.0825,48.2724z M56.0376,38.8491c-0.958,6.3735-4.3036,11.19-9.7148,14.5928
			c-0.0439-0.0219-0.085-0.0409-0.126-0.063c0.1025-0.3075,0.2051-0.6181,0.3105-0.9228c1.922-5.5577,3.829-11.1182,5.7744-16.6684
			c0.5567-1.5968,1.1222-3.189,1.3829-4.8692c0.2285-1.4751,0.2548-2.9502,0.1494-4.44
			C55.9146,30.3559,56.6938,34.4941,56.0376,38.8491z"/>
	</g>
</g>
</svg>
