<?xml version="1.0" encoding="utf-8"?>
<!-- Generator: Adobe Illustrator 21.1.0, SVG Export Plug-In . SVG Version: 6.00 Build 0)  -->
<svg version="1.1" id="_x34_2" xmlns="http://www.w3.org/2000/svg" xmlns:xlink="http://www.w3.org/1999/xlink" x="0px" y="0px"
	 viewBox="0 0 72 72" enable-background="new 0 0 72 72" xml:space="preserve">
<g>
	<rect fill="#86C243" width="72" height="72"/>
	<g>
		<path fill="#FFFFFF" d="M40.3962,49.6085c0.8993,0,1.6353,0.1054,1.6353,0.1054v-3.5244c0,0-7.2417-0.0485-7.2417,5.4272
			c0,5.4771,3.787,6.8834,6.8262,6.8834c3.0361,0,4.9506,0,4.9506,0S55.5,57.3648,55.5,39.9375
			c0-17.4286-2.7929-19.0503-3.5793-20.392c-0.7864-1.3404-4.9089-2.8829-7.0488-2.8829c-2.1311,0-5.5056,0-5.5056,0
			S37.5945,13.5,33.4365,13.5c-4.1642,0-3.8822,1.8341-3.8822,3.3955v6.3222l-1.8876,1.9672h-8.7108
			c0,0-2.4559,1.6026-2.4559,5.0655c0,3.4644,1.0906,15.5346,8.4036,16.6509c8.6485,1.3227,10.1266-2.6455,10.1266-3.1245
			c0-2.0084,0.0534-5.0552,0.0534-5.0552s2.5317,4.7798,6.3571,4.7798c3.8258,0,6.0518,2.1695,6.0518,4.4033
			c0,2.2355,0,4.1339,0,4.1339S47.35,54.624,45.1003,54.624c-2.2497,0-4.7992,0-4.7992,0s-1.5759-1.2099-1.5759-2.8842
			C38.7252,50.0625,39.4939,49.6085,40.3962,49.6085z M43.0377,35.1665c0,0,0.4333-2.8725,2.1192-2.8725
			c1.6887,0,4.0066,3.8379,4.0066,3.8379S43.8745,35.1665,43.0377,35.1665z"/>
		<polygon fill="#FFFFFF" points="25.7464,23.1987 27.6192,21.4101 27.6163,13.9951 18.3594,23.19 		"/>
	</g>
</g>
</svg>
