<?xml version="1.0" encoding="utf-8"?>
<!-- Generator: Adobe Illustrator 21.1.0, SVG Export Plug-In . SVG Version: 6.00 Build 0)  -->
<svg version="1.1" id="_x34_3" xmlns="http://www.w3.org/2000/svg" xmlns:xlink="http://www.w3.org/1999/xlink" x="0px" y="0px"
	 viewBox="0 0 72 72" enable-background="new 0 0 72 72" xml:space="preserve">
<g>
	<rect fill="#FF6600" width="72" height="72"/>
	<g>
		<path fill="#FFFFFF" d="M27.7599,58.5h16.389c7.8459,0,14.2216-6.3926,14.2658-14.1944L58.5,32.8185l-0.1295-0.627l-0.3824-0.7823
			l-0.6322-0.4951c-0.8293-0.6474-5.0258,0.0411-6.1551-0.9815c-0.8028-0.7353-0.9263-2.0595-1.1674-3.8466
			c-0.4498-3.4776-0.738-3.6562-1.2792-4.8282c-1.9762-4.1807-7.3374-7.3212-11.0191-7.7579h-9.9752
			C19.9138,13.5,13.5,19.9044,13.5,27.7208v16.5849C13.5,52.1074,19.9138,58.5,27.7599,58.5z M27.9421,25.1192H35.85
			c1.5085,0,2.7319,1.2218,2.7319,2.7129c0,1.4854-1.2234,2.7188-2.7319,2.7188h-7.9079c-1.5085,0-2.7318-1.2333-2.7318-2.7188
			C25.2103,26.3409,26.4336,25.1192,27.9421,25.1192z M27.9421,41.3907h16.0686c1.5027,0,2.7173,1.2157,2.7173,2.7071
			c0,1.4706-1.2146,2.7069-2.7173,2.7069H27.9421c-1.5085,0-2.7318-1.2363-2.7318-2.7069
			C25.2103,42.6064,26.4336,41.3907,27.9421,41.3907z"/>
	</g>
</g>
</svg>
