<?xml version="1.0" encoding="utf-8"?>
<!-- Generator: Adobe Illustrator 21.1.0, SVG Export Plug-In . SVG Version: 6.00 Build 0)  -->
<svg version="1.1" id="_x35_" xmlns="http://www.w3.org/2000/svg" xmlns:xlink="http://www.w3.org/1999/xlink" x="0px" y="0px"
	 viewBox="0 0 72 72" enable-background="new 0 0 72 72" xml:space="preserve">
<g>
	<rect fill="#5CBF00" width="72" height="72"/>
	<path id="_x35_-path3797" fill="#FFFFFF" d="M36.4556,13.5028c-2.499-0.0388-5.0304,0.3234-7.3709,1.0914
		c-2.0439,0.6707-3.8187,1.3971-3.9487,1.6117c-0.1299,0.2147,1.2369,0.7938,3.0438,1.2929c1.807,0.4992,4.2271,1.4862,5.38,2.1828
		c2.6289,1.5884,2.5265,1.5828,4.5903,0.2854c2.3517-1.4781,8.211-3.3062,9.559-2.972c0.6054,0.1502-0.4016-0.471-2.2375-1.3935
		C42.8181,14.2683,39.6684,13.5527,36.4556,13.5028z M50.6377,18.6574l-1.9249,1.0578c-1.0644,0.5817-3.1292,2.1729-4.5739,3.5259
		l-2.6159,2.4515l2.9286,3.7275c6.0607,7.6926,9.4013,14.2883,9.4602,18.654l0.033,2.082l1.53-2.3339
		c2.3604-3.5989,3.2037-7.2843,2.9944-12.9957c-0.156-4.2584-0.4101-5.4315-1.8591-8.4288c-0.925-1.913-2.6381-4.4352-3.8171-5.6079
		L50.6377,18.6574z M21.8784,18.9933c-0.4115-0.0152-0.7691,0.1719-1.3656,0.5708c-1.6518,1.1046-4.686,5.812-5.9724,9.2683
		c-2.0769,5.5805-0.949,14.1726,2.5338,19.3928c1.3729,2.0578,1.6791,2.2708,1.2339,0.8396
		c-0.8822-2.8368,3.6711-12.1784,9.5921-19.6614l2.9615-3.7107l-2.7641-2.5185c-1.5133-1.3833-3.549-2.9564-4.5246-3.4925
		C22.7523,19.2306,22.2899,19.0083,21.8784,18.9933z M35.9948,30.6961l-3.7182,3.2908
		C25.65,39.8217,19.5915,47.7209,19.5915,50.5422c0,2.1075,5.9616,6.0113,11.3029,7.4046
		c5.6907,1.4844,13.6784-0.1091,18.5588-3.6939c4.0464-2.9722,4.1691-4.0145,1.1187-8.7142
		C48.692,42.6422,40.2993,33.755,37.673,31.8882L35.9948,30.6961z"/>
</g>
</svg>
