<?xml version="1.0" encoding="utf-8"?>
<!-- Generator: Adobe Illustrator 21.1.0, SVG Export Plug-In . SVG Version: 6.00 Build 0)  -->
<svg version="1.1" id="_x35_5" xmlns="http://www.w3.org/2000/svg" xmlns:xlink="http://www.w3.org/1999/xlink" x="0px" y="0px"
	 viewBox="0 0 72 72" enable-background="new 0 0 72 72" xml:space="preserve">
<g>
	<rect fill="#009AD4" width="72" height="72"/>
	<g>
		<path fill="#FFFFFF" d="M19.723,51h8.124c0,0,8.8653-0.3289,8.8653-9.2933c0,0,0.3867-7.296-5.2266-7.296
			c0,0,4.2568-0.333,4.2568-5.5875c0-5.2577-3.4834-7.8232-7.8955-7.8232h-8.124h-0.2402h-5.8071v30h5.8071H19.723z M19.723,26.2237
			h7.0782h1.0458c0,0,1.9718,0,1.9718,3.0528c0,3.0558-1.1601,3.5-2.4756,3.5H19.723V26.2237z M19.723,37.3064h8.124
			c0,0,2.9385-0.043,2.9385,4.0335c0,3.4352-2.1943,3.7897-3.3486,3.8175c-0.2167,0.0032-0.3984,0-0.5215,0H19.723V37.3064z"/>
		<path fill="#FFFFFF" d="M48.5365,28.4748c-10.7315,0-10.7226,11.2861-10.7226,11.2861s-0.7383,11.2308,10.7226,11.2308
			c0,0,9.5508,0.5735,9.5508-7.8141h-4.9131c0,0,0.1641,3.1608-4.4736,3.1608c0,0-4.9131,0.3453-4.9131-5.1128h14.4609
			C58.2484,41.2257,59.8305,28.4748,48.5365,28.4748z M43.7319,37.3064c0,0,0.6006-4.5299,4.9131-4.5299
			s4.2538,4.5299,4.2538,4.5299H43.7319z"/>
		<rect x="42.5307" y="22.7299" fill="#FFFFFF" width="11.5137" height="2.7701"/>
	</g>
</g>
</svg>
