<?xml version="1.0" encoding="utf-8"?>
<!-- Generator: Adobe Illustrator 21.1.0, SVG Export Plug-In . SVG Version: 6.00 Build 0)  -->
<svg version="1.1" id="_x35_7" xmlns="http://www.w3.org/2000/svg" xmlns:xlink="http://www.w3.org/1999/xlink" x="0px" y="0px"
	 viewBox="0 0 72 72" enable-background="new 0 0 72 72" xml:space="preserve">
<g>
	<rect fill="#59991F" width="72" height="72"/>
	<g>
		<path fill="#FFFFFF" d="M19.8925,42.9816c-0.3302,0.3867-0.3835,1.0165-0.3835,1.0165c0,1.2276,0,2.458,0,3.6796
			c0,0.047-0.003,0.3165-0.009,0.6095c0.1189,0.6152,0.3985,0.7411,0.5592,0.7617c0.4669,0,0.9339,0,1.404,0
			c3.4857,0,6.4572,0.0938,9.6814,1.7285c2.4717,1.251,4.518,3.2579,6.9272,4.6554c2.2873,1.327,4.8958,2.7127,7.5728,3.0234
			c5.3896,0.6298,7.5549-5.7861,6.6595-9.9522c-2.4033,1.9072-5.7495,1.8574-8.819,1.0312
			c-2.8881-0.9492-7.4833-3.8964-7.4833-3.8964c-2.0613-1.2657-4.4825-2.3175-6.9125-2.2091c0-1.081,0.0297-1.122,0.699-1.8867
			c0.9191-1.0459,1.8381-2.0947,2.7543-3.1435c2.8881-3.2988,5.7761-6.5948,8.6672-9.8936c2.4568-2.8067,4.9135-5.6105,7.3704-8.417
			c0.238-0.2726,1.1065-0.958,1.1481-1.3302c0.1458-1.2744,0.2975-2.5517,0.4492-3.8232c0.1011-0.8847-0.827-0.6738-0.827-0.6738
			l-0.003-0.003c-3.9885,0.7998-8.0843,1.2159-12.1443,1.0312c-2.2634-0.1025-4.6399-0.3133-6.7637-1.1484
			c-0.0742-0.0264-0.5233-0.252-0.9459-0.4774c-0.6126-0.3135-1.0231-0.1115-1.2402,0.0673
			c-0.1697,0.2079-0.351,0.4101-0.5117,0.6299c-1.0707,1.4355-2.0641,3.123-2.2456,4.9248
			c-0.0387,0.4043-0.0892,1.251,0.1339,1.7607c0,0,0.0237,0.0645,0.0923,0.1641c0.0118,0.0147,0.0207,0.0292,0.0326,0.0439
			c0.5086,0.6944,2.8494,2.7744,11.9956,0.9698c-5.9547,6.9199-11.9064,13.8369-17.8521,20.7569
			C19.8925,42.9816,19.8925,42.9816,19.8925,42.9816z"/>
	</g>
</g>
</svg>
