<?xml version="1.0" encoding="utf-8"?>
<!-- Generator: Adobe Illustrator 21.1.0, SVG Export Plug-In . SVG Version: 6.00 Build 0)  -->
<svg version="1.1" id="_x35_8" xmlns="http://www.w3.org/2000/svg" xmlns:xlink="http://www.w3.org/1999/xlink" x="0px" y="0px"
	 viewBox="0 0 72 72" enable-background="new 0 0 72 72" xml:space="preserve">
<g>
	<rect fill="#005D83" width="72" height="72"/>
	<g>
		<path fill="#FFFFFF" d="M25.2591,13.5c-1.1031,0-2.0431,0.8058-2.2124,1.8986l-6.5295,41.543
			C16.386,57.7589,17.0194,58.5,17.8454,58.5h7.7087c1.1034,0,2.0401-0.8056,2.2153-1.9014l1.763-11.206
			c0.1663-1.0956,1.1092-1.9013,2.2096-1.9013h5.1108c10.6334,0,16.7688-5.1621,18.3711-15.3984
			c0.7209-4.4766,0.0291-7.9923-2.0607-10.456c-2.2913-2.7071-6.36-4.1369-11.7629-4.1369H25.2591z M43.2626,28.673
			c-0.8814,5.8125-5.3065,5.8125-9.5883,5.8125h-2.4344l1.7105-10.8575c0.0991-0.6562,0.6654-1.1397,1.3281-1.1397h1.1149
			c2.913,0,5.6654,0,7.0839,1.67C43.3268,25.1514,43.5866,26.631,43.2626,28.673z"/>
	</g>
</g>
</svg>
