<?xml version="1.0" encoding="utf-8"?>
<!-- Generator: Adobe Illustrator 21.1.0, SVG Export Plug-In . SVG Version: 6.00 Build 0)  -->
<svg version="1.1" id="_x36_0" xmlns="http://www.w3.org/2000/svg" xmlns:xlink="http://www.w3.org/1999/xlink" x="0px" y="0px"
	 viewBox="0 0 72 72" enable-background="new 0 0 72 72" xml:space="preserve">
<g>
	<rect fill="#FF4518" width="72" height="72"/>
	<g>
		<path fill="#FFFFFF" d="M33.2373,42.807V29.1959c0-1.2576,0.4365-2.7498,2.7627-2.7498c2.3232,0,2.8945,1.4922,2.8945,2.7498
			v2.595l2.7099,1.4666l4.2686-1.4666v-2.595c0-5.3449-4.3184-9.6959-9.873-9.6959c-5.5518,0-9.8438,4.3509-9.8438,9.6959V42.807
			c0,1.2547-0.8145,2.827-2.8272,2.827s-2.8389-1.5723-2.8389-2.827v-5.3476H13.5v5.3476c0,5.3421,4.5145,9.693,10.0663,9.693
			C29.121,52.5,33.2373,48.1518,33.2373,42.807z"/>
		<path fill="#FFFFFF" d="M51.5712,42.807c0,1.2547-0.7763,2.7985-2.8682,2.7985c-2.0976,0-2.871-1.5438-2.871-2.7985v-5.4165
			l-4.1808,1.4608l-2.748-1.4608v5.6028c0,5.3448,3.9756,9.5067,9.5274,9.5067c5.5546,0,10.0694-4.3482,10.0694-9.693v-5.4165
			h-6.9288V42.807z"/>
	</g>
</g>
</svg>
