<?xml version="1.0" encoding="utf-8"?>
<!-- Generator: Adobe Illustrator 21.1.0, SVG Export Plug-In . SVG Version: 6.00 Build 0)  -->
<svg version="1.1" id="_x36_1" xmlns="http://www.w3.org/2000/svg" xmlns:xlink="http://www.w3.org/1999/xlink" x="0px" y="0px"
	 viewBox="0 0 72 72" enable-background="new 0 0 72 72" xml:space="preserve">
<g>
	<rect fill="#2C2C2C" width="72" height="72"/>
	<path id="_x36_1-steam" fill="#FFFFFF" d="M55.1325,30.1625c0,2.3342-1.8641,4.2273-4.1636,4.2273
		c-2.3019,0-4.1649-1.8932-4.1649-4.2273c0-2.3343,1.8635-4.2269,4.1649-4.2269C53.2684,25.9356,55.1325,27.8281,55.1325,30.1625z
		 M53.455,37.3041l-5.043,4.3781c0.0545,0.3495,0.0915,0.7045,0.0915,1.0689c0,3.7271-2.977,6.749-6.648,6.749
		c-3.1671,0-5.8116-2.2486-6.4815-5.2574l-12.4656-4.293c-0.9849,0.759-2.2095,1.215-3.5415,1.215
		c-3.24,0-5.8669-2.6669-5.8669-5.9557c0-3.2885,2.6269-5.9543,5.8669-5.9543c2.7861,0,5.1131,1.9715,5.7135,4.6128l12.0416,4.1474
		c1.173-1.2069,2.7904-1.9634,4.5829-2.0042l1.8036-5.565c-0.0051-0.1105-0.016-0.2196-0.016-0.3312
		c0-4.2052,3.3595-7.6145,7.5034-7.6145c4.1441,0,7.5041,3.4092,7.5041,7.6145C58.5,33.4463,56.3895,36.2705,53.455,37.3041
		L53.455,37.3041z M23.056,33.1706c-0.7011-1.2807-2.0466-2.1483-3.592-2.1483c-2.2691,0-4.1085,1.8672-4.1085,4.1699
		s1.8394,4.1691,4.1085,4.1691c0.4195,0,0.8235-0.0642,1.2045-0.1828l-1.952-0.672c-1.573-0.8547-2.1651-2.8421-1.3225-4.4387
		c0.843-1.5956,2.8009-2.1957,4.3725-1.3409L23.056,33.1706z M45.144,30.1329c0,3.2664,2.6089,5.9145,5.8275,5.9145
		c3.2185,0,5.8294-2.6481,5.8294-5.9145c0-3.2681-2.6109-5.9162-5.8294-5.9162C47.7529,24.2167,45.144,26.8648,45.144,30.1329z
		 M45.259,43.3302c0-2.487-1.9866-4.5033-4.437-4.5033c-0.3435,0-0.6756,0.0438-0.9966,0.1182l2.4795,0.8538
		c1.572,0.8558,2.163,2.8426,1.3206,4.4376c-0.8425,1.5976-2.8005,2.1972-4.372,1.3424l-2.672-0.9206
		c0.5585,1.8386,2.246,3.1749,4.2405,3.1749C43.2724,47.8332,45.259,45.8163,45.259,43.3302L45.259,43.3302z"/>
</g>
</svg>
