<?xml version="1.0" encoding="utf-8"?>
<!-- Generator: Adobe Illustrator 21.1.0, SVG Export Plug-In . SVG Version: 6.00 Build 0)  -->
<svg version="1.1" id="_x36_2" xmlns="http://www.w3.org/2000/svg" xmlns:xlink="http://www.w3.org/1999/xlink" x="0px" y="0px"
	 viewBox="0 0 72 72" enable-background="new 0 0 72 72" xml:space="preserve">
<g>
	<rect fill="#FF73A5" width="72" height="72"/>
	<g>
		<path fill="#FFFFFF" d="M56.7297,27.2418c-0.5638-1.3346-1.2625-2.6207-2.0756-3.8218c-0.8028-1.1909-1.7271-2.3115-2.7436-3.3281
			c-1.0182-1.0182-2.1387-1.9425-3.3282-2.7467c-1.2027-0.8145-2.4901-1.5102-3.8232-2.0757
			c-1.3595-0.5727-2.7833-1.0166-4.2291-1.311C39.049,13.6552,37.5257,13.5,36.0008,13.5c-1.5234,0-3.0498,0.1552-4.5323,0.4586
			c-1.4457,0.2944-2.8682,0.7383-4.2261,1.311c-1.3344,0.5655-2.6205,1.2612-3.8232,2.0757
			c-1.1924,0.8042-2.3115,1.7285-3.3296,2.7467c-1.0152,1.0166-1.9395,2.1372-2.7451,3.3281
			c-0.813,1.2012-1.5117,2.4873-2.0727,3.8218c-0.5757,1.3593-1.0181,2.7831-1.3155,4.229
			c-0.3017,1.4794-0.4556,3.0044-0.4556,4.5278c0,1.5264,0.1539,3.0513,0.4556,4.5337c0.2975,1.4459,0.7398,2.8681,1.3155,4.2261
			c0.561,1.3344,1.2597,2.622,2.0727,3.8247c0.8057,1.1895,1.7299,2.3087,2.7451,3.328c1.0181,1.0167,2.1372,1.9395,3.3296,2.7452
			c1.2027,0.8115,2.4888,1.5103,3.8232,2.0742c1.358,0.5757,2.7804,1.0152,4.2261,1.3125C32.951,58.3478,34.4773,58.5,36.0008,58.5
			c1.5249,0,3.0483-0.1522,4.5292-0.4571c1.4459-0.2973,2.8697-0.7368,4.2291-1.3125c1.333-0.5639,2.6205-1.2627,3.8232-2.0742
			c1.1895-0.8056,2.31-1.7285,3.3282-2.7452c1.0165-1.0194,1.9408-2.1385,2.7436-3.328c0.813-1.2027,1.5117-2.4903,2.0756-3.8247
			c0.5757-1.358,1.0167-2.7803,1.3125-4.2261c0.3033-1.4824,0.4571-3.0074,0.4571-4.5337c0-1.5234-0.1537-3.0483-0.4571-4.5278
			C57.7464,30.0249,57.3054,28.6011,56.7297,27.2418z M36.0008,16.7856c4.8648,0,9.3046,1.8135,12.6913,4.7944
			c-0.0483,0.0747-2.7846,4.2408-10.0385,6.958c-3.2842-6.0351-6.8922-10.8295-7.1821-11.2104
			C32.9245,16.9761,34.4393,16.7856,36.0008,16.7856z M31.3997,17.3438c-0.0014,0.0015-0.0044,0.003-0.0044,0.003
			s-0.0219,0.0058-0.0586,0.0132C31.3572,17.3541,31.3792,17.3511,31.3997,17.3438z M27.802,18.6211
			c0.2549,0.3443,3.81,5.1606,7.1352,11.0712c-9.2256,2.4522-17.2324,2.357-17.7406,2.3482
			C18.4461,26.0874,22.4421,21.1524,27.802,18.6211z M21.7098,48.8409c-3.0602-3.4044-4.9235-7.9058-4.9235-12.8424
			c0-0.2036,0.0073-0.4058,0.0162-0.6064c0.3384,0.0073,9.8321,0.2227,19.7256-2.7377c0.5508,1.078,1.0781,2.1723,1.5585,3.265
			c-0.2533,0.0718-0.5054,0.1479-0.7572,0.2299c-10.3683,3.3516-15.627,12.6812-15.627,12.6812S21.7083,48.8379,21.7098,48.8409z
			 M36.0008,55.2159c-4.4546,0-8.546-1.5294-11.8067-4.0738l-0.0015,0.006c0,0-0.1786-0.1318-0.432-0.3355
			c0.1406,0.1158,0.29,0.2169,0.4335,0.3296c0.0352-0.0747,3.7339-8.0463,15.0762-11.997c0.0424-0.016,0.0849-0.0293,0.1275-0.041
			c2.704,7.0252,3.8202,12.9096,4.1045,14.5898C41.1981,54.6725,38.6609,55.2159,36.0008,55.2159z M46.738,51.9375
			c-0.1962-1.1616-1.2202-6.7998-3.7411-13.7256c6.2036-0.9916,11.5795,0.7091,11.9751,0.8379
			C54.1165,44.4053,51.0505,49.0239,46.738,51.9375z M41.8265,35.1796c-0.1362-0.3295-0.2724-0.6591-0.4146-0.9931
			c-0.3999-0.9389-0.8306-1.872-1.2772-2.7861c7.5879-3.0966,10.6684-7.5527,10.7065-7.6054
			c2.6924,3.2724,4.3227,7.4545,4.3666,12.0132C54.9309,35.7481,48.4286,34.3491,41.8265,35.1796z"/>
	</g>
</g>
</svg>
