<?xml version="1.0" encoding="utf-8"?>
<!-- Generator: Adobe Illustrator 21.1.0, SVG Export Plug-In . SVG Version: 6.00 Build 0)  -->
<svg version="1.1" id="_x36_3" xmlns="http://www.w3.org/2000/svg" xmlns:xlink="http://www.w3.org/1999/xlink" x="0px" y="0px"
	 viewBox="0 0 72 72" enable-background="new 0 0 72 72" xml:space="preserve">
<g>
	<rect fill="#00ABE3" width="72" height="72"/>
	<g>
		<path fill="#FFFFFF" d="M57.2599,18.6633c-1.7841,1.0427-3.7617,1.7996-5.8652,2.2076C49.7131,19.1045,47.3137,18,44.6565,18
			c-5.0976,0-9.2315,4.0692-9.2315,9.0888c0,0.7122,0.0821,1.4043,0.2373,2.0706c-7.6728-0.3792-14.4756-3.9972-19.0297-9.4955
			c-0.794,1.341-1.251,2.9028-1.251,4.5697c0,3.152,1.6333,5.9335,4.1089,7.563c-1.5118-0.0476-2.9371-0.4557-4.1821-1.1362
			c0,0.0375,0,0.0765,0,0.114c0,4.4022,3.183,8.0763,7.4076,8.9127c-0.7763,0.2076-1.5908,0.3186-2.4345,0.3186
			c-0.5948,0-1.172-0.0577-1.7373-0.1629c1.1778,3.6093,4.5849,6.238,8.625,6.3116c-3.1611,2.4369-7.1397,3.8903-11.4682,3.8903
			c-0.7471,0-1.4794-0.0432-2.2032-0.1268C17.5861,52.4961,22.4407,54,27.6526,54c16.9833,0,26.2675-13.8471,26.2675-25.8573
			c0-0.3936-0.0058-0.7873-0.0234-1.1765c1.8017-1.2806,3.369-2.8812,4.6054-4.7053c-1.6552,0.724-3.4337,1.2113-5.3028,1.4305
			C55.1067,22.5681,56.5686,20.7873,57.2599,18.6633z"/>
	</g>
</g>
</svg>
