<?xml version="1.0" encoding="utf-8"?>
<!-- Generator: Adobe Illustrator 21.1.0, SVG Export Plug-In . SVG Version: 6.00 Build 0)  -->
<svg version="1.1" id="_x36_6" xmlns="http://www.w3.org/2000/svg" xmlns:xlink="http://www.w3.org/1999/xlink" x="0px" y="0px"
	 viewBox="0 0 72 72" enable-background="new 0 0 72 72" xml:space="preserve">
<g>
	<rect fill="#C685C1" width="72" height="72"/>
	<g>
		<path fill="#FFFFFF" d="M28.1412,14.9738C28.7388,15.5139,44.2324,29.8602,45,30.5589c0-1.0364,0-14.7164,0-15.0363
			C42.0615,14.187,39.2197,13.5,35.9985,13.5C33.315,13.5,30.6796,14.0196,28.1412,14.9738z"/>
		<path fill="#FFFFFF" d="M24,55.306c0-0.8806,0-18.3475,0-19.3867c-0.7514,0.684-8.6207,8.2285-8.8799,8.4663
			C16.9248,48.9182,19.7974,52.758,24,55.306z"/>
		<path fill="#FFFFFF" d="M34.2612,23.7454c-0.3793-0.3436-8.2573-7.5093-8.5166-7.7442C18.1919,19.885,13.5,27.5469,13.5,36.0514
			c0,1.9316,0.2901,3.9014,0.8188,5.8565C14.9253,41.3502,33.8717,24.1035,34.2612,23.7454z"/>
		<path fill="#FFFFFF" d="M27,56.6065c2.2851,1.0304,4.4634,1.6644,6.9243,1.8935h4.1265c7.7739-0.7251,14.7114-4.8753,18.1611-12
			c-0.813,0-28.7284,0-29.2119,0C27,46.9697,27,56.2836,27,56.6065z"/>
		<path fill="#FFFFFF" d="M58.5,36.0514c0-7.8381-3.8057-15.1537-10.5-19.234c0,0.8923,0,26.1766,0,26.6551
			c0.4616,0,8.8666,0,9.2241,0C58.0591,41.0684,58.5,38.5731,58.5,36.0514z"/>
	</g>
</g>
</svg>
