<?xml version="1.0" encoding="utf-8"?>
<!-- Generator: Adobe Illustrator 21.1.0, SVG Export Plug-In . SVG Version: 6.00 Build 0)  -->
<svg version="1.1" id="_x39_" xmlns="http://www.w3.org/2000/svg" xmlns:xlink="http://www.w3.org/1999/xlink" x="0px" y="0px"
	 viewBox="0 0 72 72" enable-background="new 0 0 72 72" xml:space="preserve">
<g>
	<rect fill="#FF3A21" width="72" height="72"/>
	<g>
		<path fill="#FFFFFF" d="M47.9062,43.749h1.9337c0.5186,0,0.9375-0.4197,0.9375-0.9393v-6.7979h6.7851
			c0.5157,0,0.9375-0.4227,0.9375-0.9423v-1.9342c0-0.5196-0.4218-0.9423-0.9375-0.9423h-6.7851v-6.7979
			c0-0.5166-0.4189-0.9393-0.9375-0.9393h-1.9337c-0.5185,0-0.9403,0.4227-0.9403,0.9393v6.7979h-6.7852
			c-0.5156,0-0.9375,0.4227-0.9375,0.9423v1.9342c0,0.5196,0.4219,0.9423,0.9375,0.9423h6.7852v6.7979
			C46.9659,43.3293,47.3877,43.749,47.9062,43.749z"/>
		<path fill="#FFFFFF" d="M21.1788,55.5896c1.7167,0.4374,3.5625,0.6604,5.4784,0.6604c1.7226,0,3.3633-0.2261,4.8808-0.6663
			c4.7314-1.3737,7.7901-4.8636,7.7901-8.8937c0-3.8656-1.2393-6.1786-4.5673-8.5384c-1.4268-1.0126-2.7248-2.4951-2.7481-2.9529
			c0-0.8307,0.0733-1.227,1.9337-2.6799c2.4052-1.8844,3.7294-4.3647,3.7294-6.9856c0-2.3746-0.7236-4.4851-1.9599-5.9673h0.9579
			c0.1994,0,0.3927-0.0616,0.5508-0.1761l2.6689-1.9373c0.3311-0.2379,0.4718-0.6635,0.3428-1.0509
			C40.1104,16.0142,39.75,15.75,39.3427,15.75H27.4072c-1.3066,0-2.6337,0.229-3.9345,0.678
			c-4.3506,1.5028-7.3917,5.216-7.3917,9.0318c0,5.3977,4.1748,9.4925,9.7589,9.6214c-0.1084,0.4287-0.1641,0.8512-0.1641,1.2651
			c0,0.8307,0.2109,1.6201,0.6446,2.3805c-0.0528,0.0028-0.0996,0.0028-0.1553,0.0028c-5.3203,0-10.125,2.6154-11.9473,6.5103
			C13.7403,46.2498,13.5,47.2742,13.5,48.2838c0,0.9834,0.252,1.9286,0.7441,2.8179
			C15.3925,53.1562,17.8536,54.7501,21.1788,55.5896z M22.2423,25.313c-0.2578-1.9783,0.1553-3.754,1.1396-4.8783
			c0.6357-0.7278,1.4677-1.1096,2.3994-1.1096l0.1084,0.003c2.6367,0.0763,5.1591,3.0204,5.625,6.5631
			c0.2607,1.9842-0.1786,3.8479-1.1748,4.9869c-0.6357,0.728-1.4561,1.1094-2.4288,1.1094c0,0,0,0-0.0028,0h-0.041
			C25.2832,31.9111,22.705,28.8498,22.2423,25.313z M27.3135,41.7207l0.1084,0.003c0.8847,0.0089,1.746,0.1409,2.5605,0.3903
			c0.2784,0.1908,0.5478,0.3758,0.8086,0.5519c1.8808,1.2856,3.123,2.1339,3.4716,3.4959c0.0792,0.3405,0.1201,0.6838,0.1201,1.0155
			c0,3.5018-2.6074,5.2776-7.749,5.2776c-3.8994,0-6.9492-2.3952-6.9492-5.4537C19.6846,44.1893,23.25,41.7207,27.3135,41.7207z"/>
	</g>
</g>
</svg>
