<?xml version="1.0" encoding="utf-8"?>
<!-- Generator: Adobe Illustrator 21.1.0, SVG Export Plug-In . SVG Version: 6.00 Build 0)  -->
<svg version="1.1" id="_x31_0" xmlns="http://www.w3.org/2000/svg" xmlns:xlink="http://www.w3.org/1999/xlink" x="0px" y="0px"
	 viewBox="0 0 72 72" enable-background="new 0 0 72 72" xml:space="preserve">
<g>
	<rect fill="#00ABE3" width="72" height="72"/>
	<g>
		<path fill="#FFFFFF" d="M19.5508,28.6201c0.0089,2.1153,0.0502,4.2437,0.0621,6.3692c0.0028,2.2881,0.0089,4.5762,0.0089,6.8628
			c0,12.81,11.7594,16.4413,14.014,16.4413c2.2579,0,11.0937,0.2066,12.6885,0.2066c1.5979,0,6.1757-0.4189,6.1757-5.0053
			s-3.249-6.233-5.4417-6.233h-8.7737c-6.2406,0-7.2378-2.7348-7.2378-5.2691c0-1.204,0.0768-3.5625,0.1509-5.9926h14.6592
			c2.1957,0,6.3766-0.5155,6.3766-4.4897c0-3.9697-1.9291-6.0103-4.5184-6.0103h-16.334c-0.0179-5.729-0.3936-12-6.0455-12
			c-2.3376,0-4.2344,0.9507-5.0332,3.312c-1.0506,3.1011-0.7724,6.7325-0.7607,9.9624
			C19.5478,27.3882,19.5508,28.0049,19.5508,28.6201z"/>
	</g>
</g>
</svg>
