<?xml version="1.0" encoding="utf-8"?>
<!-- Generator: Adobe Illustrator 21.1.0, SVG Export Plug-In . SVG Version: 6.00 Build 0)  -->
<svg version="1.1" id="_x31_5" xmlns="http://www.w3.org/2000/svg" xmlns:xlink="http://www.w3.org/1999/xlink" x="0px" y="0px"
	 viewBox="0 0 72 72" enable-background="new 0 0 72 72" xml:space="preserve">
<g>
	<rect fill="#F5E200" width="72" height="72"/>
	<path id="_x31_5-path12604" fill="#FFFFFF" d="M35.8007,15.0014c-2.7239,0.0184-5.5406,0.7335-7.749,2.4609
		c-1.6539,1.2915-2.9544,3.003-3.7741,4.9149c-0.0012,0.0047-0.0024,0.0093-0.0035,0.014
		c-0.7808,1.9701-0.7085,4.0668-0.6026,6.0095v0.0034c0.0644,1.3654,0.2165,2.6874,0.0881,3.9425
		c-0.0103,0.0489-0.0108,0.0611-0.0175,0.0906c-0.6141,0.1101-1.2824,0.0702-1.9452-0.0558c-0.0036,0-0.0071,0-0.0107,0
		c-0.4539-0.0772-0.939-0.2623-1.4869-0.4147c-0.0095-0.0026-0.0187-0.0049-0.0282-0.0069
		c-0.5319-0.1203-1.0546,0.0329-1.4555,0.3276c-0.0051,0.0033-0.0123,0.007-0.0175,0.0105
		c-0.0081,0.006-0.0168,0.0112-0.0247,0.0174c-0.3261,0.2136-0.773,0.5724-0.7964,1.1956c-0.0011,0.0408,0.0026,0.0817,0.0105,0.122
		c0.0705,0.3661,0.2982,0.6339,0.5004,0.8086c0.2023,0.1748,0.3933,0.2901,0.511,0.38c0.0091,0.0074,0.0186,0.0142,0.0282,0.021
		c0.9919,0.6619,2.0898,0.9528,3.0445,1.321c0.0011,0.0003,0.0026-0.0003,0.0026-0.0003c0.6621,0.2899,1.2365,0.7405,1.3683,1.3074
		c0.1646,0.717-0.1407,1.5399-0.5392,2.3389v0.0035c-1.0749,2.1178-2.6714,3.9594-4.6338,5.3088
		c-1.0289,0.7023-2.1896,1.2264-3.4005,1.5511c-0.0168,0.0051-0.0333,0.011-0.0494,0.0176c-0.2485,0.0926-0.8377,0.153-1.2087,0.711
		c-0.0264,0.039-0.0477,0.0813-0.0634,0.1256c-0.1251,0.3588,0.0175,0.744,0.1938,0.955c0.1683,0.2016,0.3559,0.3188,0.5179,0.4044
		c0.0084,0.0048,0.0164,0.0092,0.0248,0.014c1.0197,0.5829,2.1333,0.8357,3.1503,1.0946c0.0047,0.0012,0.0094,0.0023,0.0141,0.0034
		c0.7327,0.165,1.4083,0.2532,1.9593,0.488c0.027,0.0448,0.0822,0.2296,0.2113,0.5368c0.1806,0.5577,0.2628,1.2162,0.4722,1.9066
		c0.0573,0.1911,0.2259,0.3453,0.423,0.387c0.4627,0.0972,0.7173-0.0598,0.7575-0.0629c0.0189-0.0014,0.0378-0.0036,0.0564-0.0069
		c1.7028-0.2952,3.402-0.5571,4.9617-0.1674h0.0035c1.6368,0.4266,3.0594,1.5522,4.662,2.5203
		c0.0028,0.0017,0.0042,0.0052,0.007,0.0069v-0.0034c1.0638,0.6678,2.2935,1.3216,3.7141,1.3699v0.0034
		c0.0048,0.0001,0.0094-0.0001,0.0141,0c1.073,0.0602,2.1263-0.0074,3.1539-0.0766c0.0059,0,0.0117,0,0.0176,0
		c0.8801-0.0863,1.7345-0.3759,2.4809-0.8507c0.0107-0.0059,0.0211-0.0114,0.0317-0.0174c1.6854-0.9552,3.1828-2.1062,4.8243-2.8269
		c0.0023-0.0009,0.0047-0.0027,0.0069-0.0035c0.5323-0.1909,1.1974-0.1801,1.9381-0.2301c0.007-0.0001,0.0141,0.0003,0.0212,0
		c1.3591-0.0415,2.7208,0.0306,4.0701,0.2091c0.0466,0.0059,0.0942,0.0059,0.1409,0c0.1773-0.0207,0.3709-0.1384,0.4651-0.2578
		c0.0943-0.1196,0.1215-0.2168,0.141-0.2859c0.039-0.1382,0.0753-0.2042,0.0106-0.0906c0.0204-0.0352,0.0371-0.0728,0.0494-0.1116
		c0.2477-0.812,0.3825-1.5468,0.7822-2.0043c0.1797-0.1737,0.4887-0.2608,0.8386-0.2544c0.026,0.0006,0.0519-0.0006,0.0776-0.0034
		c1.173-0.1374,2.2333-0.5564,3.2385-0.9133c0.0118-0.0042,0.0235-0.0089,0.0352-0.014c0.3733-0.1609,0.9297-0.3457,1.3108-0.8748
		c0.0019-0.0028,0.005-0.0042,0.007-0.007L58.3285,48.36c0.3206-0.4431,0.1718-1.0513-0.2818-1.3281l0.0069-0.0069
		c-0.0143-0.0098-0.0279-0.0153-0.0422-0.0245c-0.0039-0.0021-0.0067-0.0049-0.0106-0.007v0.0036
		c-0.5442-0.3459-1.0895-0.3939-1.4343-0.5195c-0.0069-0.0024-0.014-0.0048-0.021-0.0069
		c-2.3328-0.7402-4.3503-2.3337-5.8568-4.2736c-0.8364-1.0809-1.5436-2.2556-2.0121-3.51c-0.0017-0.0047-0.0021-0.0094-0.0035-0.014
		c-0.1834-0.5448-0.1926-1.1388,0.0774-1.499c0.0036-0.0034,0.0072-0.0069,0.0107-0.0105c0.4213-0.5988,1.1946-0.9836,2.0191-1.2863
		c0.0035-0.001,0.0072-0.0023,0.0107-0.0034c0.9114-0.3135,1.9086-0.6789,2.731-1.4013c0.0035-0.0033,0.007-0.0069,0.0105-0.0103
		c0.1272-0.1191,0.2802-0.274,0.3946-0.5055c0.1144-0.2314,0.1688-0.5924,0.0177-0.9063v-0.0034
		c-0.2373-0.4836-0.6511-0.7324-0.9585-0.9132H52.983c-0.5151-0.2974-1.1144-0.3167-1.6352-0.15
		c-0.001,0.0005-0.0024-0.0003-0.0024-0.0003c-0.0047,0.0015-0.0083,0.0027-0.0117,0.0039
		c-0.5627,0.1693-1.0219,0.3718-1.4482,0.4253c-0.0095,0.0021-0.0189,0.0043-0.0282,0.0069
		c-0.606,0.1068-1.1928,0.1325-1.6492-0.0348c-0.0042-0.0676-0.0065-0.1996-0.0246-0.3625h0.0035
		c-0.0336-0.9945,0.0514-2.0196,0.0669-3.0815V28.934c0.0465-1.6133,0.1122-3.2742-0.1268-4.9463
		c-0.001-0.0082-0.0022-0.0163-0.0036-0.0245c-0.5204-2.8206-2.3327-5.25-4.6304-6.8668c-1.6702-1.1724-3.6532-1.8267-5.6664-2.0113
		l-0.0022,0.0002c-0.6768-0.0676-1.3514-0.0915-2.024-0.0838H35.8007z"/>
</g>
</svg>
