<?xml version="1.0" encoding="utf-8"?>
<!-- Generator: Adobe Illustrator 21.1.0, SVG Export Plug-In . SVG Version: 6.00 Build 0)  -->
<svg version="1.1" id="_x32_1" xmlns="http://www.w3.org/2000/svg" xmlns:xlink="http://www.w3.org/1999/xlink" x="0px" y="0px"
	 viewBox="0 0 72 72" enable-background="new 0 0 72 72" xml:space="preserve">
<g>
	<rect fill="#00652D" width="72" height="72"/>
	<g>
		<path fill="#FFFFFF" d="M43.0881,26.3862c0.4936,0.2974,1.0616,0.4688,1.6798,0.4688c1.7841,0,3.2321-1.4268,3.2321-3.186
			c0-1.7578-1.4479-3.189-3.2321-3.189c-1.7868,0-3.2347,1.4312-3.2347,3.189c0,0.1479,0.0119,0.2973,0.0327,0.4409l-3.9902,2.8477
			V13.5h-3.1485v7.1016l-4.0198-2.861c0.0385-0.1889,0.0594-0.3837,0.0594-0.5888c0-1.7578-1.4508-3.1861-3.2348-3.1861
			c-1.7869,0-3.232,1.4283-3.232,3.1861c0,1.7607,1.4451,3.1904,3.232,3.1904c0.5618,0,1.094-0.1451,1.5549-0.3926l5.6403,4.0181
			v8.8727l-4.011-2.8623c0.0329-0.173,0.0506-0.3546,0.0506-0.5332c0-1.7667-1.4508-3.1919-3.2348-3.1919
			c-1.7869,0-3.232,1.4251-3.232,3.1919c0,1.7563,1.4451,3.1816,3.232,3.1816c0.5798,0,1.1268-0.1494,1.5965-0.4146l5.5987,3.9916
			v9.4571l-4.005-2.8564c0.0268-0.1698,0.0445-0.3442,0.0445-0.5214c0-1.7637-1.4508-3.189-3.2348-3.189
			c-1.7869,0-3.232,1.4253-3.232,3.189c0,1.7579,1.4451,3.1845,3.232,3.1845c0.5858,0,1.1327-0.1581,1.6084-0.4233l5.5868,3.983
			V58.5h0.2586h2.7651h0.1248v-3.1202l5.459-3.8951c0.4995,0.3106,1.0913,0.4981,1.7332,0.4981
			c1.7841,0,3.2321-1.4268,3.2321-3.1875c0-1.7608-1.4479-3.1875-3.2321-3.1875c-1.7868,0-3.2347,1.4267-3.2347,3.1875
			c0,0.126,0.0119,0.2549,0.0209,0.3794l-3.9783,2.8404v-9.4571l5.4678-3.9053c0.5025,0.309,1.0883,0.4921,1.7244,0.4921
			c1.7841,0,3.2321-1.4268,3.2321-3.1875s-1.4479-3.1905-3.2321-3.1905c-1.7868,0-3.2347,1.4298-3.2347,3.1905
			c0,0.1319,0.0119,0.2607,0.0267,0.3941l-3.9841,2.8402v-8.8681L43.0881,26.3862z"/>
	</g>
</g>
</svg>
