<?xml version="1.0" encoding="utf-8"?>
<!-- Generator: Adobe Illustrator 21.1.0, SVG Export Plug-In . SVG Version: 6.00 Build 0)  -->
<svg version="1.1" id="_x33_3" xmlns="http://www.w3.org/2000/svg" xmlns:xlink="http://www.w3.org/1999/xlink" x="0px" y="0px"
	 viewBox="0 0 72 72" enable-background="new 0 0 72 72" xml:space="preserve">
<g>
	<rect fill="#FDD029" width="72" height="72"/>
	<g>
		<path fill="#FFFFFF" d="M52.4972,36.1217c0,0-1.4649-2.7569-3.3222-5.6105c-3.0264,2.7467-6.1613,2.2853-7.4941,1.9921
			c-1.7579-0.3867-2.2355-1.1367-2.0919-1.7988c-1.0224-0.3252-4.623-2.4697-6.7968-3.1845
			c-4.1836,2.5693-5.8623,8.9853-5.6631,15.5127c-2.8067,5.3773-4.8955,7.1894-10.629,8.5224
			c1.0752,2.5503,1.5119,3.5069,3.1115,6.8877c7.1718-1.9555,11.7538-6.1992,14.5722-9.8262
			c4.7988,1.2304,8.3056,4.3067,11.2032,9.8834c3.0087-2.5298,3.3398-2.7876,5.9004-4.8618
			c-1.9952-4.8163-6.8965-8.9824-11.5606-11.253c0.0439-1.1382,0.0762-1.4238,0.126-2.3174
			C46.7052,41.8725,52.4972,36.1217,52.4972,36.1217z"/>
		<path fill="#FFFFFF" d="M34.1074,19.8999c0,3.5332,2.9298,6.4014,6.4337,6.4014c3.501,0,6.4746-2.8682,6.4746-6.4014
			c0-3.5346-2.9736-6.3999-6.4746-6.3999C37.0373,13.5,34.1074,16.3653,34.1074,19.8999z"/>
	</g>
</g>
</svg>
