<?xml version="1.0" encoding="utf-8"?>
<!-- Generator: Adobe Illustrator 21.1.0, SVG Export Plug-In . SVG Version: 6.00 Build 0)  -->
<svg version="1.1" id="_x33_6" xmlns="http://www.w3.org/2000/svg" xmlns:xlink="http://www.w3.org/1999/xlink" x="0px" y="0px"
	 viewBox="0 0 72 72" enable-background="new 0 0 72 72" xml:space="preserve">
<g>
	<rect fill="#FF4D3F" width="72" height="72"/>
	<g>
		<path fill="#FFFFFF" d="M48.0353,43.7845c-0.3603,0-0.6212,0.1063-0.7764,0.3221c-0.1611,0.205-0.2373,0.5556-0.2373,1.0437
			v1.1772h2.0127v-1.1772c0-0.4881-0.082-0.8386-0.2403-1.0437C48.6417,43.8909,48.3839,43.7845,48.0353,43.7845z"/>
		<g>
			<path fill="#FFFFFF" d="M40.1866,43.7455c-0.1613,0-0.3252,0.036-0.4834,0.1124c-0.1583,0.075-0.3135,0.1962-0.4688,0.3566
				v7.2543c0.1845,0.1872,0.3633,0.3311,0.5391,0.4147c0.1758,0.0795,0.3575,0.1244,0.5508,0.1244
				c0.2783,0,0.4833-0.0824,0.6152-0.2486c0.129-0.1647,0.1964-0.4299,0.1964-0.8028v-6.0128c0-0.3954-0.0792-0.6919-0.2373-0.8955
				C40.7314,43.8474,40.4941,43.7455,40.1866,43.7455z"/>
			<g>
				<path fill="#FFFFFF" d="M50.2794,34.5H21.7208c-4.541,0-8.2208,4.2003-8.2208,8.8413v6.754
					c0,4.6412,3.6798,8.4047,8.2208,8.4047h28.5586c4.541,0,8.2206-3.7635,8.2206-8.4047v-6.754
					C58.5,38.7003,54.8204,34.5,50.2794,34.5z M27.7208,40.1932h-2.6543v13.4874H22.5V40.1932h-2.6513V37.899h7.872V40.1932z
					 M35.2207,53.6806h-2.2764v-1.2759c-0.4218,0.4717-0.8554,0.8328-1.3125,1.0753c-0.4541,0.2531-0.8935,0.3728-1.3242,0.3728
					c-0.5273,0-0.92-0.1722-1.1865-0.5211c-0.2637-0.3474-0.4014-0.8625-0.4014-1.5604v-9.7346h2.2764V50.97
					c0,0.2755,0.0498,0.4732,0.1407,0.5961c0.0996,0.1272,0.2549,0.1857,0.4688,0.1857c0.1639,0,0.3778-0.0808,0.6357-0.2442
					c0.2549-0.1647,0.4922-0.3727,0.7031-0.6259v-8.8449h2.2764V53.6806z M43.4824,51.2771c0,0.8223-0.1786,1.4543-0.5361,1.896
					c-0.3545,0.4403-0.873,0.6575-1.5468,0.6575c-0.4484,0-0.8438-0.0824-1.1925-0.2532c-0.3456-0.1675-0.6738-0.4282-0.9726-0.7877
					v0.891h-2.2998V37.899h2.2998v5.0829c0.3105-0.3534,0.6357-0.6246,0.9756-0.8073c0.3486-0.1887,0.6972-0.2785,1.0518-0.2785
					c0.7206,0,1.2714,0.2457,1.6494,0.7428c0.3808,0.4958,0.5712,1.222,0.5712,2.176V51.2771z M51.375,48.1395h-4.3535v2.194
					c0,0.6124,0.0732,1.0378,0.2226,1.2759c0.1496,0.2382,0.4073,0.3535,0.7736,0.3535c0.3778,0,0.6385-0.1003,0.791-0.3011
					c0.1465-0.2037,0.2256-0.6439,0.2256-1.3284v-0.5301h2.3408v0.5975c0,1.1937-0.2812,2.0922-0.8583,2.6988
					c-0.5655,0.6004-1.4179,0.9-2.5518,0.9c-1.0224,0-1.8281-0.319-2.4111-0.96c-0.583-0.6349-0.8788-1.5169-0.8788-2.6388v-5.2311
					c0-1.0064,0.3222-1.8345,0.9696-2.4694c0.6417-0.6351,1.4679-0.9525,2.4903-0.9525c1.0429,0,1.8428,0.2949,2.4024,0.8835
					c0.5595,0.5901,0.8377,1.4347,0.8377,2.5384V48.1395z"/>
				<polygon fill="#FFFFFF" points="22.0254,13.5 25.459,24.0012 25.459,30.8888 28.3447,30.8888 28.3447,23.6748 31.7052,13.5 
					28.7696,13.5 26.9855,20.4519 26.8038,20.4519 24.9288,13.5 				"/>
				<path fill="#FFFFFF" d="M32.9444,18.6204c-0.6855,0.5885-1.0313,1.3778-1.0313,2.3751v6.6479
					c0,1.0902,0.3369,1.9543,1.005,2.6014c0.6767,0.6439,1.5732,0.9688,2.6952,0.9688c1.1631,0,2.0772-0.313,2.7452-0.9375
					c0.6592-0.6274,0.9931-1.4841,0.9931-2.5818V21.069c0-0.9765-0.3398-1.7807-1.0137-2.4006
					c-0.6796-0.6187-1.5468-0.9301-2.6103-0.9301C34.5645,17.7383,33.6358,18.0333,32.9444,18.6204z M36.7413,20.8968v6.9893
					c0,0.3429-0.1054,0.614-0.3076,0.8117c-0.2051,0.1962-0.4835,0.2935-0.8291,0.2935c-0.3399,0-0.6006-0.0928-0.7822-0.2904
					c-0.1816-0.1933-0.2724-0.4629-0.2724-0.8148v-6.9893c0-0.2787,0.0996-0.5032,0.29-0.6801
					c0.1992-0.1722,0.4512-0.2561,0.7647-0.2561c0.3398,0,0.6123,0.0839,0.8204,0.2561
					C36.6358,20.3936,36.7413,20.6181,36.7413,20.8968z"/>
				<path fill="#FFFFFF" d="M48.7441,30.8888V18.0632h-2.5633v9.736c-0.2373,0.2785-0.501,0.5076-0.7881,0.6905
					c-0.2929,0.1796-0.5303,0.2694-0.7178,0.2694c-0.2403,0-0.4161-0.0674-0.5215-0.2066
					c-0.1054-0.1348-0.1641-0.3535-0.1641-0.6561v-9.8333h-2.5605v10.72c0,0.7652,0.1524,1.3358,0.4512,1.7147
					c0.3016,0.3834,0.7441,0.5781,1.3387,0.5781c0.4835,0,0.9756-0.1392,1.4855-0.4104c0.5155-0.274,1.0079-0.6738,1.4766-1.1966
					v1.4198H48.7441z"/>
			</g>
		</g>
	</g>
</g>
</svg>
