<?xml version="1.0" encoding="utf-8"?>
<!-- Generator: Adobe Illustrator 21.1.0, SVG Export Plug-In . SVG Version: 6.00 Build 0)  -->
<svg version="1.1" id="_x34_6" xmlns="http://www.w3.org/2000/svg" xmlns:xlink="http://www.w3.org/1999/xlink" x="0px" y="0px"
	 viewBox="0 0 72 72" enable-background="new 0 0 72 72" xml:space="preserve">
<g>
	<rect fill="#FF9916" width="72" height="72"/>
	<g>
		<path fill="#FFFFFF" d="M14.9992,49.5468c0,4.9307,9.435,8.9532,21.0015,8.9532c11.5693,0,21-4.0225,21-8.9532
			c0-2.5458-2.5269-4.8397-6.548-6.4716c0.1246-0.6738,0.2124-1.3447,0.2154-2.0215c0.0366-8.458-4.5645-11.7597-9.4337-14.5752
			c1.4108,7.4062-3.1479,11.9824-8.8139,10.3798c8.2808-13.5439-3.769-13.576-0.0879-23.3583
			c-5.6631,4.0196-11.3438,15.2812-11.3262,23.496c0.0028,2.171,0.2241,4.1895,0.627,6.0353
			C17.5569,44.666,14.9992,46.9804,14.9992,49.5468z M27.9631,32.3232c-1.5674,7.0605,2.6324,12.3222,6.6753,12.375
			c4.5644,0.0322,7.2686-4.2276,8.5561-9.8145c2.4228,1.8457,3.6738,4.4268,3.8364,7.0576
			c-0.0059-0.0028-0.0117-0.0028-0.0176-0.0058c0.1845,2.9795-1.0342,6.0234-3.564,8.1504
			c-0.0102,0.0117-0.0249,0.0234-0.0396,0.0351c-0.542,0.4542-1.1469,0.8643-1.8105,1.2218
			c-0.0587,0.0322-0.123,0.0615-0.1816,0.0938c-0.2652,0.1377-0.5391,0.2665-0.8247,0.3867
			c-0.0821,0.0351-0.1611,0.0704-0.2462,0.1054c-0.6943,0.2784-1.4413,0.504-2.2426,0.6738
			c-0.1113,0.0205-0.227,0.0411-0.3398,0.0616c-0.3018,0.0556-0.611,0.1024-0.9273,0.1405
			c-0.1245,0.0176-0.2475,0.0322-0.3721,0.0439c-0.4307,0.044-0.8687,0.0762-1.3227,0.0821
			c-0.3193,0.0059-0.6328-0.0058-0.9448-0.0264c-0.0821-0.0028-0.1626-0.0117-0.2447-0.0205
			c-0.2635-0.0234-0.5272-0.0557-0.7836-0.0996c-0.0513-0.0087-0.0996-0.0145-0.148-0.0234c-0.312-0.0556-0.6195-0.123-0.9228-0.208
			c-0.0366-0.0117-0.0747-0.0234-0.1098-0.0322c-0.2827-0.0791-0.5625-0.1728-0.8364-0.2783
			c-0.0294-0.0089-0.0571-0.0205-0.0865-0.0293c-3.7514-1.4766-6.479-5.13-6.3339-10.21c-0.0073,0-0.0117,0.003-0.0205,0.0059
			C24.7962,39.1786,25.7658,35.9091,27.9631,32.3232z"/>
	</g>
</g>
</svg>
