<?xml version="1.0" encoding="utf-8"?>
<!-- Generator: Adobe Illustrator 21.1.0, SVG Export Plug-In . SVG Version: 6.00 Build 0)  -->
<svg version="1.1" id="_x34_9" xmlns="http://www.w3.org/2000/svg" xmlns:xlink="http://www.w3.org/1999/xlink" x="0px" y="0px"
	 viewBox="0 0 72 72" enable-background="new 0 0 72 72" xml:space="preserve">
<g>
	<rect fill="#313131" width="72" height="72"/>
	<g>
		<path fill="#FFFFFF" d="M14.1123,22.332c1.0663,0.0633,1.7812,0.24,2.1153,0.5404c0.3339,0.299,0.6972,1.0597,1.1659,2.243
			c2.546,6.4331,7.9541,17.9109,10.5849,24.4491c0.7558,1.7826,1.7111,2.0606,2.8682-0.0547
			c1.1895-2.3231,3.586-7.4787,5.335-11.2854c1.6405,3.7981,3.8671,8.9328,4.9454,11.2601c0.8554,1.8613,1.831,2.0466,2.8242,0.0562
			c2.5869-6.0611,10.1601-24.3087,10.1601-24.3087c0.3252-0.8969,0.7822-1.5861,1.3712-2.0873
			c0.5829-0.4954,1.4531-0.7732,2.6748-0.831c0.246,0,0.3428-0.1178,0.3428-0.3482v-0.8562L58.4677,21c0,0-6.9843,0-9.3018,0
			l-0.6649,0.1094v0.8562c0,0.0998,0.3163,0.184,0.4042,0.2457c0.0821,0.0704,0.3105,0.1066,0.4073,0.1066l0.8437,0.0394
			c0.9522,0.042,1.2451,0.2414,1.6171,0.5769c0.3663,0.3466,0.4248,0.9377,0.1407,1.7658l-8.2207,20.5692l-0.3163-0.0914
			l-5.2238-11.2572c0.0762-0.1699,0.1202-0.264,0.1202-0.264l4.2774-8.4221c0.498-0.8883,0.9784-1.6828,1.2246-2.052
			c0.4454-0.6766,0.665-0.8029,1.8809-0.8619c0.2461,0,0.3428-0.1165,0.3428-0.3537v-0.852l-0.0615-0.0912
			c0,0-5.1123-0.0183-7.4414,0l0.0029,0.0899v0.8518c0,0.1026-0.0587,0.1854,0.0234,0.2486
			c0.0879,0.0702,0.1231,0.1038,0.2197,0.1038l0.3486,0.0422c0.9522,0.0422,1.377,0.3033,1.5059,0.4689
			c0.2286,0.2932,0.334,0.6091-0.2138,1.8723l-3.2959,6.9104l-2.9736-6.409c-0.9756-2.0495-1.2188-2.6825,0.2519-2.8004
			l0.3955-0.0885c0.2871,0,0.2373-0.1066,0.2373-0.3102v-0.8941l-0.0264-0.0742c0,0-5.4521,0-7.9394,0.0027L27,21.125v0.8968
			c0,0.2007,0.208,0.254,0.5917,0.3075c1.377,0.1908,1.3564,0.3423,2.7159,3.1848c0.205,0.4281,0.8026,1.7126,0.8026,1.7126
			l3.1026,6.4147c0,0,0.3516,0.8238,0.9023,2.1027l-4.5059,9.4704l-0.2549-0.0702c0,0-6.996-15.5328-9.0234-20.7292
			c-0.2139-0.5347-0.3046-0.9361-0.3046-1.1833c0-0.5277,0.4512-0.8141,1.3564-0.852l1.374-0.0477
			c0.2841,0,0.7442-0.1122,0.7442-0.3482v-0.8533l-0.4131-0.0872c0,0-8.5723-0.0082-10.3038,0L13.5,21.1305v0.8997
			C13.5,22.1889,13.7256,22.2899,14.1123,22.332z"/>
	</g>
</g>
</svg>
