<?xml version="1.0" encoding="utf-8"?>
<!-- Generator: Adobe Illustrator 21.1.0, SVG Export Plug-In . SVG Version: 6.00 Build 0)  -->
<svg version="1.1" id="_x35_1" xmlns="http://www.w3.org/2000/svg" xmlns:xlink="http://www.w3.org/1999/xlink" x="0px" y="0px"
	 viewBox="0 0 72 72" enable-background="new 0 0 72 72" xml:space="preserve">
<g>
	<rect fill="#FFA600" width="72" height="72"/>
	<g>
		<path fill="#FFFFFF" d="M36,54c12.4248,0,22.5-6.552,22.5-14.6298S48.4248,24.7434,36,24.7434
			c-6.2637,0-11.9327,1.6644-16.0107,4.3518V18H13.5v21.3588v0.0114v0.0144v0.057h0.003C13.5586,47.4867,23.6103,54,36,54z
			 M36,28.335c8.6836,0,15.7236,4.9406,15.7236,11.0352c0,6.0948-7.04,11.038-15.7236,11.038
			c-8.6837,0-15.7236-4.9432-15.7236-11.038C20.2764,33.2756,27.3163,28.335,36,28.335z"/>
	</g>
</g>
</svg>
