<?xml version="1.0" encoding="utf-8"?>
<!-- Generator: Adobe Illustrator 21.1.0, SVG Export Plug-In . SVG Version: 6.00 Build 0)  -->
<svg version="1.1" id="_x35_2" xmlns="http://www.w3.org/2000/svg" xmlns:xlink="http://www.w3.org/1999/xlink" x="0px" y="0px"
	 viewBox="0 0 72 72" enable-background="new 0 0 72 72" xml:space="preserve">
<g>
	<rect fill="#FF4C24" width="72" height="72"/>
	<path fill-rule="evenodd" clip-rule="evenodd" fill="#FFFFFF" d="M36,58.5c-0.5098,0-1.0196-0.0176-1.5234-0.0498l9.4129-16.3066
		c1.3214-1.6992,2.1095-3.8351,2.1095-6.1553c0-3.753-2.0625-7.0254-5.1181-8.7481h15.8524C57.8702,29.9326,58.5,32.8946,58.5,36
		C58.5,48.4277,48.4277,58.5,36,58.5z M35.9561,25.9482c-5.5107,0-9.9845,4.4413-10.0371,9.9405l-7.8106-13.5264
		C22.2188,16.9746,28.705,13.5,36,13.5c8.8036,0,16.4208,5.0536,20.1181,12.4189H35.9561V25.9482z M36.0556,44.4462
		c-4.6524,0-8.4228-3.7704-8.4228-8.4228s3.7704-8.4228,8.4228-8.4228s8.4258,3.7704,8.4258,8.4228S40.708,44.4462,36.0556,44.4462z
		 M35.9561,46.0312c1.7812,0,3.4512-0.4629,4.9014-1.2774l-7.8252,13.5528C22.0107,56.8535,13.5,47.4199,13.5,36
		c0-4.6054,1.3887-8.8917,3.7645-12.4571l9.4337,16.3389C28.2188,43.4941,31.7929,46.0312,35.9561,46.0312z"/>
</g>
</svg>
