<?xml version="1.0" encoding="utf-8"?>
<!-- Generator: Adobe Illustrator 21.1.0, SVG Export Plug-In . SVG Version: 6.00 Build 0)  -->
<svg version="1.1" id="_x35_3" xmlns="http://www.w3.org/2000/svg" xmlns:xlink="http://www.w3.org/1999/xlink" x="0px" y="0px"
	 viewBox="0 0 72 72" enable-background="new 0 0 72 72" xml:space="preserve">
<g>
	<rect fill="#9055A9" width="72" height="72"/>
	<g id="_x35_3-g15" transform="matrix(1.452588,0,0,1.452588,-115.17955,-97.147891)">
		<path id="_x35_3-path17-6" fill="#FFFFFF" d="M117.1829,98.5908c-0.9636-0.7605-1.9933-1.4431-3.0069-2.1406
			c-2.0216-1.392-3.8705-1.5001-5.379,0.7394c-0.8472,1.2572-2.033,1.3123-3.2729,0.7607c-3.4183-1.5194-6.0579-3.8608-7.6039-7.267
			c-0.6839-1.5069-0.675-2.858,0.9253-3.9238c0.8472-0.5636,1.7008-1.2307,1.6325-2.4623c-0.0891-1.606-4.0664-6.9729-5.637-7.5393
			c-0.6499-0.2344-1.2972-0.2192-1.9584-0.0013c-3.6829,1.2142-5.2083,4.1836-3.7474,7.6996
			c4.3582,10.4898,12.0282,17.7924,22.5862,22.2495c0.6018,0.2538,1.2706,0.3553,1.6093,0.4463
			c2.4037,0.0238,5.2196-2.2467,6.0328-4.4999C120.1465,100.4842,118.4918,99.6237,117.1829,98.5908L117.1829,98.5908z"/>
		<path id="_x35_3-path19-1" fill="#FFFFFF" d="M105.3447,77.8333c7.7187,1.1637,11.2783,4.7619,12.2613,12.3835
			c0.0912,0.704-0.1764,1.7633,0.8481,1.783c1.0707,0.02,0.8128-1.0237,0.8218-1.7283c0.0906-7.1782-6.2936-13.8327-13.708-14.0781
			c-0.5594,0.0789-1.7169-0.3782-1.789,0.851C103.7307,77.8732,104.7052,77.7369,105.3447,77.8333L105.3447,77.8333z"/>
		<path id="_x35_3-path21-2" fill="#FFFFFF" d="M106.8545,79.9231c-0.7425-0.0876-1.7225-0.4306-1.896,0.5794
			c-0.1811,1.06,0.9112,0.9523,1.6131,1.1064c4.7673,1.0445,6.4271,2.7457,7.2121,7.3816c0.1146,0.676-0.1132,1.7279,1.0585,1.5535
			c0.8683-0.1296,0.5547-1.0314,0.6273-1.5581C115.5078,84.535,111.6176,80.4838,106.8545,79.9231L106.8545,79.9231z"/>
		<path id="_x35_3-path23" fill="#FFFFFF" d="M107.2923,83.5627c-0.4956,0.0121-0.982,0.0645-1.1641,0.5838
			c-0.2736,0.776,0.3018,0.9611,0.8877,1.0534c1.9556,0.3077,2.9848,1.4383,3.1801,3.3501c0.0528,0.519,0.3887,0.9394,0.8999,0.8802
			c0.7085-0.0828,0.7725-0.7012,0.7508-1.2882C111.8817,85.994,109.4055,83.5113,107.2923,83.5627L107.2923,83.5627z"/>
	</g>
</g>
</svg>
