<?xml version="1.0" encoding="utf-8"?>
<!-- Generator: Adobe Illustrator 21.1.0, SVG Export Plug-In . SVG Version: 6.00 Build 0)  -->
<svg version="1.1" id="_x35_6" xmlns="http://www.w3.org/2000/svg" xmlns:xlink="http://www.w3.org/1999/xlink" x="0px" y="0px"
	 viewBox="0 0 72 72" enable-background="new 0 0 72 72" xml:space="preserve">
<g>
	<rect fill="#00B23D" width="72" height="72"/>
	<g>
		<path fill="#FFFFFF" d="M19.9395,43.9365c1.9512,0,3.7149-0.7295,5.0976-1.8969l16.125,8.0625
			c-0.0117,0.1522-0.0468,0.2944-0.0468,0.4525c0,4.3902,3.5508,7.9454,7.9424,7.9454C53.4434,58.5,57,54.9449,57,50.5546
			c0-4.3872-3.5566-7.9408-7.9423-7.9408c-1.9512,0-3.7178,0.7295-5.0976,1.8984l-16.1221-8.0625
			C27.8438,36.2973,27.879,36.1538,27.879,36c0-0.1582-0.0352-0.3032-0.0411-0.4571L43.96,27.4761
			c1.3799,1.1689,3.1436,1.9042,5.0976,1.9042c4.3857,0,7.9423-3.5536,7.9423-7.9438c0-4.3842-3.5566-7.9365-7.9423-7.9365
			c-4.3916,0-7.9424,3.5523-7.9424,7.9365c0,0.1582,0.0351,0.3033,0.0468,0.4555l-16.125,8.061
			c-1.3827-1.1674-3.1464-1.8999-5.0976-1.8999C15.5538,28.0532,12,31.6098,12,36C12,40.3843,15.5538,43.9365,19.9395,43.9365z"/>
	</g>
</g>
</svg>
