<?xml version="1.0" encoding="utf-8"?>
<!-- Generator: Adobe Illustrator 21.1.0, SVG Export Plug-In . SVG Version: 6.00 Build 0)  -->
<svg version="1.1" id="_x36_" xmlns="http://www.w3.org/2000/svg" xmlns:xlink="http://www.w3.org/1999/xlink" x="0px" y="0px"
	 viewBox="0 0 72 72" enable-background="new 0 0 72 72" xml:space="preserve">
<g>
	<rect fill="#90A2AE" width="72" height="72"/>
	<path fill-rule="evenodd" clip-rule="evenodd" fill="#FFFFFF" d="M30.031,42.2084c-1.6472-1.0707-2.2842-2.5694-2.2211-4.4253
		c0.0573-1.7533,0.2898-3.4174,2.0546-4.4062c-0.307-0.1538-0.5739-0.2724-0.8293-0.4174
		c-1.7016-0.9799-2.7804-2.5298-3.5926-4.2701c-3.0875-6.6284,1.0474-14.2046,8.2098-15.0938
		c2.3788-0.2944,4.6399,0.0864,6.7921,1.1837c0.353,0.1773,0.7948,0.265,1.185,0.2447c2.0145-0.1011,3.937-0.6446,5.8309-1.3301
		c0.1233-0.0455,0.2467-0.0968,0.3731-0.1392c0.0286-0.0117,0.066,0.0015,0.1319,0.0073c0.0087,0.1435,0.0259,0.2944,0.0259,0.4439
		c0,1.9071-0.0087,3.8144,0.0087,5.7201c0.0027,0.3692-0.0978,0.5523-0.4591,0.6387c-0.6801,0.1641-1.3488,0.3707-2.0317,0.5597
		c-0.0029,0.0527-0.02,0.1024-0.0086,0.1449c1.7132,5.0215-1.4032,12.6006-8.4622,13.5924c-1.6184,0.227-2.4418,1.229-2.4046,2.7348
		c0.0202,0.8628,0.5452,1.437,1.1134,1.9731c0.9124,0.86,2.0574,1.1339,3.2424,1.3302c1.7649,0.29,3.4836,0.7559,5.0735,1.6273
		c2.703,1.484,3.8796,3.8056,3.6499,6.9053c-0.1033,1.4166-0.3415,2.7965-0.9526,4.0929c-1.0761,2.2836-2.8953,3.6782-5.2196,4.3461
		c-4.0806,1.1733-8.1696,1.1367-12.184-0.3384c-2.0718-0.7602-3.8337-2.0214-4.6544-4.1982
		c-1.1218-2.9692-1.0101-5.8491,1.145-8.3687c1.0101-1.1806,2.3645-1.8589,3.7878-2.392
		C29.7269,42.3387,29.8158,42.2993,30.031,42.2084z M39.2823,24.371c-0.0574-0.5288-0.0775-0.9711-0.1493-1.4048
		c-0.3558-2.0845-1.6069-3.3003-3.5467-3.4657c-2.0458-0.1758-3.5323,0.9053-4.0086,2.9457
		c-0.264,1.1382-0.2755,2.2969-0.0317,3.441c0.2985,1.3946,1.0847,2.389,2.4851,2.6938c0.6886,0.1479,1.4317,0.1889,2.1292,0.104
		c1.6041-0.1948,2.5365-1.1148,2.8953-2.732C39.1761,25.4095,39.2163,24.8486,39.2823,24.371z M35.9565,52.704
		c1.3228,0.0015,2.4995-0.0673,3.5869-0.6357c1.1707-0.6123,1.6328-1.6392,1.6098-2.9341c-0.023-1.2584-0.6284-2.1723-1.7591-2.5884
		c-0.8493-0.312-1.7646-0.4952-2.6629-0.5844c-1.3801-0.1377-2.7662-0.0645-4.0833,0.4642
		c-1.294,0.5231-1.9569,1.5206-1.9684,2.8976c-0.0087,1.3212,0.6657,2.2822,1.9828,2.8242
		C33.7612,52.6014,34.9206,52.6791,35.9565,52.704z"/>
</g>
</svg>
