<?xml version="1.0" encoding="utf-8"?>
<!-- Generator: Adobe Illustrator 21.1.0, SVG Export Plug-In . SVG Version: 6.00 Build 0)  -->
<svg version="1.1" id="_x36_4" xmlns="http://www.w3.org/2000/svg" xmlns:xlink="http://www.w3.org/1999/xlink" x="0px" y="0px"
	 viewBox="0 0 72 72" enable-background="new 0 0 72 72" xml:space="preserve">
<g>
	<rect fill="#00B4F0" width="72" height="72"/>
	<g>
		<path fill="#FFFFFF" d="M13.5,49.9675c3.1464-1.2424,5.6895-1.7404,7.8281-1.7404c3.5244,0,5.9677,1.3329,8.2736,2.8365
			c0.8524-2.8393,3.7587-12.5527,4.3095-14.4037c-0.624-0.3787-1.251-0.759-1.9159-1.109
			c-1.5498-0.7806-3.7119-1.5899-6.0792-1.5899c-0.2696,0-0.5361,0.0087-0.8057,0.0302c-2.376,0.1938-4.5381,0.7892-6.0585,1.313
			c-0.4483,0.1591-0.9112,0.33-1.3858,0.5208L13.5,49.9675z"/>
		<path fill="#FFFFFF" d="M53.2676,39.8494c-3.0351,1.0646-5.6514,1.4664-7.8633,1.4664c-4.8135,0-7.7402-1.8797-9.0028-2.8681
			L32.247,52.57c-0.0059-0.0057,4.8546,2.93,8.502,2.93c2.3087,0,5.0683-0.554,8.5165-1.9485L53.2676,39.8494z"/>
		<path fill="#FFFFFF" d="M38.9296,19.1444c0,0-2.9824-1.7505-5.0595-2.27C32.8798,16.6449,31.7579,16.5,30.5186,16.5
			c-0.0176,0-0.0323,0-0.047,0c-2.1123,0.0401-4.6405,0.5408-7.7519,1.7833l-4.1016,14.1109
			c3.1964-1.2768,5.7861-1.8421,7.9629-1.8421c0.0409,0,0.0762,0,0.1113,0c3.378,0.0343,5.7716,1.3559,7.998,2.802
			c0.8526-2.8306,3.3839-11.3319,4.2393-14.1999V19.1444z"/>
		<path fill="#FFFFFF" d="M41.5546,20.9751l-4.2071,14.2615c0.0117,0.0129,0.0294,0.0215,0.0439,0.0302
			c2.3145,1.515,5.3232,2.7419,8.9532,2.7419c2.3994,0,5.0653-0.5352,7.9804-1.881c0-0.0044,0-0.0143,0-0.0188
			c0.0059,0,0.0145-0.0057,0.0264-0.0085L58.5,22.0984c-3.0645,1.3099-5.748,1.7919-8.042,1.7919
			C45.8964,23.8904,42.8847,21.9879,41.5546,20.9751z"/>
	</g>
</g>
</svg>
