<?xml version="1.0" encoding="utf-8"?>
<!-- Generator: Adobe Illustrator 21.1.0, SVG Export Plug-In . SVG Version: 6.00 Build 0)  -->
<svg version="1.1" id="_x36_7" xmlns="http://www.w3.org/2000/svg" xmlns:xlink="http://www.w3.org/1999/xlink" x="0px" y="0px"
	 viewBox="0 0 72 72" enable-background="new 0 0 72 72" xml:space="preserve">
<g>
	<rect fill="#F45A00" width="72" height="72"/>
	<path id="_x36_7-etsy" fill="#FFFFFF" d="M22.8018,57.9449c3.7905-0.165,8.3945,0,12.883,0c4.6329,0,9.3769-0.3079,13.113,0
		c1.5094,0.1245,2.898,1.0281,4.1419,0.228c0.96-1.2365,0.2481-2.8959,0.4605-4.5594c0.403-3.1581,3.3152-6.9445-0.9214-7.75
		c-1.8045,1.6445-0.588,3.206-1.6095,5.243c-1.2375,2.4666-5.6711,3.3195-9.8925,3.6465
		c-3.6231,0.2816-9.9736,0.6446-11.2735-1.8229c-1.0976-2.0825-0.4611-5.3125-0.4611-7.9781c0-3.015-0.3234-5.9015,0.4611-8.2071
		c4.6025,0.3366,10.5545-1.5339,13.8034,0.4555c2.1737,1.332,0.9377,3.9386,3.4511,4.7871
		c1.7301-0.4646,0.8065-2.7006,0.6895-4.7871c-0.074-1.3444-0.0686-3.234,0-4.7869c0.093-2.0961,0.902-4.5271-1.3811-4.5591
		c-1.7929,1.3935-0.4449,3.7161-2.301,5.0145c-0.593,0.4161-1.881,0.5916-2.759,0.685c-3.448,0.3641-8.8561,0.0671-11.7346-0.4564
		c-0.3965-4.2011-0.3624-9.9261,0-14.1332c1.5625-1.552,5.1565-1.606,7.5926-1.5964c4.2675,0.017,10.9226,0.372,12.1931,2.508
		c0.6915,1.1621,0.1435,3.594,1.3811,3.875c2.4895,0.5685,1.2795-3.8734,1.3811-5.927c0.075-1.5396,0.7554-2.5311,0.459-3.6475
		c-0.8055-1.1005-2.0061-0.549-2.76-0.4556c-7.8291,0.9681-19.7191,0.4556-28.0672,0.4556c-0.9969,0-2.7384-0.497-3.4504,0.684
		c-0.4815,2.6331,3.1129,1.5446,4.3706,2.9635c0.409,0.4615,1.0135,2.5,1.1505,3.8756c0.364,3.6534,0,9.2335,0,14.5894
		c0,5.6596,0.4294,11.3686,0,14.8176c-0.15,1.2045-0.8764,3.1446-1.1505,3.4196c-1.5675,1.566-5.7111-0.1685-5.292,3.192
		C18.7351,58.6974,20.8442,58.0303,22.8018,57.9449L22.8018,57.9449z"/>
</g>
</svg>
