<?xml version="1.0" encoding="utf-8"?>
<!-- Generator: Adobe Illustrator 21.1.0, SVG Export Plug-In . SVG Version: 6.00 Build 0)  -->
<svg version="1.1" id="_x37_" xmlns="http://www.w3.org/2000/svg" xmlns:xlink="http://www.w3.org/1999/xlink" x="0px" y="0px"
	 viewBox="0 0 72 72" enable-background="new 0 0 72 72" xml:space="preserve">
<g>
	<rect fill="#91009A" width="72" height="72"/>
	<g>
		<path fill="#FFFFFF" d="M30.9494,39.2575c0.1494,1.0336,0.2812,7.1327-0.1495,7.5959c-0.8672,0.9204-4.8251,0.6763-5.7831,0.744
			l-0.3282,1.8894c1.7432,0.0529,7.4179-0.1412,9.1817-0.1412c3.4776,0,9.5683-0.0162,10.4296,0.0485l0.1056-1.9819
			c-0.879-0.1485-5.6748-0.0177-6.3369-0.1691c-0.1465-0.9601-0.3077-7.3813-0.1613-8.0458
			c0.6621-1.9173,10.7373-9.7278,11.8419-10.0278c0.249-0.0485,0.6181-0.1323,1.0371-0.2235h3.246l0.5069-0.7484
			c0.0089-0.0058,0.0294-0.0073,0.0381-0.0073L55.834,26.37c-0.0175,0-0.0468-0.0045-0.0615-0.0045l0.1319-0.1969H38.3145
			l0.6768,2.7774h4.8018l-8.0772,7.3181c-1.6494-2.285-5.5137-7.0459-8.2091-10.9851h6.0469v-2.1143l0.0704-0.4662
			c-0.0177-0.0044-0.0528-0.0087-0.0704-0.0087V22.5H13.5v2.7789h5.9473C21.756,27.0905,30.583,38.1549,30.9494,39.2575z"/>
		<path fill="#FFFFFF" d="M52.5938,31.8029l0.0733,12.545l2.6952,0.2163L58.5,32.394
			C57.9756,32.3764,53.2121,31.9235,52.5938,31.8029z"/>
		<polygon fill="#FFFFFF" points="55.0548,49.5 55.4855,46.5901 53.9327,46.5136 52.2012,46.299 52.2159,49.2706 53.5811,49.3898 		
			"/>
	</g>
</g>
</svg>
