<?xml version="1.0" encoding="utf-8"?>
<!-- Generator: Adobe Illustrator 21.1.0, SVG Export Plug-In . SVG Version: 6.00 Build 0)  -->
<svg version="1.1" id="Airbnb" xmlns="http://www.w3.org/2000/svg" xmlns:xlink="http://www.w3.org/1999/xlink" x="0px" y="0px"
	 viewBox="0 0 72 72" enable-background="new 0 0 72 72" xml:space="preserve">
<g id="airbnb-page-1">
	<g id="airbnb-icons" transform="translate(-2786.000000, -354.000000)">
		<g id="airbnb-travel-apps" transform="translate(2330.000000, 50.000000)">
			<g id="airbnb-airbnb" transform="translate(456.000000, 304.000000)">
				<rect fill="#FF5A5F" width="72" height="72"/>
				<g id="airbnb-icon" transform="translate(17.000000, 13.000000)">
					<path id="airbnb-left" fill="#FFFFFF" d="M11.6993,1.3147L-4.2712,33.8568c-2.9291,5.9685-0.3828,13.0568,5.6709,15.7963
						l0.5882,0.2662c4.7592,2.1537,11.5512,0.9283,14.7566-2.5029l-2.5557-2.5332c-0.0683,0.0649-0.0683,0.0649-0.2732,0.2598
						c-0.2049,0.1948-0.2049,0.1948-0.2732,0.2598c2.549,2.5439,2.549,2.5439,3.0271,2.0892
						c1.8976-1.8045,3.6255-3.5695,5.1946-5.446c2.2069-2.6392,4.7308-6.091,5.3688-7.2184
						c0.8831-1.5607,1.5272-3.0685,1.9701-4.4714c0.2736-0.8666,0.4212-1.5248,0.4801-1.924l-0.053,0.2422
						c2.0099-6.8728-2.3382-12.6641-9.5022-12.6641l-0.0176,3.6c4.7821,0,7.4,3.4869,6.0645,8.0537l-0.053,0.2422
						c-0.005,0.0338-0.0242,0.1379-0.0618,0.3058c-0.0682,0.3042-0.1634,0.6597-0.2899,1.0604
						c-0.3696,1.1705-0.9151,2.4476-1.6703,3.7823c-0.5121,0.9049-2.9181,4.1956-4.9973,6.682
						c-1.4604,1.7465-3.1077,3.4293-4.9136,5.1465c-0.4781,0.4546-0.4781,0.4546-0.5464,0.5196
						c2.549,2.5439,2.549,2.5439,2.7539,2.349c0.2049-0.1948,0.2049-0.1948,0.2732-0.2598l-1.2404-1.3044l-1.3153-1.2288
						c-2.1328,2.2831-7.2647,3.2089-10.6418,1.6807l-0.5882-0.2662c-4.2023-1.9017-5.957-6.7866-3.9233-10.9305L14.9311,2.9007
						C15.7972,1.1359,18.2189-0.4,20.1105-0.4V-4C16.8345-4,13.1656-1.6731,11.6993,1.3147z"/>
					<g id="airbnb-right">
						<path id="airbnb-path-4" fill="#FFFFFF" d="M20.0514-0.4h0.1682c2.0168,0,4.5233,1.5468,5.3943,3.3214l15.9435,32.487
							c2.0423,4.1614,0.2417,9.0878-4.0474,11.0287l-0.3325,0.1505c-3.4313,1.5528-8.6391,0.6372-10.7568-1.6289l-1.3151,1.229
							l-1.2404,1.3044c0.0683,0.0649,0.0683,0.0649,0.2732,0.2598c0.2049,0.1948,0.2049,0.1948,0.2732,0.2598
							c2.4124-2.6738,2.4124-2.6738,1.9343-3.1284c-1.8059-1.7172-3.4532-3.4-4.9136-5.1465
							c-2.0792-2.4865-4.4852-5.7771-4.9973-6.682c-0.7553-1.3348-1.2995-2.6079-1.6669-3.7717
							c-0.1256-0.398-0.22-0.7507-0.2873-1.0521c-0.0371-0.1659-0.0558-0.2683-0.0606-0.301l-0.0182-0.1244l-0.0353-0.1206
							c-1.3252-4.5305,1.31-8.0746,5.8805-8.0746v-3.6c-6.9784,0-11.3331,5.8566-9.3357,12.6853l-0.0535-0.245
							c0.0581,0.3976,0.2045,1.0527,0.4771,1.9161c0.4408,1.3965,1.0837,2.9004,1.9667,4.4609
							c0.638,1.1275,3.1619,4.5792,5.3688,7.2184c1.5691,1.8765,3.2969,3.6415,5.1946,5.446
							c0.4781,0.4546,0.4781,0.4546,0.5464,0.5196c2.4124-2.6738,2.4124-2.6738,2.2075-2.8686
							c-0.2049-0.1948-0.2049-0.1948-0.2732-0.2598l-2.5555,2.5334c3.1949,3.4188,10.0635,4.6264,14.8713,2.4507l0.3325-0.1505
							c6.1323-2.7751,8.7366-9.9005,5.795-15.8946L28.8456,1.3353C27.367-1.6775,23.6035-4,20.2196-4h-0.1682V-0.4L20.0514-0.4z"/>
					</g>
				</g>
			</g>
		</g>
	</g>
</g>
</svg>
