<?xml version="1.0" encoding="utf-8"?>
<!-- Generator: Adobe Illustrator 21.1.0, SVG Export Plug-In . SVG Version: 6.00 Build 0)  -->
<svg version="1.1" id="Amazon" xmlns="http://www.w3.org/2000/svg" xmlns:xlink="http://www.w3.org/1999/xlink" x="0px" y="0px"
	 viewBox="0 0 72 72" enable-background="new 0 0 72 72" xml:space="preserve">
<g>
	<rect fill="#FFC114" width="72" height="72"/>
	<g>
		<path fill="#FFFFFF" d="M13.9716,48.939c5.7042,4.9534,11.9532,9.558,20.3585,9.561c0.1641,0,0.328-0.003,0.498-0.0059
			c5.3468-0.1231,11.3936-1.9287,16.0869-4.8772l0.0264-0.0176c0.6153-0.3693,1.2304-0.7855,1.8077-1.2516
			c0.3633-0.2667,0.6093-0.683,0.6093-1.1168c-0.0145-0.7737-0.6708-1.2954-1.3769-1.2954
			c-0.2228-0.003-0.4512,0.0498-0.6679,0.1524c-0.2403,0.0967-0.4893,0.2052-0.7179,0.3048L50.25,50.5364l-0.4425,0.1788v0.003
			c-4.8281,1.958-9.8994,3.1068-14.5928,3.2094c-0.1728,0.0058-0.3456,0.0058-0.5155,0.0058
			c-7.3799,0.003-13.4034-3.4233-19.4766-6.7969c-0.2139-0.1115-0.4306-0.1701-0.6416-0.1701c-0.2754,0-0.5538,0.1026-0.7588,0.2931
			c-0.2051,0.1935-0.3252,0.4719-0.3222,0.7563C13.5,48.3851,13.6962,48.7221,13.9716,48.939z"/>
		<path fill="#FFFFFF" d="M58.4911,47.1979c-0.0176-0.4689-0.1171-0.8265-0.3135-1.1226l-0.0176-0.0293l-0.0234-0.0293
			c-0.1992-0.217-0.3897-0.2991-0.5978-0.3899c-0.6152-0.2374-1.5117-0.3634-2.5897-0.3664c-0.7764,0-1.6348,0.0733-2.4931,0.2608
			l-0.003-0.0556l-0.8643,0.2872l-0.0145,0.0087l-0.4893,0.1584v0.0204c-0.5742,0.2375-1.0957,0.5364-1.5791,0.8853
			c-0.3018,0.2286-0.5538,0.5245-0.5683,0.9819c-0.0059,0.249,0.12,0.5362,0.331,0.7063c0.2079,0.1699,0.4512,0.2256,0.665,0.2256
			c0.0528,0,0.0996-0.0028,0.1435-0.0087l0.0381-0.003l0.0352-0.0059c0.4218-0.0909,1.04-0.1495,1.7607-0.252
			c0.6182-0.0675,1.2744-0.1203,1.8428-0.1203c0.4043,0,0.7647,0.0264,1.0137,0.0822c0.126,0.0262,0.2168,0.0585,0.2696,0.0849
			c0.0176,0.0059,0.0323,0.0117,0.0381,0.0176c0.0117,0.0352,0.0262,0.1231,0.0234,0.2491
			c0.0089,0.4749-0.1964,1.3601-0.4717,2.2218c-0.2694,0.8646-0.6006,1.7292-0.8173,2.3037
			c-0.0527,0.132-0.0821,0.2785-0.0821,0.4368c-0.0058,0.2316,0.0879,0.51,0.2901,0.6975c0.1934,0.1847,0.4454,0.2608,0.6591,0.2608
			h0.0089c0.3193-0.0059,0.5889-0.1319,0.8232-0.3135c2.1974-1.9785,2.9591-5.1323,2.9913-6.9056l-0.0089-0.2842V47.1979z"/>
		<path fill="#FFFFFF" d="M38.4081,26.0184c-1.292,0.0968-2.7831,0.1965-4.2714,0.3927c-2.2852,0.302-4.5674,0.6976-6.4542,1.5945
			c-3.6738,1.489-6.1581,4.6662-6.1581,9.3353c0,5.8621,3.7734,8.8429,8.5429,8.8429c1.5879,0,2.8799-0.2022,4.0693-0.4953
			c1.8895-0.5979,3.4746-1.6882,5.3643-3.6784c1.0897,1.4889,1.3885,2.1866,3.2752,3.7752
			c0.4952,0.1964,0.9933,0.1964,1.3887-0.0968c1.1953-0.9966,3.2784-2.7845,4.3681-3.778c0.501-0.3957,0.3985-0.9936,0.0996-1.486
			c-1.0897-1.3923-2.1825-2.5851-2.1825-5.27v-8.9396c0-3.7753,0.2988-7.2543-2.4814-9.8337
			C41.6865,14.2972,38.1093,13.5,35.329,13.5h-1.1923c-5.0625,0.2961-10.4268,2.4826-11.6192,8.7433
			c-0.1992,0.7943,0.3984,1.0902,0.7968,1.1898l5.5577,0.6947c0.5977-0.0996,0.8965-0.5979,0.9931-1.0902
			c0.4981-2.1867,2.2852-3.2799,4.2715-3.4792h0.3984c1.1924,0,2.4814,0.4983,3.1758,1.4921
			c0.7939,1.1929,0.6972,2.7815,0.6972,4.1737V26.0184z M37.3153,37.8393c-0.6943,1.3863-1.8867,2.2803-3.1786,2.5851
			c-0.1992,0-0.4952,0.0967-0.797,0.0967c-2.1825,0-3.4746-1.6912-3.4746-4.1709c0-3.183,1.8897-4.6721,4.2715-5.3667
			c1.292-0.2961,2.7803-0.3986,4.2714-0.3986v1.1928C38.4081,34.0639,38.5048,35.852,37.3153,37.8393z"/>
	</g>
</g>
</svg>
