<?xml version="1.0" encoding="utf-8"?>
<!-- Generator: Adobe Illustrator 21.1.0, SVG Export Plug-In . SVG Version: 6.00 Build 0)  -->
<svg version="1.1" id="Digg" xmlns="http://www.w3.org/2000/svg" xmlns:xlink="http://www.w3.org/1999/xlink" x="0px" y="0px"
	 viewBox="0 0 72 72" enable-background="new 0 0 72 72" xml:space="preserve">
<g>
	<rect fill="#476BA1" width="72" height="72"/>
	<g>
		<path fill="#FFFFFF" d="M24.6709,22.5h-4.4004v6.2801H13.5v14.3798h11.1709V22.5z M20.2705,39.2952h-2.2939v-6.5348h2.2939
			V39.2952z"/>
		<path fill="#FFFFFF" d="M45.0088,49.5V28.8386H33.8379v14.3783h6.7764v2.2488h-6.8526V49.5h9.3048H45.0088z M40.6143,39.2396
			h-2.2968v-6.5378h2.2968V39.2396z"/>
		<path fill="#FFFFFF" d="M47.332,43.2168h6.7676v2.2488H47.253V49.5h9.3046H58.5V28.8386H47.332V43.2168z M51.8115,32.7018h2.2881
			v6.5378h-2.2881V32.7018z"/>
		<rect x="26.9385" y="28.7523" fill="#FFFFFF" width="4.5556" height="14.4645"/>
		<rect x="26.9385" y="22.7532" fill="#FFFFFF" width="4.5556" height="3.9232"/>
	</g>
</g>
</svg>
