<?xml version="1.0" encoding="utf-8"?>
<!-- Generator: Adobe Illustrator 21.1.0, SVG Export Plug-In . SVG Version: 6.00 Build 0)  -->
<svg version="1.1" id="Foursquare" xmlns="http://www.w3.org/2000/svg" xmlns:xlink="http://www.w3.org/1999/xlink" x="0px" y="0px"
	 viewBox="0 0 70.0978 71.3199" enable-background="new 0 0 70.0978 71.3199" xml:space="preserve">
<g>
	<rect fill="#FA4778" width="70.0978" height="71.3199"/>
	<path id="foursquare-path22" inkscape:connector-curvature="0" fill="#FFFFFF" d="M53.8236,13.5842l-1.679,8.2487
		c-0.1919,0.8786-1.0074,1.6595-2.0149,1.6595H35.546c-1.6311,0-2.9743,1.3667-2.9743,3.0262v1.8059
		c0,1.6595,1.3432,3.0262,2.9743,3.0262h12.329c1.1513,0,2.1108,1.1226,1.8709,2.3428c-0.2399,1.269-1.5351,7.7118-1.679,8.3952
		c-0.096,0.7321-0.8635,1.6595-2.0149,1.6595H35.9778c-2.1108,0.0488-2.5426,0.0976-3.7898,1.6595
		c-1.2473,1.5619-12.281,15.6189-12.281,15.6189c-0.096,0.1464-0.1919,0.0976-0.1919-0.0488v-47.784
		c0-1.1226,0.9115-2.05,2.0149-2.05h30.2708C53.0561,11.1437,54.1115,12.2175,53.8236,13.5842"/>
</g>
</svg>
