<?xml version="1.0" encoding="utf-8"?>
<!-- Generator: Adobe Illustrator 21.1.0, SVG Export Plug-In . SVG Version: 6.00 Build 0)  -->
<svg version="1.1" id="GoogleDrive" xmlns="http://www.w3.org/2000/svg" xmlns:xlink="http://www.w3.org/1999/xlink" x="0px"
	 y="0px" viewBox="0 0 72 72" enable-background="new 0 0 72 72" xml:space="preserve">
<g>
	<rect fill="#0078E6" width="72" height="72"/>
	<g>
		<polygon fill="#FFFFFF" points="29.077,45 22.8575,54.9506 22.4883,55.5 23.2295,55.5 51.6591,55.5 51.9111,55.5 52.0341,55.3168 
			58.5,45 		"/>
		<polygon fill="#FFFFFF" points="43.916,16.7139 43.79,16.5 43.541,16.5028 31.2627,16.5492 30.5214,16.5549 30.8906,17.1879 
			45.1083,41.4787 45.2343,41.6926 45.4833,41.6926 57.7587,41.6406 58.5,41.6376 58.1278,41.0047 		"/>
		<polygon fill="#FFFFFF" points="34.8954,29.128 34.7665,28.9143 28.5849,18.451 28.2099,17.8209 27.8407,18.4539 13.626,42.7448 
			13.5,42.9586 13.6288,43.1697 19.8105,53.6357 20.1825,54.2688 20.5546,53.6357 34.7696,29.3419 		"/>
	</g>
</g>
</svg>
