<?xml version="1.0" encoding="utf-8"?>
<!-- Generator: Adobe Illustrator 21.1.0, SVG Export Plug-In . SVG Version: 6.00 Build 0)  -->
<svg version="1.1" id="Hi5" xmlns="http://www.w3.org/2000/svg" xmlns:xlink="http://www.w3.org/1999/xlink" x="0px" y="0px"
	 viewBox="0 0 72 72" enable-background="new 0 0 72 72" xml:space="preserve">
<g>
	<rect fill="#FFA814" width="72" height="72"/>
	<g>
		<path fill="#FFFFFF" d="M28.023,37.0758c0.6679-3.9137,0.9682-7.0755-2.8389-4.6713s-5.3438,4.26-5.3438,4.26
			s-1.3008,0.5574-0.9682-0.8541c0.3339-1.4115,2.2704-12.4714,2.4375-14.2911c0.1669-1.8198,0.3544-1.8198-0.2901-1.9584
			c-0.6446-0.1369-1.0781,0-1.0781,0s-2.1036,0.1718-2.4713,3.7451c-0.3676,3.57-3.7398,23.798-3.7398,23.798
			s-0.8687,2.6768,0.7677,2.7476c1.6362,0.0678,2.6045,0.687,4.1073-4.9802c1.503-5.667,3.4058-8.7912,5.143-8.7912
			c1.736,0,1.3008,1.9252,0.8351,4.7391c-0.4688,2.8169-2.1049,8.3454-1.6041,9.3758c0.501,1.0305,0.3999,1.0981,2.3043,1.0981
			c1.9042,0,3.7396-0.3433,3.1392-2.0607C27.8223,47.515,27.3549,40.991,28.023,37.0758z"/>
		<path fill="#FFFFFF" d="M36.4897,31.344c-0.816-0.2561-1.6334,0.006-1.6334,0.006s-0.7147-0.2109-1.4795,1.678
			c-0.7647,1.8891-2.5005,9.4994-2.4492,12.7533c0.0498,3.2537,0.0498,4.4604,1.0209,4.1469
			c0.9697-0.3162,3.8775-0.2109,3.5201-3.5157c-0.3559-3.3066,0.2051-7.9253,0.7149-10.6022
			C36.6948,33.135,37.3056,31.5984,36.4897,31.344z"/>
		<path fill="#FFFFFF" d="M53.2299,30.3512c-2.2455-0.0527-5.7685,1.5742-6.7368,2.0473c-0.9697,0.4729-3.4203,1.2864-2.5517-1.1689
			c0.8672-2.451,2.2968-5.1805,2.2968-5.1805s0.3046-0.9445,2.5005-1.05c2.1943-0.1054,7.3476,1.4701,8.4199,0.2109
			c1.0722-1.2594,0.7661-2.4147,0.8174-3.9347c0.0498-1.5245,0-1.761-0.7675-1.7745c-0.7647-0.0121-5.6133,0.9339-7.5513,0.9339
			c-1.9408,0-4.0327-0.1597-4.8486,1.889c-0.816,2.0457-4.44,12.0693-4.44,12.0693s-0.3574,3.2538,2.4507,1.7867
			c2.8051-1.4718,9.8481-3.5703,10.1542,1.5198c0.3062,5.0901-1.7856,12.2289-7.3491,12.018
			c-5.562-0.2093-4.4911-2.2566-3.5727-4.0944c0.9184-1.8362,0.6138-3.1467-1.0196-3.198c-1.6334-0.0543-4.7973,1.9916-3.063,5.4035
			c1.7358,3.4119,3.2168,4.6186,8.2178,4.6713c5.001,0.0512,12.0424-6.2982,12.2988-14.4312
			C58.7407,29.9338,55.4755,30.4055,53.2299,30.3512z"/>
		<path fill="#FFFFFF" d="M39.5513,25.6859c-0.3077-0.7893-1.5424-0.2801-2.1006-0.7213c0.0074,0.0073-0.7338-2.1061-1.3989-2.0157
			c-0.4512,0.0632-0.5361,1.0485-0.8409,1.4417c-0.5727,0.7381-2.3657,0.2847-2.5194,1.2954
			c-0.0484,0.3195,0.8687,1.0908,0.9799,1.2941c0.4571,0.8361-0.5508,1.8619,0,2.5926c0.3633,0.4804,1.5424-0.4596,2.2397-0.4324
			c0.1465,0.0045,0.2754,0.0257,0.3912,0.0528c0.5947,0.3162,1.5087,1.0485,1.8163,0.7337
			c0.3941-0.3992,0.0162-1.4116-0.0498-1.9886C38.5479,26.8791,39.8178,26.3759,39.5513,25.6859z"/>
	</g>
</g>
</svg>
