<?xml version="1.0" encoding="utf-8"?>
<!-- Generator: Adobe Illustrator 21.1.0, SVG Export Plug-In . SVG Version: 6.00 Build 0)  -->
<svg version="1.1" id="Instagram" xmlns="http://www.w3.org/2000/svg" xmlns:xlink="http://www.w3.org/1999/xlink" x="0px" y="0px"
	 viewBox="0 0 72 72" enable-background="new 0 0 72 72" xml:space="preserve">
<g>
	<rect fill="#2D80A6" width="72" height="72"/>
	<g>
		<path fill="#FFFFFF" d="M49.8018,13.5H22.1954c-4.7959,0-8.6954,3.8994-8.6954,8.6954v9.1875v18.4218
			c0,4.796,3.8994,8.6954,8.6954,8.6954h27.6064c4.796,0,8.6982-3.8994,8.6982-8.6954V31.3829v-9.1875
			C58.5,17.3994,54.5978,13.5,49.8018,13.5z M52.298,18.6885l0.9931-0.0058v0.9932v6.6328l-7.5996,0.0263l-0.0264-7.6259
			L52.298,18.6885z M29.5782,31.3829c1.4414-1.9952,3.7792-3.3018,6.4218-3.3018s4.9804,1.3066,6.422,3.3018
			c0.9375,1.3008,1.5,2.8946,1.5,4.6171c0,4.3653-3.5567,7.9189-7.922,7.9189c-4.3682,0-7.9218-3.5536-7.9218-7.9189
			C28.0782,34.2774,28.6407,32.6837,29.5782,31.3829z M54.1171,49.8046c0,2.379-1.9365,4.3125-4.3153,4.3125H22.1954
			c-2.3789,0-4.3125-1.9335-4.3125-4.3125V31.3829h6.7177c-0.58,1.4267-0.9052,2.9853-0.9052,4.6171
			c0,6.7851,5.5195,12.3046,12.3046,12.3046c6.7853,0,12.3046-5.5196,12.3046-12.3046c0-1.6319-0.328-3.1905-0.9081-4.6171h6.7206
			V49.8046z"/>
	</g>
</g>
</svg>
