<?xml version="1.0" encoding="utf-8"?>
<!-- Generator: Adobe Illustrator 21.1.0, SVG Export Plug-In . SVG Version: 6.00 Build 0)  -->
<svg version="1.1" id="Kik" xmlns="http://www.w3.org/2000/svg" xmlns:xlink="http://www.w3.org/1999/xlink" x="0px" y="0px"
	 viewBox="0 0 72.1476 72.1476" enable-background="new 0 0 72.1476 72.1476" xml:space="preserve">
<g>
	<rect fill="#5DCD11" width="72.1476" height="72.1476"/>
	<g id="kik-g3517" transform="matrix(11.533184,0,0,11.533184,93.497293,-5475.1161)">
		<path id="kik-fill-1" inkscape:connector-curvature="0" fill="#FFFFFF" d="M-3.1841,477.6169
			c0.2859,0,0.5176,0.2314,0.5176,0.5169c0,0.2855-0.2317,0.5169-0.5176,0.5169c-0.2859,0-0.5176-0.2314-0.5176-0.5169
			C-3.7016,477.8482-3.4699,477.6169-3.1841,477.6169"/>
		<path id="kik-fill-8" inkscape:connector-curvature="0" fill="#FFFFFF" d="M-4.8665,478.0931l0.592-0.5844
			c0.1915-0.189,0.1873-0.5-0.0092-0.6838l0,0c-0.1846-0.1726-0.4719-0.1691-0.6523,0.008l-0.8775,0.862l-0.0036-1.7449
			c-0.0005-0.254-0.1973-0.4702-0.4504-0.4796c-0.2662-0.0099-0.4857,0.2036-0.4857,0.4691l0,3.5726
			c0,0.258,0.2085,0.4672,0.4658,0.4672l0,0c0.2573,0,0.4658-0.2091,0.4658-0.4672l0-0.5833l0.2361-0.2197l0.7981,1.0775
			c0.1534,0.2072,0.4445,0.2519,0.6528,0.1003l0,0c0.2111-0.1537,0.2569-0.4505,0.102-0.661L-4.8665,478.0931L-4.8665,478.0931z"/>
	</g>
</g>
</svg>
