<?xml version="1.0" encoding="utf-8"?>
<!-- Generator: Adobe Illustrator 21.1.0, SVG Export Plug-In . SVG Version: 6.00 Build 0)  -->
<svg version="1.1" id="Line" xmlns="http://www.w3.org/2000/svg" xmlns:xlink="http://www.w3.org/1999/xlink" x="0px" y="0px"
	 viewBox="0 0 72 72" enable-background="new 0 0 72 72" xml:space="preserve">
<rect fill="#3ACE01" width="72" height="72"/>
<path fill="#FFFFFF" d="M35.93,11.9267c14.5887,0,26.4152,9.4701,26.4152,21.1521c0,4.0805-1.4439,7.8903-3.9436,11.1214
	c-0.1237,0.1839-0.2853,0.3871-0.4891,0.6116l-0.0154,0.0168c-0.8539,1.0216-1.8154,1.9807-2.8727,2.866
	c-7.3048,6.7518-19.3283,14.7904-20.9151,13.5502c-1.3795-1.078,2.2721-6.3508-1.9408-7.2283
	c-0.2939-0.0337-0.587-0.07-0.8777-0.1111l-0.0055-0.0004v-0.0004C18.9116,52.1466,9.5151,43.4915,9.5151,33.0787
	C9.5147,21.3968,21.3413,11.9267,35.93,11.9267L35.93,11.9267z"/>
<path fill="#3ACE01" d="M20.6039,39.8256h5.3275c0.7578,0,1.3776-0.62,1.3776-1.3778v-0.1149c0-0.7578-0.6198-1.3776-1.3776-1.3776
	h-3.835V28.23c0-0.7578-0.6198-1.3776-1.3776-1.3776h-0.1149c-0.7578,0-1.3776,0.6198-1.3776,1.3776v10.2176
	C19.2263,39.2056,19.8461,39.8256,20.6039,39.8256z M53.6159,33.4211v-0.1149c0-0.7578-0.62-1.3776-1.3778-1.3776h-3.8348v-2.1814
	h3.8348c0.7578,0,1.3778-0.6198,1.3778-1.3776v-0.1149c0-0.7578-0.62-1.3776-1.3778-1.3776h-5.3275
	c-0.7578,0-1.3776,0.6198-1.3776,1.3776v10.2176c0,0.7578,0.6198,1.3778,1.3776,1.3778h5.3275c0.7578,0,1.3778-0.62,1.3778-1.3778
	v-0.1149c0-0.7578-0.62-1.3776-1.3778-1.3776h-3.8348v-2.1814h3.8348C52.9959,34.7987,53.6159,34.1787,53.6159,33.4211
	L53.6159,33.4211z M43.3705,39.4149l0.0004-0.0006c0.2549-0.257,0.3981-0.6043,0.3983-0.9663V28.2304
	c0-0.7578-0.6198-1.3776-1.3778-1.3776h-0.1149c-0.7578,0-1.3776,0.6198-1.3776,1.3776v5.9978l-4.9795-6.6788
	c-0.2379-0.4153-0.6858-0.6966-1.1962-0.6966h-0.1149c-0.7578,0-1.3778,0.6198-1.3778,1.3776V38.448
	c0,0.7578,0.6198,1.3778,1.3778,1.3778h0.1149c0.7578,0,1.3776-0.62,1.3776-1.3778v-6.1101l5.0153,6.8502
	c0.0309,0.048,0.0646,0.0942,0.101,0.138l0.0002,0.0004c0.1378,0.1879,0.3263,0.3168,0.5363,0.3955
	c0.1614,0.0667,0.3379,0.1037,0.5226,0.1037h0.1149c0.2245,0.0001,0.4456-0.0551,0.6436-0.1609
	C43.1727,39.5992,43.2887,39.5146,43.3705,39.4149L43.3705,39.4149z M29.7986,39.8256h0.1149c0.7578,0,1.3776-0.62,1.3776-1.3778
	V28.2302c0-0.7578-0.6198-1.3776-1.3776-1.3776h-0.1149c-0.7578,0-1.3778,0.6198-1.3778,1.3776v10.2176
	C28.4208,39.2056,29.0408,39.8256,29.7986,39.8256L29.7986,39.8256z"/>
</svg>
