<?xml version="1.0" encoding="utf-8"?>
<!-- Generator: Adobe Illustrator 21.1.0, SVG Export Plug-In . SVG Version: 6.00 Build 0)  -->
<svg version="1.1" id="Myspace" xmlns="http://www.w3.org/2000/svg" xmlns:xlink="http://www.w3.org/1999/xlink" x="0px" y="0px"
	 viewBox="0 0 72 72" enable-background="new 0 0 72 72" xml:space="preserve">
<g>
	<rect fill="#00309C" width="72" height="72"/>
	<g>
		<ellipse fill="#FFFFFF" cx="50.6273" cy="29.5087" rx="7.1616" ry="7.009"/>
		<ellipse fill="#FFFFFF" cx="34.4986" cy="31.5078" rx="6.4453" ry="6.3074"/>
		<ellipse fill="#FFFFFF" cx="19.8722" cy="33.3068" rx="5.8008" ry="5.6743"/>
		<path fill="#FFFFFF" d="M25.6641,49.5c0.3223,0,0.583-0.2561,0.583-0.5668v-2.2077c0-3.2739-2.6982-6.4471-6.375-6.4471
			S13.5,43.4515,13.5,46.7254v2.2077c0,0.3108,0.2578,0.5668,0.5772,0.5668h0.208h11.1767H25.6641z"/>
		<path fill="#FFFFFF" d="M40.9365,49.5c0.3546,0,0.6446-0.2849,0.6446-0.6331v-2.4494c0-3.6409-2.9942-7.1637-7.0839-7.1637
			c-4.0841,0-7.0811,3.5228-7.0811,7.1637v2.4494c0,0.3483,0.2871,0.6331,0.6446,0.6331h0.2285H40.711H40.9365z"/>
		<path fill="#FFFFFF" d="M50.628,38.1141c-4.5411,0-7.8691,3.9142-7.8691,7.9624v2.7213c0,0.3856,0.3194,0.7021,0.7149,0.7021
			h0.2519h13.8018h0.252c0.3954,0,0.7206-0.3165,0.7206-0.7021v-2.7213C58.5,42.0284,55.1689,38.1141,50.628,38.1141z"/>
	</g>
</g>
</svg>
