<?xml version="1.0" encoding="utf-8"?>
<!-- Generator: Adobe Illustrator 21.1.0, SVG Export Plug-In . SVG Version: 6.00 Build 0)  -->
<svg version="1.1" id="NYTimes" xmlns="http://www.w3.org/2000/svg" xmlns:xlink="http://www.w3.org/1999/xlink" x="0px" y="0px"
	 viewBox="0 0 72 72" enable-background="new 0 0 72 72" xml:space="preserve">
<g id="nytimes-page-1">
	<g id="nytimes-icons" transform="translate(-3090.000000, -50.000000)">
		<g id="nytimes-news-apps" transform="translate(2330.000000, 50.000000)">
			<g id="nytimes-nytimes" transform="translate(760.000000, 0.000000)">
				<rect fill="#FAF5FD" width="72" height="72"/>
				<g id="nytimes-icon" transform="translate(29.000000, 18.000000)">
					<path id="nytimes-shape" fill="#1900FF" d="M17.2,8.2143v5.8505L22,18.3l-4.8,4.2353v8.8871
						c6.0367-2.8679,8.1544-9.2959,8.1544-9.2959c0,3.5447-0.2886,6.2674-0.2886,6.2674S23.7441,40.8501,7.7998,40.8501
						c-14.9889,0-18.5066-13.9807-18.5066-13.9807s-2.2504-6.6952,2.2989-12.9424c1.0122-1.3902,2.2365-2.58,3.5283-3.5896
						c-0.2051-0.0386-4.9472-0.9971-5.2888-7.1107c0,0-0.4288-6.7209,6.9479-7.7993c0,0,4.4923-0.6893,12.4364,2.3738
						c7.9441,3.0634,9.4971,0,9.4971,0s1.01-3.3462-2.0364-3.5761c0,0-1.8892-0.2353-3.2638,0c0,0,0.217-0.9454,3.6533-0.9454
						c3.4366,0,6.3579,2.3089,7.3638,5.7125c1.2318,4.2863-2.7196,7.48-2.7196,7.48S20.3343,7.9327,17.2,8.2143L17.2,8.2143z"/>
				</g>
			</g>
		</g>
	</g>
</g>
</svg>
