<?xml version="1.0" encoding="utf-8"?>
<!-- Generator: Adobe Illustrator 21.1.0, SVG Export Plug-In . SVG Version: 6.00 Build 0)  -->
<svg version="1.1" id="Pandora" xmlns="http://www.w3.org/2000/svg" xmlns:xlink="http://www.w3.org/1999/xlink" x="0px" y="0px"
	 viewBox="0 0 72 72" enable-background="new 0 0 72 72" xml:space="preserve">
<g id="pandora-pandora" transform="translate(152.000000, 0.000000)">
	<rect x="-152" fill="#C8D4D8" width="72" height="72"/>
	
		<linearGradient id="pandora-icon_1_" gradientUnits="userSpaceOnUse" x1="-458.0924" y1="98.9187" x2="-458.0924" y2="98.3187" gradientTransform="matrix(53 0 0 -64 24165 6347)">
		<stop  offset="0" style="stop-color:#0E6BA1"/>
		<stop  offset="1" style="stop-color:#154779"/>
	</linearGradient>
	<path id="pandora-icon" fill="url(#pandora-icon_1_)" d="M-128.0011,49.8764c0-0.0764,0-0.0764,0-0.0764V21
		c-1.7989-0.6-1.7989-2.1-1.7989-3v-1.8h18.2886c5.0968,0,8.6946,2.7,8.6946,2.7c7.1955,5.4,4.1974,14.4,4.1974,14.4
		c-2.4261,9.6188-12.892,9.3-12.892,9.3h-9.8938v7.2c0,0.0252,0,0.0503,0,0.0753c1.038,0.2663,1.8052,1.208,1.8052,2.3247v2.4h-10.2
		v-2.4C-129.8,51.0828-129.0382,50.1438-128.0011,49.8764z M-121.4052,36.0323h8.0949c0,0,7.7951,0,7.7951-6.9323
		c0,0,0.2998-6.3-7.7951-6.3h-7.7951h-0.2998V36.0323z"/>
</g>
</svg>
