<?xml version="1.0" encoding="utf-8"?>
<!-- Generator: Adobe Illustrator 21.1.0, SVG Export Plug-In . SVG Version: 6.00 Build 0)  -->
<svg version="1.1" id="Udemy" xmlns="http://www.w3.org/2000/svg" xmlns:xlink="http://www.w3.org/1999/xlink" x="0px" y="0px"
	 viewBox="0 0 64 64" enable-background="new 0 0 64 64" xml:space="preserve">
<g>
	<rect fill="#EA5252" width="64" height="64"/>
	<path id="udemy-path4" inkscape:connector-curvature="0" fill="#FFFFFF" d="M54.2943,35.6302
		c-0.1531-0.1253-0.3349-0.2108-0.529-0.2486c-1.1422,1.1383-2.5359,2.3375-3.7734,3.1436
		c-0.571,0.3794-1.2894,0.5692-1.7648,0.5692c-1.0946,0-1.5702-1.0437-1.7131-2.7027c-0.1903-2.2284-0.319-4.8976-0.319-9.0229
		c0-4.231-0.9603-7.1073-3.518-7.3329c-0.1082-0.0097-0.2175-0.0162-0.3314-0.0162c-1.5705,0-2.3319,0.8059-3.3309,2.8449
		c-0.8566,1.7542-2.1888,4.3144-4.6629,9.1507c-2.1412,4.1729-4.5202,7.8712-6.5667,10.4317
		c-0.5698,0.7096-1.0202,1.1972-1.4435,1.4747c-0.2829,0.1862-0.5543,0.2793-0.8401,0.2793c-0.8077,0-1.3971-0.6817-1.5941-2.2686
		c-0.0469-0.3771-0.0715-0.8054-0.0715-1.2876c0-3.2714,1.2375-8.5819,3.3783-16.4056c1.5702-5.6894,0.9044-9.5769-2.5222-9.5769
		h-0.0383l-0.0023,0.0005c-0.7759,0.009-1.419,0.2901-2.0389,0.7777c-0.61,0.4804-1.2206,1.5179-1.7905,2.913
		c-0.6424,1.5711-4.5493,9.4076-10.7673,13.4446c-0.0733,1.5348,0.7957,3.069,2.5562,3.2354
		c1.6027,0.1519,2.7408-0.5236,4.206-1.5078c-0.1965,0.8761-0.39,1.7528-0.5807,2.6301c-0.1118,0.5121-0.1826,0.8419-0.2038,0.9332
		c-0.1933,0.8792-0.3412,1.7679-0.4429,2.6624c-0.8769,7.837,2.7555,11.7039,7.0092,11.7039c0.711,0,1.4154-0.0845,2.1148-0.2624
		c4.6868-1.1884,9.1989-6.5645,14.5394-18.9402c-0.0811,1.3462-0.0895,2.6035-0.0311,3.7703
		c0.3516,7.0929,3.1571,9.221,7.1208,9.221c2.9978,0,5.8051-1.5644,7.2324-3.5086c1.047-1.375,1.4753-2.8925,1.4753-4.0777
		C55.0503,36.7374,54.7584,36.0031,54.2943,35.6302"/>
</g>
</svg>
