<?xml version="1.0" encoding="utf-8"?>
<!-- Generator: Adobe Illustrator 21.1.0, SVG Export Plug-In . SVG Version: 6.00 Build 0)  -->
<svg version="1.1" id="Vimeo" xmlns="http://www.w3.org/2000/svg" xmlns:xlink="http://www.w3.org/1999/xlink" x="0px" y="0px"
	 viewBox="0 0 72 72" enable-background="new 0 0 72 72" xml:space="preserve">
<g>
	<rect fill="#00B2DE" width="72" height="72"/>
	<g>
		<path fill="#FFFFFF" d="M38.286,41.1794c-1.254,0-2.2207-3.2621-3.6562-8.9655c-1.4855-5.8984-1.4766-16.5196-7.6524-15.3163
			c-5.8242,1.1363-13.4766,10.2138-13.4766,10.2138l1.8252,2.3817c0,0,3.7706-2.9505,5.0274-1.4767
			c1.2569,1.4767,6.0527,19.29,7.6524,22.5766c1.4002,2.8839,5.2528,6.6959,9.4804,3.9721
			c4.2275-2.7222,18.2754-14.6355,20.789-28.7035c2.5137-14.0652-16.9071-11.1202-18.9609,1.1349
			c5.1387-3.0671,7.8839,1.2469,5.253,6.1269C41.9422,38.0003,39.5429,41.1794,38.286,41.1794z"/>
	</g>
</g>
</svg>
