<?xml version="1.0" encoding="utf-8"?>
<!-- Generator: Adobe Illustrator 21.1.0, SVG Export Plug-In . SVG Version: 6.00 Build 0)  -->
<svg version="1.1" id="AppStore" xmlns="http://www.w3.org/2000/svg" xmlns:xlink="http://www.w3.org/1999/xlink" x="0px" y="0px"
	 viewBox="0 0 72 72" enable-background="new 0 0 72 72" xml:space="preserve">
<g>
	<rect fill="#00B4F0" width="72" height="72"/>
	<g>
		<path fill="#FFFFFF" d="M31.3008,26.0014l-4.1572,7.2321l-4.576,7.9701l-3.8234,6.6523c-0.2871,0.4947-0.1113,1.1331,0.3867,1.417
			l2.7071,1.5578c0.4981,0.284,1.1367,0.1112,1.4238-0.3835l5.3086-9.2436l3.4337-5.9762l3.8115-6.6348
			c0.2841-0.4947,0.1113-1.1329-0.3839-1.4229l-2.7129-1.5489C32.2266,25.334,31.585,25.5066,31.3008,26.0014z"/>
		<path fill="#FFFFFF" d="M57.5596,33.2336h-9.1494c1.0752,2.0173,4.0283,6.9912,4.0956,7.2664h5.0538
			c0.5186,0,0.9404-0.9818,0.9404-1.5v-4.8264C58.5,33.6553,58.0782,33.2336,57.5596,33.2336z"/>
		<path fill="#FFFFFF" d="M35.3203,33.2336L30.7413,40.5h12.4218c-0.8994-1.7802-2.0947-3.621-3.7002-7.2664H35.3203z"/>
		<path fill="#FFFFFF" d="M14.4433,40.5h5.9532l4.5791-7.2664H14.4433c-0.5214,0-0.9433,0.4218-0.9433,0.94V39
			C13.5,39.5182,13.9219,40.5,14.4433,40.5z"/>
		<path fill="#FFFFFF" d="M17.4961,55.5126l3.501-2.3863c0.4716-0.319,0.4541-0.8198-0.0439-1.1039l-2.7101-1.5547
			c-0.495-0.287-0.955-0.0527-1.0194,0.5154l-0.4687,4.0786C16.6875,55.6297,17.0215,55.8318,17.4961,55.5126z"/>
		<path fill="#FFFFFF" d="M50.4903,41.2037c-0.2548-0.4656-0.8848-1.6777-1.7139-3.25c-0.0089-0.0206-0.0176-0.0411-0.0293-0.0615
			c-0.0615-0.1202-0.129-0.243-0.1934-0.3661c-0.0469-0.0906-0.0938-0.1815-0.1435-0.2723
			c-0.0411-0.0789-0.0821-0.1581-0.1231-0.2372c-0.0732-0.1375-0.1464-0.2782-0.2226-0.4216
			c-0.0264-0.0439-0.047-0.0879-0.0704-0.1317c-0.0849-0.1611-0.1699-0.322-0.2548-0.4861
			c-0.0264-0.0466-0.0528-0.0936-0.079-0.1404c-1.9072-3.6073-4.3067-8.0492-5.7832-10.3826
			c-2.5928-4.0933-6.0498-10.9156-7.0137-10.4295c-1.3535,0.6735,2.8301,9.3315,4.2188,12.5844
			c1.3829,3.2529,6.7911,15.7203,7.875,16.265c1.084,0.5416,1.503,0.24,2.2266-0.0587c0.7266-0.3015,2.0244-1.3029,1.3593-2.5122
			C50.5284,41.2769,50.5078,41.2388,50.4903,41.2037z"/>
		<path fill="#FFFFFF" d="M53.6338,47.73l-1.2891-2.4771c-0.2929-0.5592-0.9814-0.7875-1.5292-0.5094l-1.5557,0.8023
			c-0.548,0.281-0.7207,0.9456-0.3838,1.4816l1.6318,2.5765c0.3399,0.533,1.0518,0.7086,1.579,0.3894l1.1105-0.6675
			C53.7304,49.0066,53.9268,48.2893,53.6338,47.73z"/>
		<path fill="#FFFFFF" d="M53.2354,51.3138c-0.4072,0.3895-1.3712,1.2327-0.2022,2.8754c1.166,1.6455,3.7705,1.7187,4.1133,2.8108
			C57.1465,57,57.9669,48.6465,53.2354,51.3138z"/>
	</g>
</g>
</svg>
