<?xml version="1.0" encoding="utf-8"?>
<!-- Generator: Adobe Illustrator 21.1.0, SVG Export Plug-In . SVG Version: 6.00 Build 0)  -->
<svg version="1.1" id="LastFm" xmlns="http://www.w3.org/2000/svg" xmlns:xlink="http://www.w3.org/1999/xlink" x="0px" y="0px"
	 viewBox="0 0 72 72" enable-background="new 0 0 72 72" xml:space="preserve">
<g>
	<rect fill="#FD0016" width="72" height="72"/>
	<g>
		<path fill="#FFFFFF" d="M49.125,45.2635c-3.1202-0.1053-4.0694-1.7561-5.2589-4.4601c-2.0127-4.58-4.3036-9.9282-4.3242-9.9792
			C37.2421,25.5327,32.6835,22.5,27.0351,22.5C19.5702,22.5,13.5,28.5569,13.5,36.0015C13.5,43.4431,19.5702,49.5,27.0351,49.5
			c4.0693,0,7.8839-1.7997,10.4649-4.9392c0.0762-0.0919,0.0937-0.2148,0.0468-0.3228l-1.7051-3.9268
			c-0.0498-0.1096-0.1582-0.1827-0.2782-0.187c-0.1232-0.0058-0.2345,0.0614-0.2901,0.1665
			c-1.6085,3.0708-4.7666,4.9771-8.2383,4.9771c-5.1212,0-9.2871-4.1561-9.2871-9.2663s4.1659-9.265,9.2871-9.265
			c3.7266,0,7.1425,2.206,8.502,5.4988l4.2188,9.5996l0.4863,1.078c1.9101,4.4324,4.7109,6.4191,9.1026,6.4353
			c5.2206,0,9.1553-3.4508,9.1553-8.0232c0-4.5945-2.546-6.317-6.9405-7.7471c-0.3956-0.1287-0.7764-0.2484-1.1426-0.3639
			c-2.8036-0.8779-4.4911-1.4082-4.4911-3.5835c0-1.7618,1.3623-3.0415,3.2432-3.0415c1.4413,0,2.5137,0.5974,3.4774,1.9416
			c0.0909,0.1242,0.2579,0.1693,0.3986,0.0963l2.8301-1.4389c0.0732-0.038,0.1318-0.1066,0.1552-0.1884
			c0.0264-0.0833,0.0147-0.1695-0.0264-0.2454c-1.5147-2.6821-3.6972-3.9869-6.6768-3.9869c-4.5321,0-7.4619,2.7334-7.4619,6.9641
			c0,4.3272,2.833,6.0788,8.0597,7.7924c3.0293,1.008,4.3681,1.5412,4.3681,3.6903C54.2929,43.6287,52.1074,45.3658,49.125,45.2635z
			"/>
	</g>
</g>
</svg>
