<?xml version="1.0" encoding="utf-8"?>
<!-- Generator: Adobe Illustrator 21.1.0, SVG Export Plug-In . SVG Version: 6.00 Build 0)  -->
<svg version="1.1" id="Love" xmlns="http://www.w3.org/2000/svg" xmlns:xlink="http://www.w3.org/1999/xlink" x="0px" y="0px"
	 viewBox="0 0 72 72" enable-background="new 0 0 72 72" xml:space="preserve">
<g>
	<rect fill="#00C1ED" width="72" height="72"/>
	<g>
		<path fill="#FFFFFF" d="M47.199,18.2286c-4.2891-0.159-8.1152,2.1015-10.292,5.6073h-0.0322
			c-0.0704,0.2063-0.2256,0.3546-0.4101,0.3576c-0.1875,0.0015-0.3488-0.1389-0.422-0.3438h-0.0028
			c-1.8429-4.3923-6.0762-7.4306-10.96-7.3481c-6.4892,0.11-11.9472,5.7006-11.5605,12.4602
			c0.7236,12.5993,13.6288,10.8875,11.5986,25.5563c0.0234,0.729,0.0762,1.2639,1.5,0.8206
			c32.9971-10.2685,31.7843-22.6586,31.8692-24.5368C58.7917,24.0331,53.6911,18.4669,47.199,18.2286z"/>
	</g>
</g>
</svg>
