<?xml version="1.0" encoding="utf-8"?>
<!-- Generator: Adobe Illustrator 21.1.0, SVG Export Plug-In . SVG Version: 6.00 Build 0)  -->
<svg version="1.1" id="Messenger" xmlns="http://www.w3.org/2000/svg" xmlns:xlink="http://www.w3.org/1999/xlink" x="0px" y="0px"
	 viewBox="0 0 72 72" enable-background="new 0 0 72 72" xml:space="preserve">
<g>
	<rect fill="#6D2A7D" width="72" height="72"/>
	<path id="messenger-yahoo-messenger" fill="#FFFFFF" d="M36.0004,58.5C48.4275,58.5,58.5,48.426,58.5,36
		c0-12.427-10.0725-22.5-22.4996-22.5C23.5729,13.5,13.5,23.573,13.5,36C13.5,48.426,23.5729,58.5,36.0004,58.5z M41.7435,23.6955
		c1.6185,0,2.931,1.3106,2.931,2.9295c0,1.617-1.3125,2.9284-2.931,2.9284c-1.6175,0-2.9291-1.3114-2.9291-2.9284
		C38.8144,25.0061,40.126,23.6955,41.7435,23.6955z M30.6105,23.6955c1.618,0,2.9305,1.3106,2.9305,2.9295
		c0,1.617-1.3125,2.9284-2.9305,2.9284c-1.6181,0-2.9295-1.3114-2.9295-2.9284C27.6805,25.0061,28.992,23.6955,30.6105,23.6955
		L30.6105,23.6955z M20.1799,33.0695H51.82v5.862h-0.0651c-0.657,8.1321-7.4524,14.5285-15.756,14.5285
		c-8.3019,0-15.0964-6.3965-15.7519-14.529h-0.0671V33.0695L20.1799,33.0695z M49.672,38.3065H21.9495v-3.6075h27.7219v3.6075
		H49.672z"/>
</g>
</svg>
