<?xml version="1.0" encoding="utf-8"?>
<!-- Generator: Adobe Illustrator 21.1.0, SVG Export Plug-In . SVG Version: 6.00 Build 0)  -->
<svg version="1.1" id="Msn" xmlns="http://www.w3.org/2000/svg" xmlns:xlink="http://www.w3.org/1999/xlink" x="0px" y="0px"
	 viewBox="0 0 72 72" enable-background="new 0 0 72 72" xml:space="preserve">
<g>
	<rect fill="#00ABF2" width="72" height="72"/>
	<path id="msn-msn-messenger" fill="#FFFFFF" d="M13.5007,39.9058c0.7455-6.7738,6.5199-9.1698,7.3654-9.4844
		c-1.435-1.1065-2.3539-2.8015-2.3539-4.7014c0-3.3354,2.8294-6.0387,6.321-6.0387c3.4899,0,6.3214,2.7033,6.3214,6.0387
		c0,1.8818-0.9015,3.5626-2.314,4.6708c1.182,0.4065,2.3434,1.0145,3.382,1.8077c-2.7475,1.3391-8.7964,5.1992-9.714,13.5306
		c0,0.0707,0,0.1379,0,0.2061c-5.3145-0.3251-5.8569-1.7296-5.8569-1.7296v-0.0009c-0.3381-0.3198-0.6006-0.7118-0.7605-1.2023
		c-0.7746-0.174-1.2611-0.6283-1.2611-0.6283s-1.189-0.4314-1.128-2.4683H13.5007z M35.659,32.4124
		c-1.254,0.4676-9.8069,4.0172-10.9134,14.0543c-0.0905,3.0177,1.6701,3.6558,1.6701,3.6558v0.0009c0,0,0.7228,0.6723,1.8714,0.9301
		c0.2366,0.7264,0.624,1.3084,1.1261,1.7823v0.0015c0,0,0.843,2.1933,9.3134,2.5984c0.1255,0.0215,0.249,0.041,0.3715,0.0633
		c0.702,0,1.4044,0,2.1065,0c0.264,0,0.5335,0.0019,0.8104,0c0.8081,0,1.6146,0,2.421,0c0.2085-0.037,0.42-0.0711,0.633-0.1049
		c8.704-0.5644,9.6204-3.216,9.6204-3.216v-0.0024c0.2312-0.3315,0.423-0.7015,0.5606-1.1227
		c3.9615-0.7634,3.6484-5.3601,2.4626-8.8911c-1.6481-4.9027-5.8414-8.2806-10.2369-9.7948
		c2.0929-1.6404,3.4284-4.1316,3.4284-6.9195c0-4.9419-4.1934-8.9477-9.366-8.9477c-5.1724,0-9.3658,4.0063-9.3658,8.9477
		c0,2.8152,1.361,5.3244,3.4884,6.965L35.659,32.4124z"/>
</g>
</svg>
