<?xml version="1.0" encoding="utf-8"?>
<!-- Generator: Adobe Illustrator 21.1.0, SVG Export Plug-In . SVG Version: 6.00 Build 0)  -->
<svg version="1.1" id="OK" xmlns="http://www.w3.org/2000/svg" xmlns:xlink="http://www.w3.org/1999/xlink" x="0px" y="0px"
	 viewBox="0 0 72 72" enable-background="new 0 0 72 72" xml:space="preserve">
<g>
	<g>
		<rect width="72" height="72"/>
	</g>
	<g>
		<path fill="#FFFFFF" d="M39.1706,24.319l-2.8978,21.9129c-0.1983,1.3892-0.3173,2.3838-0.3173,2.9374
			c0,1.9069,1.1114,2.8578,3.2945,2.8578c0.5562,0,1.1906-0.0385,1.8658-0.0768c0.7149-0.0411,1.3108-0.159,1.7867-0.3178
			l1.3095-9.6889l3.4148,7.0666c0.2775,0.5562,0.555,1.0742,0.7943,1.4686c0.2379,0.3972,0.4757,0.6767,0.7532,0.9152
			c0.2788,0.2384,0.5958,0.3972,0.9527,0.4768c0.3582,0.1177,0.7943,0.1562,1.311,0.1562c2.1831,0,3.8109-0.2767,4.962-0.833
			c1.1511-0.5152,1.7472-1.3893,1.7472-2.6196c0-0.3178-0.0793-0.6741-0.1586-0.9919c-0.1202-0.3179-0.3186-0.5563-0.5961-0.7535
			c-0.2775,0.0793-0.6357,0.1176-0.9527,0.1561c-0.3568,0.0411-0.6357,0.0411-0.8734,0.0411c-0.2776,0-0.5154-0.0411-0.6357-0.1972
			c-0.1586-0.159-0.3171-0.359-0.4361-0.5563l-3.4938-6.313c0.7544-1.0331,1.3505-1.8661,1.8262-2.4606
			c0.477-0.5966,0.9132-1.0323,1.2302-1.3104c0.3581-0.3178,0.6356-0.4768,0.8734-0.5562c0.2392-0.0788,0.5168-0.1185,0.7943-0.1185
			h1.0319c0.3582,0,0.7547,0.0398,1.1116,0.0788c0.2788-0.2775,0.4772-0.5953,0.6355-0.9918
			c0.1189-0.3576,0.1983-0.8337,0.1983-1.3899c0-0.9132-0.3171-1.6276-0.9527-2.0639c-0.6344-0.4768-1.7867-0.7145-3.4135-0.7145
			c-0.7942,0-1.4694,0.0794-1.9848,0.1979c-0.5564,0.1588-1.1114,0.5165-1.7867,1.1118c-0.6356,0.5953-1.4298,1.5084-2.3415,2.6996
			c-0.9131,1.1906-2.145,2.8573-3.6526,5.0026l2.3813-18.1027c-0.4361-0.3576-0.9925-0.5959-1.6676-0.7947
			c-0.6343-0.1582-1.3493-0.2377-2.0642-0.2377c-1.3098,0-2.2623,0.2774-2.8582,0.7939
			C39.7666,21.6193,39.3688,22.6914,39.1706,24.319L39.1706,24.319z M35.9159,31.5041c0.3171-2.3818,0.9527-7.5427,1.5474-10.004
			c0.3581-0.8733,0.7943-1.5878,1.3902-2.1035c1.5079-1.3502,3.7714-1.5482,5.7167-1.3104c1.27,0.159,2.5794,0.5562,3.6526,1.3104
			c0.7136,0.476,1.1509,1.3098,1.032,2.2229l-1.2715,9.5279c0.9925-1.1515,2.2637-2.3421,3.7714-2.6996
			c2.1037-0.5555,5.5979-0.4363,7.3448,0.8337c1.6268,1.1912,2.1038,3.0962,1.8262,5.0019
			c-0.239,1.6276-1.3902,3.7313-3.2561,3.5724c-0.6739-0.0794-1.3493-0.0383-2.0244-0.0383
			c-0.715,0.5945-1.3889,1.548-1.9452,2.3015l2.5412,4.6061c0.7545-0.159,1.4681-0.3973,2.3812,0.1588
			c1.2713,0.833,1.7867,2.2222,1.7867,3.6908c0,2.1427-1.1114,3.8115-3.0169,4.7239c-1.7865,0.833-4.9224,1.1919-6.9073,0.9535
			c-1.032-0.0794-1.9452-0.4384-2.7394-1.0714c-0.2379-0.1999-0.4772-0.4384-0.7149-0.715
			c-0.6741-0.833-1.1113-1.7865-1.5474-2.6991l-0.2789,1.9838c-0.0398,0.874-0.6343,1.707-1.5076,2.0249
			c-2.3826,0.833-6.5505,0.874-8.4166-0.7535c-0.6343-0.5562-1.1113-1.2304-1.3492-2.066
			c-2.9376,2.5811-6.7885,3.4552-10.5995,3.4552c-4.6846,0-9.4484-1.6688-11.1942-6.3926
			c-1.2315-3.2139-1.0333-7.6611,0.1586-10.9575c1.3492-3.7704,3.9696-6.4302,7.7412-7.9386
			c2.7789-1.1112,6.113-1.3098,9.0507-0.8734C31.5893,28.6065,34.169,29.599,35.9159,31.5041L35.9159,31.5041z M32.8989,48.7719
			c2.2622-2.2605,3.3738-5.3184,3.3738-9.2476c0-1.3509-0.1586-2.6215-0.5155-3.7327c-0.3568-1.1508-0.9132-2.1037-1.7073-2.8976
			c-0.8339-0.8337-1.8661-1.429-3.1358-1.9057c-1.3096-0.4363-2.8585-0.6747-4.7243-0.6747c-1.9848,0-3.7714,0.3171-5.3189,0.9529
			c-1.5488,0.5953-2.8582,1.4686-3.9709,2.5804c-1.0718,1.0714-1.9056,2.4216-2.4606,4.0088
			c-0.5563,1.5482-0.8338,3.2962-0.8338,5.1622c0,3.2552,0.8734,5.598,2.66,7.0255c1.7472,1.3892,4.0887,2.1043,7.066,2.1043
			C27.4598,52.1476,30.6762,50.9968,32.8989,48.7719L32.8989,48.7719z M29.2861,39.801c0,2.3427-0.4757,4.1676-1.4286,5.4801
			c-0.9131,1.2686-2.1037,1.9043-3.5732,1.9043c-1.27,0-2.1435-0.3561-2.6205-1.0713c-0.5154-0.7151-0.7532-1.8276-0.7532-3.3758
			c0-1.0714,0.1189-2.0632,0.3171-2.9757c0.2379-0.9153,0.555-1.7071,0.9529-2.3428c0.4361-0.6747,0.9131-1.1912,1.5077-1.5886
			c0.5961-0.3569,1.3108-0.5555,2.1051-0.5555c1.3492,0,2.2622,0.3569,2.7381,1.1118C29.0481,37.102,29.2861,38.2528,29.2861,39.801
			L29.2861,39.801z"/>
	</g>
</g>
</svg>
