<?xml version="1.0" encoding="utf-8"?>
<!-- Generator: Adobe Illustrator 21.1.0, SVG Export Plug-In . SVG Version: 6.00 Build 0)  -->
<svg version="1.1" id="Safari" xmlns="http://www.w3.org/2000/svg" xmlns:xlink="http://www.w3.org/1999/xlink" x="0px" y="0px"
	 viewBox="0 0 121.8 121.8" enable-background="new 0 0 121.8 121.8" xml:space="preserve">
<title>Safari</title>
<desc>Created with Sketch.</desc>
<rect fill="#001C25" width="121.8" height="121.8"/>
<g id="safari-page-1">
	<g id="safari-icons" transform="translate(-201.000000, -809.000000)">
		<g id="safari-apple-apps" transform="translate(50.000000, 50.000000)">
			<g id="safari-safari" transform="translate(152.000000, 760.000000)">
				
					<linearGradient id="safari-oval_1_" gradientUnits="userSpaceOnUse" x1="-484.7019" y1="6.5327" x2="-484.7019" y2="7.5327" gradientTransform="matrix(104 0 0 104 50469.6992 -670.3)">
					<stop  offset="0" style="stop-color:#1AD6FD"/>
					<stop  offset="1" style="stop-color:#1E63F0"/>
				</linearGradient>
				<ellipse id="safari-oval" fill="url(#safari-oval_1_)" cx="60.7" cy="61.1" rx="52" ry="52"/>
				<path id="safari-combined-shape" fill="#FFFFFF" d="M58.3,13.7c0-0.4,0.3-0.7,0.7-0.7s0.7,0.3,0.7,0.7v8.6
					c0,0.4-0.3,0.7-0.7,0.7s-0.7-0.3-0.7-0.7V13.7z M58.4,99.6c0-0.4,0.3-0.7,0.7-0.7s0.7,0.3,0.7,0.7v8.6c0,0.4-0.3,0.7-0.7,0.7
					s-0.7-0.3-0.7-0.7V99.6z M67.6,14.5c0.1-0.4,0.4-0.6,0.8-0.5s0.6,0.4,0.5,0.8l-1.6,8.4c-0.1,0.4-0.4,0.6-0.8,0.5
					s-0.6-0.4-0.5-0.8L67.6,14.5z M76.4,17.1c0.1-0.3,0.5-0.5,0.9-0.4c0.3,0.1,0.5,0.5,0.4,0.9l-3.2,7.9c-0.1,0.3-0.5,0.5-0.9,0.4
					c-0.3-0.1-0.5-0.5-0.4-0.9L76.4,17.1z M84.7,21.3c0.2-0.3,0.6-0.4,0.9-0.2c0.3,0.2,0.4,0.6,0.2,0.9l-4.7,7.2
					c-0.2,0.3-0.6,0.4-0.9,0.2c-0.3-0.2-0.4-0.6-0.2-0.9L84.7,21.3z M91.9,27c0.3-0.3,0.7-0.3,0.9,0c0.3,0.3,0.3,0.7,0,0.9l-6,6.2
					c-0.3,0.3-0.7,0.3-0.9,0c-0.3-0.3-0.3-0.7,0-0.9L91.9,27z M97.9,34.1c0.3-0.2,0.7-0.1,0.9,0.2c0.2,0.3,0.1,0.7-0.2,0.9L91.5,40
					c-0.3,0.2-0.7,0.1-0.9-0.2c-0.2-0.3-0.1-0.7,0.2-0.9L97.9,34.1z M102.4,42.2c0.3-0.1,0.7,0,0.9,0.3c0.1,0.3,0,0.7-0.4,0.9
					L95,46.7c-0.3,0.1-0.7,0-0.9-0.3c-0.1-0.3,0-0.7,0.4-0.9L102.4,42.2z M105.2,51.1c0.4-0.1,0.7,0.2,0.8,0.5
					c0.1,0.4-0.2,0.7-0.5,0.8L97.1,54c-0.4,0.1-0.7-0.2-0.8-0.5c-0.1-0.4,0.2-0.7,0.5-0.8L105.2,51.1z M67.6,107.4L66,99
					c-0.1-0.4,0.2-0.7,0.5-0.8c0.4-0.1,0.7,0.2,0.8,0.5l1.6,8.4c0.1,0.4-0.2,0.7-0.5,0.8C68,108,67.6,107.8,67.6,107.4z M76.4,104.9
					L73.2,97c-0.1-0.4,0-0.7,0.4-0.9c0.3-0.1,0.7,0,0.9,0.4l3.2,7.9c0.1,0.4,0,0.7-0.4,0.9C76.9,105.4,76.5,105.2,76.4,104.9z
					 M84.7,100.6L80,93.4c-0.2-0.3-0.1-0.7,0.2-0.9c0.3-0.2,0.7-0.1,0.9,0.2l4.7,7.2c0.2,0.3,0.1,0.7-0.2,0.9
					C85.3,101,84.9,100.9,84.7,100.6z M91.9,94.9l-6-6.2c-0.3-0.3-0.2-0.7,0-0.9c0.3-0.3,0.7-0.2,0.9,0l6,6.2c0.3,0.3,0.2,0.7,0,0.9
					C92.6,95.2,92.2,95.2,91.9,94.9z M97.9,87.8L90.8,83c-0.3-0.2-0.4-0.6-0.2-0.9c0.2-0.3,0.6-0.4,0.9-0.2l7.1,4.8
					c0.3,0.2,0.4,0.6,0.2,0.9S98.2,88,97.9,87.8z M102.4,79.7l-7.9-3.3c-0.3-0.1-0.5-0.5-0.4-0.9c0.1-0.3,0.5-0.5,0.9-0.3l7.9,3.3
					c0.3,0.1,0.5,0.5,0.4,0.9C103.1,79.7,102.7,79.9,102.4,79.7z M105.2,70.8l-8.4-1.6c-0.4-0.1-0.6-0.4-0.5-0.8s0.4-0.6,0.8-0.5
					l8.4,1.6c0.4,0.1,0.6,0.4,0.5,0.8S105.5,70.9,105.2,70.8z M50.4,107.3c-0.1,0.4-0.4,0.6-0.8,0.5c-0.4-0.1-0.6-0.4-0.5-0.8
					l1.6-8.4c0.1-0.4,0.4-0.6,0.8-0.5c0.4,0.1,0.6,0.4,0.5,0.8L50.4,107.3z M41.6,104.7c-0.1,0.3-0.5,0.5-0.9,0.4
					c-0.3-0.1-0.5-0.5-0.4-0.9l3.2-7.9c0.1-0.3,0.5-0.5,0.9-0.4c0.3,0.1,0.5,0.5,0.4,0.9L41.6,104.7z M33.3,100.5
					c-0.2,0.3-0.6,0.4-0.9,0.2c-0.3-0.2-0.4-0.6-0.2-0.9l4.7-7.2c0.2-0.3,0.6-0.4,0.9-0.2c0.3,0.2,0.4,0.6,0.2,0.9L33.3,100.5z
					 M26,94.8c-0.3,0.3-0.7,0.3-0.9,0c-0.3-0.3-0.3-0.7,0-0.9l6-6.2c0.3-0.3,0.7-0.3,0.9,0c0.3,0.3,0.3,0.7,0,0.9L26,94.8z
					 M20.1,87.7c-0.3,0.2-0.7,0.1-0.9-0.2c-0.2-0.3-0.1-0.7,0.2-0.9l7.1-4.8c0.3-0.2,0.7-0.1,0.9,0.2c0.2,0.3,0.1,0.7-0.2,0.9
					L20.1,87.7z M15.6,79.6c-0.3,0.1-0.7,0-0.9-0.3c-0.1-0.3,0-0.7,0.4-0.9l7.9-3.3c0.3-0.1,0.7,0,0.9,0.3c0.1,0.3,0,0.7-0.4,0.9
					L15.6,79.6z M12.8,70.7c-0.4,0.1-0.7-0.2-0.8-0.5c-0.1-0.4,0.2-0.7,0.5-0.8l8.4-1.6c0.4-0.1,0.7,0.2,0.8,0.5
					c0.1,0.4-0.2,0.7-0.5,0.8L12.8,70.7z M106.2,60.2c0.4,0,0.7,0.3,0.7,0.7s-0.3,0.7-0.7,0.7h-8.6c-0.4,0-0.7-0.3-0.7-0.7
					s0.3-0.7,0.7-0.7H106.2z M50.4,14.5l1.6,8.4c0.1,0.4-0.2,0.7-0.5,0.8c-0.4,0.1-0.7-0.2-0.8-0.5l-1.6-8.4
					c-0.1-0.4,0.2-0.7,0.5-0.8C50,13.9,50.3,14.1,50.4,14.5z M41.6,17.1l3.2,7.9c0.1,0.4,0,0.7-0.4,0.9c-0.3,0.1-0.7,0-0.9-0.4
					l-3.2-7.9c-0.1-0.4,0-0.7,0.4-0.9C41,16.6,41.4,16.7,41.6,17.1z M33.3,21.3l4.7,7.2c0.2,0.3,0.1,0.7-0.2,0.9
					c-0.3,0.2-0.7,0.1-0.9-0.2L32.2,22c-0.2-0.3-0.1-0.7,0.2-0.9C32.7,20.9,33.1,21,33.3,21.3z M26,27l6,6.2c0.3,0.3,0.2,0.7,0,0.9
					c-0.3,0.3-0.7,0.2-0.9,0l-6-6.2c-0.3-0.3-0.2-0.7,0-0.9C25.4,26.8,25.8,26.8,26,27z M20.1,34.1l7.1,4.8c0.3,0.2,0.4,0.6,0.2,0.9
					c-0.2,0.3-0.6,0.4-0.9,0.2l-7.1-4.8c-0.3-0.2-0.4-0.6-0.2-0.9C19.4,34,19.8,33.9,20.1,34.1z M15.6,42.2l7.9,3.3
					c0.3,0.1,0.5,0.5,0.4,0.9c-0.1,0.3-0.5,0.5-0.9,0.3l-7.9-3.3c-0.3-0.1-0.5-0.5-0.4-0.9C14.9,42.2,15.3,42.1,15.6,42.2z
					 M12.8,51.1l8.4,1.6c0.4,0.1,0.6,0.4,0.5,0.8c-0.1,0.4-0.4,0.6-0.8,0.5l-8.4-1.6c-0.4-0.1-0.6-0.4-0.5-0.8
					C12.1,51.3,12.4,51,12.8,51.1z M11.8,60.2h8.6c0.4,0,0.7,0.3,0.7,0.7s-0.3,0.7-0.7,0.7h-8.6c-0.4,0-0.7-0.3-0.7-0.7
					C11.1,60.5,11.4,60.2,11.8,60.2z M62.9,13.9c0-0.4,0.3-0.6,0.7-0.6s0.6,0.4,0.6,0.7l-0.3,3.7c0,0.4-0.3,0.6-0.7,0.6
					s-0.6-0.4-0.6-0.7L62.9,13.9z M72,15.6c0.1-0.4,0.5-0.6,0.8-0.5c0.4,0.1,0.6,0.5,0.5,0.8l-1,3.6c-0.1,0.4-0.5,0.6-0.8,0.5
					c-0.4-0.1-0.6-0.5-0.5-0.8L72,15.6z M80.6,19.1c0.2-0.3,0.6-0.5,0.9-0.3s0.5,0.6,0.3,0.9L80.1,23c-0.2,0.3-0.6,0.5-0.9,0.3
					s-0.5-0.6-0.3-0.9L80.6,19.1z M88.4,24.1c0.2-0.3,0.6-0.3,0.9-0.1c0.3,0.2,0.3,0.6,0.1,0.9l-2.3,2.9c-0.2,0.3-0.6,0.3-0.9,0.1
					c-0.3-0.2-0.3-0.6-0.1-0.9L88.4,24.1z M95,30.5c0.3-0.2,0.7-0.2,0.9,0.1c0.2,0.3,0.2,0.7-0.1,0.9L93,34
					c-0.3,0.2-0.7,0.2-0.9-0.1c-0.2-0.3-0.2-0.7,0.1-0.9L95,30.5z M100.3,38c0.3-0.2,0.7-0.1,0.9,0.2c0.2,0.3,0.1,0.7-0.2,0.9
					L97.8,41c-0.3,0.2-0.7,0.1-0.9-0.2c-0.2-0.3-0.1-0.7,0.2-0.9L100.3,38z M103.9,46.5c0.3-0.1,0.7,0.1,0.8,0.4
					c0.1,0.3-0.1,0.7-0.4,0.8l-3.5,1.2c-0.3,0.1-0.7-0.1-0.8-0.4c-0.1-0.3,0.1-0.7,0.4-0.8L103.9,46.5z M105.9,55.6
					c0.4-0.1,0.7,0.2,0.7,0.6c0.1,0.4-0.2,0.7-0.6,0.7l-3.7,0.5c-0.4,0.1-0.7-0.2-0.7-0.6c-0.1-0.4,0.2-0.7,0.6-0.7L105.9,55.6z
					 M62.9,107.9l-0.3-3.7c0-0.4,0.2-0.7,0.6-0.7c0.4,0,0.7,0.2,0.7,0.6l0.3,3.7c0,0.4-0.2,0.7-0.6,0.7
					C63.3,108.5,63,108.2,62.9,107.9z M72,106.2l-1-3.6c-0.1-0.3,0.1-0.7,0.5-0.8c0.4-0.1,0.7,0.1,0.8,0.5l1,3.6
					c0.1,0.3-0.1,0.7-0.5,0.8C72.5,106.8,72.1,106.6,72,106.2z M80.6,102.7l-1.7-3.3c-0.2-0.3,0-0.7,0.3-0.9c0.3-0.2,0.7,0,0.9,0.3
					l1.7,3.3c0.2,0.3,0,0.7-0.3,0.9C81.2,103.2,80.8,103.1,80.6,102.7z M88.4,97.7l-2.3-2.9c-0.2-0.3-0.2-0.7,0.1-0.9
					c0.3-0.2,0.7-0.2,0.9,0.1l2.3,2.9c0.2,0.3,0.2,0.7-0.1,0.9C89,98.1,88.6,98,88.4,97.7z M95,91.3l-2.8-2.5
					c-0.3-0.2-0.3-0.7-0.1-0.9c0.2-0.3,0.7-0.3,0.9-0.1l2.8,2.5c0.3,0.2,0.3,0.7,0.1,0.9C95.7,91.5,95.3,91.6,95,91.3z M100.3,83.8
					l-3.2-1.9c-0.3-0.2-0.4-0.6-0.2-0.9c0.2-0.3,0.6-0.4,0.9-0.2l3.2,1.9c0.3,0.2,0.4,0.6,0.2,0.9C101,83.9,100.6,84,100.3,83.8z
					 M103.9,75.3l-3.5-1.2c-0.3-0.1-0.5-0.5-0.4-0.8s0.5-0.5,0.8-0.4l3.5,1.2c0.3,0.1,0.5,0.5,0.4,0.8
					C104.7,75.2,104.3,75.4,103.9,75.3z M105.9,66.2l-3.7-0.5c-0.4-0.1-0.6-0.4-0.6-0.7c0.1-0.4,0.4-0.6,0.7-0.6l3.7,0.5
					c0.4,0.1,0.6,0.4,0.6,0.7C106.6,66,106.2,66.3,105.9,66.2z M55.1,107.9c0,0.4-0.3,0.6-0.7,0.6s-0.6-0.4-0.6-0.7l0.3-3.7
					c0-0.4,0.3-0.6,0.7-0.6s0.6,0.4,0.6,0.7L55.1,107.9z M46,106.2c-0.1,0.4-0.5,0.6-0.8,0.5c-0.4-0.1-0.6-0.5-0.5-0.8l1-3.6
					c0.1-0.4,0.5-0.6,0.8-0.5c0.4,0.1,0.6,0.5,0.5,0.8L46,106.2z M37.4,102.7c-0.2,0.3-0.6,0.5-0.9,0.3c-0.3-0.2-0.5-0.6-0.3-0.9
					l1.7-3.3c0.2-0.3,0.6-0.5,0.9-0.3c0.3,0.2,0.5,0.6,0.3,0.9L37.4,102.7z M29.7,97.7c-0.2,0.3-0.6,0.3-0.9,0.1
					c-0.3-0.2-0.3-0.6-0.1-0.9L31,94c0.2-0.3,0.6-0.3,0.9-0.1c0.3,0.2,0.3,0.6,0.1,0.9L29.7,97.7z M23,91.3
					c-0.3,0.2-0.7,0.2-0.9-0.1c-0.2-0.3-0.2-0.7,0.1-0.9l2.8-2.5c0.3-0.2,0.7-0.2,0.9,0.1c0.2,0.3,0.2,0.7-0.1,0.9L23,91.3z
					 M17.7,83.8c-0.3,0.2-0.7,0.1-0.9-0.2c-0.2-0.3-0.1-0.7,0.2-0.9l3.2-1.9c0.3-0.2,0.7-0.1,0.9,0.2c0.2,0.3,0.1,0.7-0.2,0.9
					L17.7,83.8z M14.1,75.3c-0.3,0.1-0.7-0.1-0.8-0.4s0.1-0.7,0.4-0.8l3.5-1.2c0.3-0.1,0.7,0.1,0.8,0.4c0.1,0.3-0.1,0.7-0.4,0.8
					L14.1,75.3z M12.1,66.2c-0.4,0.1-0.7-0.2-0.7-0.6c-0.1-0.4,0.2-0.7,0.6-0.7l3.7-0.5c0.4-0.1,0.7,0.2,0.7,0.6
					c0.1,0.4-0.2,0.7-0.6,0.7L12.1,66.2z M55.1,13.9l0.3,3.7c0,0.4-0.2,0.7-0.6,0.7c-0.4,0-0.7-0.2-0.7-0.6L53.8,14
					c0-0.4,0.2-0.7,0.6-0.7C54.7,13.3,55,13.6,55.1,13.9z M46,15.6l1,3.6c0.1,0.3-0.1,0.7-0.5,0.8c-0.4,0.1-0.7-0.1-0.8-0.5l-1-3.6
					c-0.1-0.3,0.1-0.7,0.5-0.8C45.5,15,45.9,15.2,46,15.6z M37.4,19.1l1.7,3.3c0.2,0.3,0,0.7-0.3,0.9c-0.3,0.2-0.7,0-0.9-0.3
					l-1.7-3.3c-0.2-0.3,0-0.7,0.3-0.9C36.8,18.6,37.2,18.7,37.4,19.1z M29.7,24.1L32,27c0.2,0.3,0.2,0.7-0.1,0.9
					c-0.3,0.2-0.7,0.2-0.9-0.1l-2.3-2.9c-0.2-0.3-0.2-0.7,0.1-0.9C29,23.7,29.4,23.8,29.7,24.1z M23,30.5l2.8,2.5
					c0.3,0.2,0.3,0.7,0.1,0.9c-0.2,0.3-0.7,0.3-0.9,0.1l-2.8-2.5c-0.3-0.2-0.3-0.7-0.1-0.9C22.3,30.3,22.8,30.2,23,30.5z M17.7,38
					l3.2,1.9c0.3,0.2,0.4,0.6,0.2,0.9c-0.2,0.3-0.6,0.4-0.9,0.2L17,39.1c-0.3-0.2-0.4-0.6-0.2-0.9S17.4,37.8,17.7,38z M14.1,46.5
					l3.5,1.2c0.3,0.1,0.5,0.5,0.4,0.8s-0.5,0.5-0.8,0.4l-3.5-1.2c-0.3-0.1-0.5-0.5-0.4-0.8C13.3,46.6,13.7,46.4,14.1,46.5z
					 M12.1,55.6l3.7,0.5c0.4,0.1,0.6,0.4,0.6,0.7c-0.1,0.4-0.4,0.6-0.7,0.6L12,56.9c-0.4-0.1-0.6-0.4-0.6-0.7
					C11.4,55.8,11.8,55.5,12.1,55.6z"/>
				<g id="safari-indicator" transform="translate(25.000000, 25.000000)">
					<polygon id="safari-path-123_1_" fill="#FFFFFF" points="-0.3,71.2 29.1,31.2 39.1,41.1 					"/>
					<polygon id="safari-path-123" fill="#FF1414" points="68.6,1.1 39.1,41.1 29.1,31.1 					"/>
				</g>
			</g>
		</g>
	</g>
</g>
</svg>
