<?xml version="1.0" encoding="utf-8"?>
<!-- Generator: Adobe Illustrator 21.1.0, SVG Export Plug-In . SVG Version: 6.00 Build 0)  -->
<svg version="1.1" id="Soundcloud" xmlns="http://www.w3.org/2000/svg" xmlns:xlink="http://www.w3.org/1999/xlink" x="0px" y="0px"
	 viewBox="0 0 72 72" enable-background="new 0 0 72 72" xml:space="preserve">
<g>
	<rect fill="#FF5E00" width="72" height="72"/>
	<g>
		<path fill="#FFFFFF" d="M52.9659,34.6053c-0.7589,0-1.4855,0.1637-2.1417,0.4596c-0.4423-5.3617-4.623-9.5649-9.7236-9.5649
			c-1.251,0-2.4697,0.2646-3.542,0.7116c-0.4189,0.1733-0.5274,0.3527-0.5333,0.6989v18.8779
			c0.0059,0.3652,0.2667,0.6707,0.5978,0.7053C37.6377,46.4968,52.8663,46.5,52.9659,46.5c3.0556,0,5.5341-2.6604,5.5341-5.9442
			C58.5,37.2688,56.0215,34.6053,52.9659,34.6053z"/>
		<path fill="#FFFFFF" d="M23.5693,40.9399l-0.3984-7.9908c-0.0089-0.2046-0.1583-0.3621-0.3399-0.3621
			c-0.1817,0-0.3311,0.1575-0.3398,0.3621l-0.3516,7.9908l0.3516,5.1665c0.0087,0.2016,0.1581,0.3621,0.3398,0.3621
			c0.1816,0,0.331-0.1605,0.3399-0.3652v0.0032L23.5693,40.9399z"/>
		<path fill="#FFFFFF" d="M21.7472,40.9399l-0.4248-4.9147c-0.0117-0.1827-0.1407-0.3212-0.3018-0.3212
			s-0.2929,0.1418-0.3018,0.3243l-0.375,4.9116l0.375,5.1633c0.0089,0.1827,0.1407,0.318,0.3018,0.318s0.2901-0.1353,0.3018-0.318
			l0,0L21.7472,40.9399z"/>
		<path fill="#FFFFFF" d="M25.4093,40.9431l-0.3722-9.82c-0.0117-0.2267-0.1786-0.4029-0.3808-0.4029
			c-0.202,0-0.3692,0.1763-0.3778,0.4029l-0.3282,9.82l0.3282,5.1318c0.0087,0.2236,0.1758,0.3999,0.3778,0.3999
			c0.2022,0,0.3692-0.1763,0.3808-0.403v0.0032L25.4093,40.9431z"/>
		<path fill="#FFFFFF" d="M15.674,45.3792c0.0938,0,0.1728-0.0788,0.1845-0.1953l0.5039-4.2471l-0.5009-4.3449
			c-0.0147-0.1133-0.0938-0.1951-0.1875-0.1951c-0.0968,0-0.1758,0.0819-0.1875,0.1951l-0.4454,4.3449l0.4454,4.2471
			C15.4981,45.2973,15.5772,45.3792,15.674,45.3792z"/>
		<path fill="#FFFFFF" d="M17.4405,46.141c0.1171,0,0.2109-0.1008,0.2256-0.2361l0.4775-4.9682l-0.4775-5.154
			c-0.0147-0.1354-0.1084-0.2362-0.2256-0.2362s-0.2139,0.1008-0.2256,0.2362l-0.4189,5.154l0.4189,4.9682
			C17.2266,46.0402,17.3234,46.141,17.4405,46.141z"/>
		<path fill="#FFFFFF" d="M28.8076,29.9487c-0.0087-0.2738-0.205-0.4879-0.4541-0.4879c-0.249,0-0.4483,0.2142-0.4571,0.4879
			l-0.2842,10.9944l0.2842,5.0469c0.0087,0.2707,0.2081,0.4848,0.4571,0.4848c0.249,0,0.4454-0.2141,0.4541-0.4848l0,0
			l0.3223-5.0469L28.8076,29.9487z"/>
		<path fill="#FFFFFF" d="M19.2246,46.3395c0.1377,0,0.2491-0.1197,0.2637-0.2803l0.4482-5.1192l-0.4482-5.2957
			c-0.0146-0.1605-0.126-0.28-0.2637-0.28c-0.1406,0-0.2549,0.1195-0.2635,0.28l-0.3986,5.2957l0.3986,5.1192
			C18.9697,46.2198,19.084,46.3395,19.2246,46.3395z"/>
		<path fill="#FFFFFF" d="M27.2609,40.9431l-0.3458-10.6386c-0.0089-0.2487-0.1933-0.4472-0.4161-0.4472
			c-0.2285,0-0.4101,0.1985-0.4188,0.4472c0,0.0031-0.3076,10.6386-0.3076,10.6386l0.3076,5.0784
			c0.0087,0.2487,0.1903,0.4439,0.4188,0.4439c0.2227,0,0.4072-0.1952,0.4161-0.447v0.0063L27.2609,40.9431z"/>
		<path fill="#FFFFFF" d="M31.0079,40.9431l-0.293-10.7172C30.709,29.9329,30.4923,29.7,30.2197,29.7
			c-0.2696,0-0.4863,0.2329-0.4921,0.5259l-0.2607,10.7172l0.2607,4.9996c0.0058,0.2928,0.2226,0.5289,0.4921,0.5289
			c0.2726,0,0.4893-0.2361,0.4951-0.5289l0,0L31.0079,40.9431z"/>
		<path fill="#FFFFFF" d="M14.0098,38.0622c-0.0938,0-0.1671,0.0788-0.1816,0.189L13.5,40.9368l0.3282,2.6415
			c0.0145,0.1101,0.0879,0.1889,0.1816,0.1889c0.0908,0,0.1641-0.0788,0.1787-0.1889l0.3897-2.6415l-0.3897-2.6856
			C14.174,38.1409,14.1006,38.0622,14.0098,38.0622z"/>
		<path fill="#FFFFFF" d="M34.8165,40.9463l-0.2403-12.2883c-0.0058-0.3337-0.2637-0.6076-0.5712-0.6076
			c-0.3135,0-0.5685,0.2739-0.5714,0.6076l-0.2168,12.2852l0.2168,4.9366c0.0028,0.3338,0.2579,0.6108,0.5714,0.6108
			c0.3075,0,0.5653-0.2771,0.5712-0.614v0.0063L34.8165,40.9463z"/>
		<path fill="#FFFFFF" d="M35.8946,26.8948c-0.3311,0-0.6064,0.2928-0.6123,0.6518l-0.249,13.3997l0.249,4.8642
			c0.0059,0.3558,0.2812,0.6486,0.6123,0.6486c0.3282,0,0.6036-0.2928,0.6095-0.6517v0.0032l0.2724-4.8642L36.504,27.5466
			C36.4981,27.1877,36.2228,26.8948,35.8946,26.8948z"/>
		<path fill="#FFFFFF" d="M32.9062,40.9431l-0.2696-10.3237c-0.0058-0.318-0.2402-0.5699-0.5303-0.5699
			c-0.2958,0-0.5272,0.2519-0.5331,0.5699l-0.2373,10.3237l0.2373,4.9713c0.0058,0.3117,0.2373,0.5636,0.5331,0.5636
			c0.2901,0,0.5244-0.2519,0.5303-0.5667v0.0031L32.9062,40.9431z"/>
	</g>
</g>
</svg>
