<?xml version="1.0" encoding="utf-8"?>
<!-- Generator: Adobe Illustrator 21.1.0, SVG Export Plug-In . SVG Version: 6.00 Build 0)  -->
<svg version="1.1" id="Telegram" xmlns="http://www.w3.org/2000/svg" xmlns:xlink="http://www.w3.org/1999/xlink" x="0px" y="0px"
	 viewBox="0 0 72 72" enable-background="new 0 0 72 72" xml:space="preserve">
<g>
	<rect fill="#0772F8" width="72" height="72"/>
	<path id="telegram-path2993" fill="#C8DAEA" d="M29.4,52.5c-1.17,0-0.96-0.45-1.38-1.56L24.6,39.66L45.84,26.4l2.49,0.66
		l-2.07,5.64L29.4,52.5z"/>
	<path id="telegram-path2989" fill="#A9C9DD" d="M29.4,52.5c0.9,0,1.29-0.42,1.8-0.9C31.98,50.85,42,41.1,42,41.1l-6.15-1.5
		l-5.7,3.6l-0.75,9V52.5z"/>
	
		<linearGradient id="telegram-path2991_1_" gradientUnits="userSpaceOnUse" x1="-77.1696" y1="196.5366" x2="-76.4496" y2="197.6886" gradientTransform="matrix(10.4167 0 0 10.4167 842.5524 -2010.1324)">
		<stop  offset="0" style="stop-color:#EFF7FC"/>
		<stop  offset="1" style="stop-color:#FFFFFF"/>
	</linearGradient>
	<path id="telegram-path2991" fill="url(#telegram-path2991_1_)" d="M30,43.32l14.52,10.71c1.65,0.9,2.85,0.45,3.27-1.53l5.91-27.84
		c0.6-2.43-0.93-3.51-2.52-2.79L16.5,35.25c-2.37,0.96-2.34,2.28-0.42,2.85l8.91,2.79L45.6,27.9c0.96-0.6,1.86-0.27,1.14,0.39
		L30,43.32z"/>
</g>
<g id="telegram-layer-1">
</g>
</svg>
