<?xml version="1.0" encoding="utf-8"?>
<!-- Generator: Adobe Illustrator 21.1.0, SVG Export Plug-In . SVG Version: 6.00 Build 0)  -->
<svg version="1.1" id="Tinder" xmlns="http://www.w3.org/2000/svg" xmlns:xlink="http://www.w3.org/1999/xlink" x="0px" y="0px"
	 viewBox="0 0 72 72" enable-background="new 0 0 72 72" xml:space="preserve">
<g>
	<rect fill="#DF4723" width="72" height="72"/>
	<path fill="#FFFFFF" d="M35.6152,14.5107c0.3721,0.2938,0.695,0.6554,1.0507,0.9719c3.2124,3.1303,6.1567,6.5884,8.5263,10.4476
		c2.293,3.7349,4.0552,7.8654,4.8378,12.2275c0.4323,2.3901,0.5746,4.8424,0.3228,7.2608
		c-0.1149,1.0114-0.2845,2.0229-0.5965,2.9891c-0.4378,1.4013-1.0124,2.7631-1.8005,3.9949
		c-0.6786,1.0623-1.5269,2.0116-2.5064,2.78c-1.0781,0.8419-2.3094,1.4578-3.59,1.8816c-1.5926,0.5255-3.2617,0.7854-4.9253,0.9267
		c-1.9866,0.1525-3.9841,0.1808-5.9651-0.0791c-2.2438-0.2882-4.4711-0.9041-6.4686-2.0172
		c-1.8497-1.0284-3.4751-2.537-4.5203-4.4356c-1.2094-2.1698-1.6089-4.7407-1.4174-7.2212c0.197-2.6274,1.007-5.1758,2.0796-7.5546
		c0.9303-2.0455,2.0686-3.9836,3.3327-5.8256c1.0781-1.5595,2.2383-3.0569,3.508-4.4582c0.0218-0.017,0.0657-0.0565,0.093-0.0735
		c-0.0219,1.1809,0.221,5.9586,2.0632,6.6845c1.4477-0.2471,3.356-2.52,4.5203-4.2265c1.2422-1.7574,2.074-3.8141,2.3915-5.9669
		C36.9724,20.0312,36.6113,17.1325,35.6152,14.5107L35.6152,14.5107z"/>
</g>
</svg>
