<?xml version="1.0" encoding="utf-8"?>
<!-- Generator: Adobe Illustrator 21.1.0, SVG Export Plug-In . SVG Version: 6.00 Build 0)  -->
<svg version="1.1" id="Uber" xmlns="http://www.w3.org/2000/svg" xmlns:xlink="http://www.w3.org/1999/xlink" x="0px" y="0px"
	 viewBox="0 0 36 35.9408" enable-background="new 0 0 36 35.9408" xml:space="preserve">
<title>uber_rides_api_icon</title>
<desc>Created with Sketch.</desc>
<g id="uber-page-1">
	<g id="uber-uber-rides-api-icon">
		<rect width="36" height="35.9408"/>
		<path id="uber-shape" fill="#FFFFFF" d="M18.5134,8.4063c-5.4446-0.0001-10.004,4.1241-10.5485,9.5414h7.3681v-1.5902
			c0-0.2928,0.2373-0.5301,0.5301-0.5301h5.3008c0.2928,0,0.5301,0.2373,0.5301,0.5301v5.3008c0,0.2928-0.2373,0.5301-0.5301,0.5301
			H15.863c-0.2928,0-0.5301-0.2373-0.5301-0.5301v-1.5902H7.9649c0.5717,5.6886,5.5512,9.8992,11.2558,9.5177
			c5.7045-0.3815,10.079-5.2176,9.8882-10.9317S24.2307,8.4064,18.5134,8.4063L18.5134,8.4063z"/>
	</g>
</g>
</svg>
