<?xml version="1.0" encoding="utf-8"?>
<!-- Generator: Adobe Illustrator 21.1.0, SVG Export Plug-In . SVG Version: 6.00 Build 0)  -->
<svg version="1.1" id="Zynga" xmlns="http://www.w3.org/2000/svg" xmlns:xlink="http://www.w3.org/1999/xlink" x="0px" y="0px"
	 viewBox="0 0 72 72" enable-background="new 0 0 72 72" xml:space="preserve">
<g>
	<rect fill="#FF0807" width="72" height="72"/>
	<path id="zynga-zynga" fill="#FFFFFF" d="M47.0431,13.676c0,0,3.0985-0.294,5.5265,1.302c0.88-0.042,1.591,0.3369,2.052,1.1769
		c0.4616,0.84,1.2981,2.8566,0.6285,4.0751c-0.209,0.252-0.6705-0.757-0.6705-0.757s-0.3349,1.219-0.963,1.6806
		c0.084,2.5205-0.921,4.284-1.2139,4.8731c-0.126,0.336-0.042,0.6309,0.083,0.9669c0.126,0.336,1.8015,6.259,1.7175,8.2335
		c-0.084,1.9746-1.0884,4.3271-1.8844,5.1251c0.167,1.6384-0.5861,3.0255-0.963,3.6975s-1.214,3.1926-1.4241,4.368
		c-0.2094,1.1771-0.2929,2.4375-0.0414,2.8155c0.2515,0.378,1.3815,1.5546,1.298,2.1426c-0.084,0.588-1.298,1.26-1.8845,1.26
		c-0.586,0-1.801-0.378-2.094-1.1771c-0.2925-0.798-0.3351-2.1836-0.1251-2.9815c0.2091-0.7989,1.633-6.6375,0.796-10.083
		c-2.052,0.924-5.4855,0.883-5.4855,0.883s-0.5861,3.0664-1.298,4.83c-0.2511,0.42-0.2095,3.2775-0.2095,5.083
		c0,1.8064,0.628,4.6209,0.628,4.6209s0.8795,0.6311,0.7539,1.4286C42.145,58.038,41.1391,58.5,40.2595,58.5
		c-0.879,0-2.0509-0.672-2.0509-1.7645c0-1.092,0.1665-3.5706,0.083-5.377c-0.083-1.8064-0.041-2.9825-0.3345-4.1171
		c-0.2934-1.1345-1.1304-4.1171-1.2144-6.4275c-0.2931,0-0.5861-0.21-0.5861-0.21s-1.382,1.5965-2.3445,2.5205
		c0.1255,0.63,0.46,1.7646,0.46,2.0166c0,0.252,0.252,0.462,0.6705,0.63c0.4185,0.1689,1.716,0.883,1.6744,1.5965
		c-0.042,0.714-1.6751,0.84-3.0986,0.21c-0.3345-0.168-1.5489-4.242-1.7164-4.7891c-0.168-0.546-0.2936-0.84-0.0836-1.3024
		c0.2091-0.4609,0.7956-1.9735,0.7121-2.8564c-0.084-0.882-1.7171-2.2686-2.8055-2.2686c-0.8376,0-2.1171,1.284-3.0566,2.0166
		c-1.1305,0.8829-2.428,2.2265-2.763,2.4365c-0.3356,0.2111-2.973,5-3.4755,6.3855c-0.2091,0.546-0.6276,3.2775-2.8461,3.1926
		c-1.005-0.084-1.9265-1.176,0.921-3.1506c0.7225-1.67,1.7275-3.4035,1.7901-3.75c0.0624-0.3465,0.8165-4.6631,2.073-8.759
		c1.2559-4.0956,3.1089-6.049,3.4534-6.333c0.2831-0.2196,0.4401-0.3465,0.1571-0.504c-0.282-0.1571-3.2655-2.7101-2.7-8.1291
		c0.0939-0.63,0.3769-0.4725,0.5649,0.9765c0.1885,1.449,1.35,4.8525,3.9256,5.9241c0.251,0.0939,2.1039-1.323,11.5554-2.0166
		c0.063-1.67,0.3145-3.4345,0.3145-3.4345s-0.6595-0.504-0.754-1.5125c-0.3139,0.5051-0.5019,0.6311-0.9105,0.5674
		c-0.408-0.0624-0.377-2.0154-0.2825-3.4024c0.095-1.3865,1.696-1.9856,2.293-2.048c0.7845-0.4101,1.6325-0.3465,1.6325-0.3465
		S42.9606,13.004,47.0431,13.676L47.0431,13.676z"/>
</g>
</svg>
