<?xml version="1.0" encoding="utf-8"?>
<!-- Generator: Adobe Illustrator 21.1.0, SVG Export Plug-In . SVG Version: 6.00 Build 0)  -->
<svg version="1.1" id="Chat" xmlns="http://www.w3.org/2000/svg" xmlns:xlink="http://www.w3.org/1999/xlink" x="0px" y="0px"
	 viewBox="0 0 72 72" enable-background="new 0 0 72 72" xml:space="preserve">
<g id="chat-layer-219">
	<g>
		<rect fill="#FE7A15" width="72" height="72"/>
		<g>
			<path fill="#FFFFFF" d="M44.5455,17.733c1.821,0.1785,3.549,0.669,5.076,1.446c0.5445,0.279,1.182,0.2985,1.7475,0.06
				c0.561-0.2385,0.9885-0.7155,1.161-1.2975c0.3-0.993-0.1905-2.0325-1.1115-2.454c-2.517-1.266-5.4315-1.935-8.4315-1.935
				c-4.1115,0-7.9965,1.2435-10.941,3.4995c-1.209,0.927-2.205,1.98-2.973,3.126c3.165-1.866,6.99-2.8785,10.9995-2.8785
				C41.5935,17.2995,43.0935,17.445,44.5455,17.733z"/>
			<path fill="#FFFFFF" d="M40.0995,22.2015c2.7975,0,5.4915,0.621,7.788,1.794c0.0315,0.0165,0.0645,0.0315,0.0975,0.045
				c1.5735,0.8265,2.676,1.968,3.156,3.213c1.677,1.485,2.85,3.2775,3.402,5.22c0.6465-1.203,0.9855-2.5005,0.9855-3.8325
				c0-3.354-2.1525-6.4575-5.7585-8.2995c-0.0375-0.0195-0.0765-0.036-0.1125-0.054c-2.853-1.4325-6.156-2.1885-9.558-2.1885
				c-4.659,0-9.0645,1.407-12.396,3.963c-1.482,1.134-2.679,2.4375-3.567,3.855c3.5385-2.139,7.8375-3.3165,12.3555-3.363
				C37.6515,22.323,38.8635,22.2015,40.0995,22.2015z"/>
			<path fill="#FFFFFF" d="M53.9295,44.2125c-0.93-0.6525-2.214-0.4305-2.871,0.495c-0.879,1.242-1.812,2.1855-2.856,2.886
				c-1.2585,0.8445-3.249,2.148-3.27,2.16c-0.579,0.378-0.93,1.023-0.93,1.7145l0.003,1.9275l-5.064-2.154
				c-0.294-0.123-0.609-0.1785-0.924-0.1605c-0.4065,0.0225-0.8145,0.033-1.221,0.033c-5.994,0-11.4585-2.454-14.2545-6.402
				c-0.0645-0.09-0.138-0.165-0.2115-0.2415C21.216,42.828,20.643,41.064,20.643,39.219c0-6.5295,7.209-11.8425,16.0695-11.8425
				c3.2295,0,6.3465,0.7095,9.0105,2.0535c0.03,0.015,0.0585,0.027,0.0885,0.0405c2.6445,1.3515,4.218,3.4485,4.218,5.625
				c0,1.761-1.008,3.462-2.841,4.7865c-2.0325,1.4685-4.767,2.28-7.7025,2.28c-0.744,0-1.488-0.0525-2.208-0.159
				C37.272,42,37.266,42,37.257,42c-2.064-0.3135-4.038-0.993-5.709-1.9635c0-0.0015-0.003-0.0015-0.003-0.003
				c-3.27-1.929-5.1465-4.7685-5.1465-7.8075c0-0.444,0.0435-0.885,0.123-1.32c-1.6815,1.0905-3.03,2.448-3.921,3.978
				c0.8415,3.474,3.303,6.624,6.9405,8.739c0.03,0.018,0.0615,0.024,0.0915,0.0375c2.088,1.188,4.515,2.019,7.038,2.4
				c0.015,0.0015,0.027,0.003,0.0405,0.006c0.909,0.1305,1.8405,0.1965,2.7735,0.1965c3.7965,0,7.3905-1.0875,10.1205-3.0615
				c2.9295-2.118,4.5405-4.9965,4.5405-8.106c0-3.7815-2.4555-7.2705-6.567-9.3315c-0.03-0.015-0.0615-0.03-0.0915-0.0435
				c-3.2175-1.6005-6.9435-2.4465-10.776-2.4465c-5.2935,0-10.293,1.596-14.076,4.494c-3.9405,3.021-6.111,7.0875-6.111,11.4495
				c0,2.739,0.888,5.4375,2.565,7.8045c0.0855,0.1185,0.183,0.2175,0.285,0.3135c3.606,4.866,10.2405,7.8795,17.4225,7.8795
				c0.318,0,0.6375-0.006,0.9585-0.018l7.494,3.189c0.258,0.1095,0.5355,0.1635,0.8085,0.1635c0.3975,0,0.7905-0.114,1.1325-0.339
				c0.579-0.3795,0.927-1.023,0.927-1.7115l0.003-3.9285c0.7005-0.459,1.659-1.0905,2.382-1.578
				c1.4475-0.9705,2.7645-2.2905,3.924-3.9255C55.083,46.146,54.8595,44.8665,53.9295,44.2125z"/>
			<path fill="#FFFFFF" d="M40.0515,38.4315l0.015,0.003c0.7995,0.1155,1.623,0.1725,2.4465,0.1725
				c2.1735,0,4.2675-0.408,6.12-1.158c0.4845-0.753,0.744-1.557,0.744-2.37c0-0.7755-0.2385-1.542-0.6795-2.265
				c-1.653,1.068-3.867,1.692-6.1845,1.692c-0.627,0-1.2525-0.0435-1.8525-0.1305c-4.209-0.627-7.5165-2.8815-8.7675-5.7375
				c-1.3875,0.3375-2.685,0.8145-3.864,1.4055C29.7885,34.2825,34.311,37.575,40.0515,38.4315z"/>
		</g>
	</g>
</g>
<g id="chat-layer-1">
</g>
</svg>
