<?xml version="1.0" encoding="utf-8"?>
<!-- Generator: Adobe Illustrator 21.1.0, SVG Export Plug-In . SVG Version: 6.00 Build 0)  -->
<svg version="1.1" id="Fitbit" xmlns="http://www.w3.org/2000/svg" xmlns:xlink="http://www.w3.org/1999/xlink" x="0px" y="0px"
	 viewBox="0 0 72 72" enable-background="new 0 0 72 72" xml:space="preserve">
<g id="fitbit-page-1">
	<g id="fitbit-icons" transform="translate(-2938.000000, -658.000000)">
		<g id="fitbit-productivity-apps" transform="translate(1418.000000, 50.000000)">
			<g id="fitbit-fitbit" transform="translate(1520.000000, 608.000000)">
				<rect fill="#00B0B9" width="72" height="72"/>
				<path id="fitbit-icon" fill="#FFFFFF" d="M14.0182,39.004c1.7397,0,3.15-1.4103,3.15-3.15c0-1.7397-1.4103-3.15-3.15-3.15
					s-3.15,1.4103-3.15,3.15C10.8682,37.5937,12.2785,39.004,14.0182,39.004L14.0182,39.004z M24.7769,39.5815
					c2.0711,0,3.75-1.6789,3.75-3.75s-1.6789-3.75-3.75-3.75s-3.75,1.6789-3.75,3.75
					C21.0269,37.9025,22.7058,39.5815,24.7769,39.5815L24.7769,39.5815z M35.6586,40.0498c2.3196,0,4.2-1.8804,4.2-4.2
					c0-2.3196-1.8804-4.2-4.2-4.2s-4.2,1.8804-4.2,4.2C31.4586,38.1694,33.339,40.0498,35.6586,40.0498L35.6586,40.0498z
					 M46.3955,40.5382c2.6095,0,4.7249-2.1154,4.7249-4.7249s-2.1154-4.7249-4.7249-4.7249s-4.7249,2.1154-4.7249,4.7249
					S43.786,40.5382,46.3955,40.5382L46.3955,40.5382z M57.5364,41.0807c2.8995,0,5.25-2.3505,5.25-5.25s-2.3505-5.25-5.25-5.25
					s-5.25,2.3505-5.25,5.25C52.2864,38.7302,54.6369,41.0807,57.5364,41.0807L57.5364,41.0807z M35.6614,50.9494
					c2.2367,0,4.05-1.8133,4.05-4.05s-1.8133-4.05-4.05-4.05c-2.2367,0-4.05,1.8133-4.05,4.05S33.4246,50.9494,35.6614,50.9494
					L35.6614,50.9494z M35.6846,28.8428c2.2367,0,4.05-1.8133,4.05-4.05s-1.8133-4.05-4.05-4.05s-4.05,1.8133-4.05,4.05
					C31.6346,27.0296,33.4478,28.8428,35.6846,28.8428L35.6846,28.8428z M46.3978,29.3729c2.5184,0,4.56-2.0416,4.56-4.56
					s-2.0416-4.56-4.56-4.56s-4.56,2.0416-4.56,4.56S43.8794,29.3729,46.3978,29.3729L46.3978,29.3729z M46.3978,51.4556
					c2.5184,0,4.56-2.0416,4.56-4.56s-2.0416-4.56-4.56-4.56s-4.56,2.0416-4.56,4.56S43.8794,51.4556,46.3978,51.4556
					L46.3978,51.4556z M35.6744,17.6691c2.1539,0,3.9-1.7461,3.9-3.9s-1.7461-3.9-3.9-3.9s-3.9,1.7461-3.9,3.9
					S33.5206,17.6691,35.6744,17.6691L35.6744,17.6691z M35.6744,61.8184c2.1539,0,3.9-1.7461,3.9-3.9s-1.7461-3.9-3.9-3.9
					s-3.9,1.7461-3.9,3.9S33.5206,61.8184,35.6744,61.8184L35.6744,61.8184z M24.7786,28.3625c1.9551,0,3.54-1.5849,3.54-3.54
					s-1.5849-3.54-3.54-3.54s-3.54,1.5849-3.54,3.54S22.8235,28.3625,24.7786,28.3625L24.7786,28.3625z M24.7786,50.4049
					c1.9551,0,3.54-1.5849,3.54-3.54s-1.5849-3.54-3.54-3.54s-3.54,1.5849-3.54,3.54C21.2386,48.82,22.8235,50.4049,24.7786,50.4049
					L24.7786,50.4049z"/>
			</g>
		</g>
	</g>
</g>
</svg>
