<?xml version="1.0" encoding="utf-8"?>
<!-- Generator: Adobe Illustrator 21.1.0, SVG Export Plug-In . SVG Version: 6.00 Build 0)  -->
<svg version="1.1" id="Github" xmlns="http://www.w3.org/2000/svg" xmlns:xlink="http://www.w3.org/1999/xlink" x="0px" y="0px"
	 viewBox="0 0 72 72" enable-background="new 0 0 72 72" xml:space="preserve">
<g>
	<rect fill="#595959" width="72" height="72"/>
	<path id="github-path9-5" fill="#FFFFFF" d="M20.0482,34.1059c-0.0702,0,0.7704,1.8096,0.7938,1.8096
		c1.8354,3.3295,5.3724,5.4,11.3403,5.9715c-0.8518,0.6465-1.8748,1.8742-2.0169,3.2911c-1.0707,0.6912-3.2244,0.9202-4.8981,0.3928
		c-2.3465-0.7408-3.2445-5.3826-6.7573-4.7209c-0.7601,0.1425-0.6092,0.6442,0.0481,1.0704
		c1.0714,0.6919,2.0785,1.5588,2.8549,3.4035c0.5979,1.4151,1.8529,3.9457,5.8222,3.9457c1.5739,0,2.6779-0.1903,2.6779-0.1903
		s0.0297,3.6155,0.0297,5.0207c0,1.6221-2.1893,2.0784-2.1893,2.8578c0,0.3081,0.7253,0.3372,1.3071,0.3372
		c1.1507,0,3.5442-0.9605,3.5442-2.6447c0-1.3375,0.0219-5.8384,0.0219-6.6256c0-1.7202,0.923-2.2659,0.923-2.2659
		s0.1141,9.1874-0.2201,10.4194c-0.3933,1.4477-1.1025,1.2421-1.1025,1.8885c0,0.9617,2.8818,0.2348,3.8373-1.8742
		c0.7377-1.6416,0.4151-10.6547,0.4151-10.6547l0.7872-0.0166c0,0,0.0444,4.1257,0.0171,6.0127
		c-0.0276,1.9533-0.1605,4.423,1,5.5877c0.7626,0.7654,3.2334,2.1106,3.2334,0.8817c0-0.7136-1.3538-1.2993-1.3538-3.2299v-8.8878
		c1.0818,0,0.9191,2.9212,0.9191,2.9212l0.0786,5.4312c0,0-0.2383,1.9781,2.1419,2.8047c0.8403,0.295,2.6344,0.3724,2.7199-0.1187
		c0.085-0.4936-2.1631-1.2279-2.1838-2.7609c-0.0138-0.933,0.0423-1.4787,0.0423-5.5398c0-4.0613-0.5463-5.5616-2.448-6.7575
		c5.8665-0.6018,9.4991-2.0535,11.268-5.938c0.1374,0.0028,0.7215-1.8144,0.6454-1.8144c0.3966-1.4669,0.6129-3.202,0.653-5.2563
		c-0.0098-5.5731-2.6772-7.5432-3.1896-8.4679c0.7552-4.2197-0.1269-6.1376-0.5363-6.7966
		c-1.5121-0.5373-5.2593,1.3828-7.308,2.7348c-3.336-0.9746-10.3921-0.8816-13.0381,0.2514
		c-4.8819-3.4941-7.4652-2.9586-7.4652-2.9586s-1.6692,2.99-0.441,7.3658c-1.6061,2.0466-2.8035,3.4938-2.8035,7.3312
		C19.2198,30.4818,19.4745,32.4166,20.0482,34.1059L20.0482,34.1059z"/>
</g>
</svg>
