<?xml version="1.0" encoding="utf-8"?>
<!-- Generator: Adobe Illustrator 21.1.0, SVG Export Plug-In . SVG Version: 6.00 Build 0)  -->
<svg version="1.1" id="Google" xmlns="http://www.w3.org/2000/svg" xmlns:xlink="http://www.w3.org/1999/xlink" x="0px" y="0px"
	 viewBox="0 0 72 72" enable-background="new 0 0 72 72" xml:space="preserve">
<g>
	<rect fill="#00B670" width="72" height="72"/>
	<g>
		<path fill="#FFFFFF" d="M40.4325,44.966l9.4827-0.2754v8.0478c0,1.141,0.015,1.3257-1.9096,1.9337
			c-2.703,0.6957-5.7591,0.8319-8.5519,0.6006c-9.4677-0.769-16.6845-8.0934-18.3966-17.2281
			c-1.6193-8.6674,2.5563-16.8661,9.6145-20.25c3.4482-1.6494,7.5849-2.4273,12.0688-1.0196
			c2.8136,0.8775,5.364,2.4624,7.5878,4.6524l-1.5474,2.7554l2.9125-0.8071l4.4928-4.4868
			c-7.6269-6.1817-20.7133-6.9931-29.382-2.7012c-7.54,3.731-13.0237,11.1431-13.2931,19.421
			c-0.2814,8.7129,4.8941,15.6019,10.1382,19.0663c8.6686,5.7217,23.6949,4.4459,32.7465-0.0234l-0.0028-0.8306h0.0028v-9.1303
			L58.5,42.2749H45.3145L40.4325,44.966z"/>
	</g>
</g>
</svg>
