<?xml version="1.0" encoding="utf-8"?>
<!-- Generator: Adobe Illustrator 21.1.0, SVG Export Plug-In . SVG Version: 6.00 Build 0)  -->
<svg version="1.1" id="IMDB" xmlns="http://www.w3.org/2000/svg" xmlns:xlink="http://www.w3.org/1999/xlink" x="0px" y="0px"
	 viewBox="0 0 72 72" enable-background="new 0 0 72 72" xml:space="preserve">
<g>
	<rect fill="#F4AD2C" width="72" height="72"/>
	<g>
		<rect x="13.5001" y="27" fill="#FFFFFF" width="4.3712" height="18"/>
		<polygon fill="#FFFFFF" points="23.9973,34.8965 25.8517,45 28.5529,45 30.3576,34.8965 30.3576,45 34.09,45 34.09,27 28.1632,27 
			27.1497,35.4903 25.6848,27 20.0598,27 20.0598,45 23.9973,45 		"/>
		<path fill="#FFFFFF" d="M41.2882,27h-4.8895v18h4.916c2.7949,0,3.7324-0.3103,4.5089-0.9351
			c0.7792-0.6236,1.1689-1.4965,1.1689-2.618V30.553c0-1.2057-0.4161-2.0994-1.2481-2.68C44.9094,27.291,44.2034,27,41.2882,27z
			 M42.2991,41.2239c0,0.8509-0.9433,0.7371-1.6905,0.7371V29.8719c0.7472,0,1.6905-0.0812,1.6905,0.7963V41.2239z"/>
		<path fill="#FFFFFF" d="M55.7933,29.8719c-1.2188-0.0576-2.4756,0.7387-2.9268,1.2484V27h-4.4736v18h3.6123
			c0,0,0.2754-1.0727,0.5801-0.9381c0.3076,0.133,1.8574,0.7934,2.9268,0.7934c1.0692,0,1.5087-0.0709,2.0214-0.294
			c0.6387-0.4284,0.9609-1.009,0.9609-1.7446V32.3479C58.6058,30.8367,57.012,29.928,55.7933,29.8719z M54.0939,41.8902
			c0,0.4431-0.202,0.7519-0.6064,0.7519c-0.416,0-0.624-0.3088-0.624-0.7519l0.003-9.0932c0-0.4254,0.208-0.6396,0.621-0.6396
			c0.4072,0,0.6124,0.2215,0.6124,0.6663L54.0939,41.8902z"/>
	</g>
</g>
</svg>
