<?xml version="1.0" encoding="utf-8"?>
<!-- Generator: Adobe Illustrator 21.1.0, SVG Export Plug-In . SVG Version: 6.00 Build 0)  -->
<svg version="1.1" id="Kakao" xmlns="http://www.w3.org/2000/svg" xmlns:xlink="http://www.w3.org/1999/xlink" x="0px" y="0px"
	 viewBox="0 0 72 71.967" enable-background="new 0 0 72 71.967" xml:space="preserve">
<rect fill="#FFE812" width="72" height="71.967"/>
<path d="M36.3095,10.7241c-16.0369,0-29.0373,10.2504-29.0373,22.8948c0,8.1748,5.435,15.3479,13.6107,19.3983
	c-0.4448,1.534-2.8582,9.8682-2.9543,10.5229c0,0-0.0578,0.492,0.2608,0.6796c0.3186,0.1876,0.6933,0.0419,0.6933,0.0419
	c0.9136-0.1276,10.5939-6.9273,12.2694-8.1081c1.6738,0.237,3.3974,0.3602,5.1575,0.3602c16.0369,0,29.0373-10.2502,29.0373-22.8948
	C65.3467,20.9745,52.3464,10.7241,36.3095,10.7241L36.3095,10.7241z"/>
<path fill="#FFE812" d="M20.2552,41.6111c-0.9239,0-1.6752-0.7176-1.6752-1.5998V30.059h-2.6139c-0.9066,0-1.644-0.736-1.644-1.6403
	s0.7377-1.6403,1.644-1.6403h8.5783c0.9066,0,1.644,0.736,1.644,1.6403s-0.7377,1.6403-1.644,1.6403h-2.6139v9.9522
	C21.9305,40.8935,21.1791,41.6111,20.2552,41.6111z M34.9447,41.5893c-0.6986,0-1.233-0.2837-1.3941-0.7399l-0.8295-2.1716
	l-5.1083-0.0003l-0.8301,2.173c-0.1605,0.4554-0.6947,0.7388-1.3932,0.7388c-0.3675,0.0004-0.7307-0.0785-1.0649-0.2312
	c-0.4618-0.213-0.9057-0.7988-0.397-2.3788l4.0071-10.5472c0.2823-0.8022,1.1397-1.6286,2.2308-1.6534
	c1.0942,0.0246,1.9516,0.8513,2.2345,1.6551l4.0055,10.5425c0.5098,1.5836,0.0659,2.1697-0.3959,2.3822
	C35.6753,41.5108,35.3121,41.5896,34.9447,41.5893C34.9445,41.5893,34.9447,41.5893,34.9447,41.5893L34.9447,41.5893z
	 M31.8403,35.7104l-1.6733-4.7535l-1.6733,4.7535L31.8403,35.7104L31.8403,35.7104z M39.1015,41.3668
	c-0.8854,0-1.6054-0.6891-1.6054-1.5356V28.4536c0-0.9239,0.7673-1.6752,1.7101-1.6752c0.9429,0,1.7101,0.7513,1.7101,1.6752v9.842
	h3.5599c0.8854,0,1.6054,0.6891,1.6054,1.5356s-0.7201,1.5356-1.6054,1.5356H39.1015z M48.4085,41.5893
	c-0.9239,0-1.6752-0.7513-1.6752-1.6752V28.4536c0-0.9239,0.7513-1.6752,1.6752-1.6752s1.6752,0.7513,1.6752,1.6752v3.6006
	l4.6739-4.6739c0.2404-0.2404,0.5707-0.3727,0.9292-0.3727c0.4182,0,0.8382,0.1804,1.1528,0.4948
	c0.2934,0.2932,0.4685,0.6704,0.4925,1.0621c0.0243,0.3951-0.1072,0.7572-0.3697,1.0199l-3.8176,3.817l4.1236,5.4629
	c0.2689,0.354,0.3848,0.801,0.3216,1.2411c-0.0603,0.4403-0.2944,0.8382-0.65,1.1048c-0.2897,0.2202-0.6438,0.339-1.0076,0.3381
	c-0.5264,0.0024-1.0228-0.2446-1.3382-0.6659l-3.9287-5.2055l-0.5813,0.5813v3.6551
	C50.0832,40.8384,49.3336,41.5881,48.4085,41.5893L48.4085,41.5893z"/>
</svg>
