<?xml version="1.0" encoding="utf-8"?>
<!-- Generator: Adobe Illustrator 21.1.0, SVG Export Plug-In . SVG Version: 6.00 Build 0)  -->
<svg version="1.1" id="Paytm" xmlns="http://www.w3.org/2000/svg" xmlns:xlink="http://www.w3.org/1999/xlink" x="0px" y="0px"
	 viewBox="0 0 50.7931 50" enable-background="new 0 0 50.7931 50" xml:space="preserve">
<rect width="50" height="50"/>
<g>
	<path fill-rule="evenodd" clip-rule="evenodd" fill="#1E398D" d="M8.3644,20.5854c0.0006-0.2433,0.1644-0.3649,0.3653-0.3649
		h3.5597c1.0924,0.1242,1.8551,0.6803,1.9298,2.1422v1.9779c0,0.2936-0.0171,0.5408-0.102,0.8263
		c-0.2832,0.9522-0.9635,1.4248-1.9803,1.4913h-1.5266c0,0.8073,0,1.6135,0,2.4208c0,0.1818-0.1527,0.2723-0.3376,0.2723
		c-0.5345,0-1.0688,0-1.6029,0c-0.1952,0-0.3388-0.1088-0.338-0.3271L8.3644,20.5854L8.3644,20.5854z M10.6264,22.4643h0.9475
		c0.2126,0,0.3879,0.1746,0.3879,0.3885v1.1425c0,0.2136-0.1753,0.3889-0.3879,0.3889h-0.9475V22.4643L10.6264,22.4643z"/>
	<path fill-rule="evenodd" clip-rule="evenodd" fill="#1E398D" d="M15.9734,20.2312h2.4879
		c1.4562,0.0849,2.2446,0.8493,2.2238,2.4352v5.8713c0,0.4554-0.4595,0.8001-0.8527,0.8001h-3.2614
		c-0.9895,0-1.6431-0.7709-1.8059-1.5272c-0.156-0.7261-0.0397-1.6046-0.0397-2.3462c0-1.1446,0.7586-2.2797,2.0221-2.2797h1.3275
		c0.3863-0.0206,0.3688-0.8645,0-0.8348h-2.0748c-0.2101,0-0.3577-0.1118-0.3776-0.3259c0-0.5128,0-1.0246,0-1.5379
		C15.6226,20.2897,15.7849,20.2312,15.9734,20.2312L15.9734,20.2312z M17.3449,25.3075h0.7592c0.1789,0,0.3257,0.1471,0.3257,0.3263
		v1.3223c0,0.18-0.1469,0.3267-0.3257,0.3267h-0.7592c-0.179,0-0.325-0.1467-0.325-0.3267v-1.3223
		C17.02,25.4545,17.1659,25.3075,17.3449,25.3075L17.3449,25.3075z"/>
	<path fill-rule="evenodd" clip-rule="evenodd" fill="#1E398D" d="M21.4488,20.645v3.709c0.0901,1.1629,1.1336,2.0332,2.2693,2.0332
		h1.0506c0.4342,0,0.4076,0.7299,0,0.7299H22.496c-0.2461,0-0.3358,0.1289-0.3358,0.346v1.6329c0,0.1643,0.133,0.288,0.307,0.288
		h2.1053c1.7558,0,2.7559-0.8426,2.7553-2.7306v-6.1523c0-0.2006-0.127-0.2786-0.2489-0.2786h-1.7647
		c-0.1631,0-0.2583,0.1768-0.2583,0.3066v3.3715c0,0.1447-0.0806,0.2297-0.2106,0.2297h-0.8352c-0.192,0-0.2971-0.104-0.2971-0.2879
		v-3.2553c0-0.2158-0.0869-0.3742-0.3254-0.3742c-0.5652,0-1.1318,0-1.6971,0C21.4974,20.213,21.4488,20.4042,21.4488,20.645
		L21.4488,20.645z"/>
	<path fill-rule="evenodd" clip-rule="evenodd" fill="#00AEEF" d="M28.2154,22.1694v-1.6035c0-0.1723,0.1411-0.3133,0.3127-0.3133
		h0.3861c0.9943-0.2073,1.2309-0.7906,1.839-1.446c0.3739-0.4049,0.7018-0.5115,0.9435-0.0823v1.5283h0.9113
		c0.1724,0,0.3129,0.141,0.3129,0.3133v1.6035c0,0.1714-0.1411,0.3131-0.3129,0.3131h-0.9119v6.5713
		c0,0.1727-0.1408,0.3131-0.3128,0.3131h-1.6042c-0.172,0-0.3122-0.1404-0.3122-0.3131v-6.5713h-0.9388
		C28.3573,22.4825,28.2154,22.3418,28.2154,22.1694L28.2154,22.1694z"/>
	<path fill-rule="evenodd" clip-rule="evenodd" fill="#00AEEF" d="M39.5762,28.9492c0,0.2137-0.177,0.3885-0.3917,0.3885h-1.5019
		c-0.2162,0-0.3922-0.1748-0.3922-0.3885v-4.6718v-1.3596c0.0119-0.6522-1.3017-0.7534-1.3017,0v6.0314
		c0,0.2137-0.1761,0.3885-0.3917,0.3885h-1.5014c-0.2156,0-0.3924-0.1748-0.3924-0.3885v-8.3623
		c0-0.2154,0.1768-0.3902,0.3924-0.3902h1.5014c0.2156,0,0.3917,0.1748,0.3917,0.3902v0.1151
		c0.8784-0.84,2.3999-0.7074,3.2098,0.1657c1.524-1.7482,4.135-0.1907,4.0141,1.7264c0,2.1193-0.0188,4.218-0.0188,6.3551
		c0,0.2137-0.177,0.3885-0.3913,0.3885h-1.5023c-0.2156,0-0.3919-0.1748-0.3919-0.3885c0-2.0245,0-4.0015,0-5.9918
		c-0.0856-0.8366-1.3493-0.6409-1.3476,0C39.5607,24.9488,39.5762,26.9399,39.5762,28.9492L39.5762,28.9492z"/>
</g>
</svg>
