<?xml version="1.0" encoding="utf-8"?>
<!-- Generator: Adobe Illustrator 21.1.0, SVG Export Plug-In . SVG Version: 6.00 Build 0)  -->
<svg version="1.1" id="Skype" xmlns="http://www.w3.org/2000/svg" xmlns:xlink="http://www.w3.org/1999/xlink" x="0px" y="0px"
	 viewBox="0 0 72 72" enable-background="new 0 0 72 72" xml:space="preserve">
<g>
	<rect fill="#00ABF3" width="72" height="72"/>
	<g>
		<path fill="#FFFFFF" d="M57.7006,36.2358c0-11.685-9.6097-21.1596-21.4629-21.1596c-1.2509,0-2.4752,0.107-3.6697,0.3092
			C30.6484,14.1929,28.3812,13.5,25.9474,13.5C19.0714,13.5,13.5,18.9961,13.5,25.7754c0,2.2647,0.6241,4.3843,1.7086,6.2066
			c-0.2851,1.374-0.4338,2.7978-0.4338,4.2539c0,11.6895,9.6096,21.1626,21.4629,21.1626c1.3431,0,2.6565-0.1215,3.9283-0.353
			c1.7561,0.9273,3.759,1.4546,5.8865,1.4546c6.876,0,12.4475-5.4931,12.4475-12.2724c0-1.9571-0.4665-3.8056-1.2926-5.4492
			C57.5313,39.312,57.7006,37.796,57.7006,36.2358z M47.247,46.3506c-0.9924,1.3843-2.4603,2.4829-4.362,3.2622
			c-1.881,0.7705-4.1364,1.1631-6.7038,1.1631c-3.0843,0-5.6695-0.5361-7.687-1.5908c-1.4412-0.7677-2.6328-1.8061-3.5361-3.0924
			c-0.9093-1.2934-1.3728-2.5811-1.3728-3.8232c0-0.7749,0.303-1.4472,0.8974-1.9965c0.5853-0.5464,1.34-0.8218,2.2404-0.8218
			c0.7369,0,1.3728,0.2168,1.8898,0.6461c0.4932,0.4144,0.9181,1.0254,1.257,1.8148c0.3833,0.8613,0.7962,1.585,1.233,2.1534
			c0.4221,0.5508,1.0282,1.0122,1.8008,1.3725c0.7785,0.3633,1.8276,0.5493,3.117,0.5493c1.7742,0,3.2301-0.3735,4.3236-1.1118
			c1.0698-0.7178,1.5868-1.5821,1.5868-2.6397c0-0.8349-0.2676-1.4911-0.8262-2.0067c-0.5853-0.5391-1.3578-0.9552-2.2909-1.2467
			c-0.9746-0.2988-2.2998-0.624-3.9372-0.9624c-2.2287-0.4688-4.1214-1.0283-5.625-1.6567
			c-1.5392-0.6474-2.7813-1.5424-3.6876-2.6616c-0.9212-1.1397-1.3906-2.5635-1.3906-4.2421c0-1.5983,0.4904-3.0411,1.4591-4.2818
			c0.9567-1.2334,2.3623-2.1958,4.1659-2.8506c1.7829-0.6489,3.9016-0.9799,6.2995-0.9799c1.9165,0,3.5985,0.2211,5.0069,0.6504
			c1.4145,0.4335,2.6059,1.0209,3.5451,1.7432c0.9448,0.7264,1.6491,1.5028,2.0859,2.3115
			c0.4458,0.8159,0.6716,1.6273,0.6716,2.4126c0,0.7574-0.2972,1.4444-0.8795,2.045c-0.5885,0.6019-1.3312,0.9067-2.2048,0.9067
			c-0.7965,0-1.4175-0.192-1.8483-0.5655c-0.4011-0.353-0.82-0.8994-1.2808-1.6845c-0.5378-1.0005-1.1856-1.7916-1.9254-2.3497
			c-0.7251-0.542-1.9286-0.8144-3.5865-0.8144c-1.5363,0-2.7903,0.3046-3.7174,0.9052c-0.8945,0.5786-1.3313,1.2407-1.3313,2.0274
			c0,0.4833,0.1397,0.8847,0.431,1.2318c0.303,0.3692,0.7341,0.6885,1.2779,0.9595c0.5644,0.2783,1.1469,0.501,1.7262,0.6591
			c0.5973,0.1641,1.5987,0.4059,2.9716,0.7179c1.7353,0.3691,3.334,0.7792,4.7425,1.2259c1.4322,0.4527,2.6654,1.005,3.6726,1.6539
			c1.0311,0.6591,1.8424,1.5043,2.4218,2.5181c0.5796,1.0152,0.8736,2.2705,0.8736,3.7279
			C48.7506,43.3712,48.2424,44.9619,47.247,46.3506z"/>
	</g>
</g>
</svg>
