<?xml version="1.0" encoding="utf-8"?>
<!-- Generator: Adobe Illustrator 21.1.0, SVG Export Plug-In . SVG Version: 6.00 Build 0)  -->
<svg version="1.1" id="Tripadvisor" xmlns="http://www.w3.org/2000/svg" xmlns:xlink="http://www.w3.org/1999/xlink" x="0px"
	 y="0px" viewBox="0 0 72 72" enable-background="new 0 0 72 72" xml:space="preserve">
<g>
	<rect fill="#2DA141" width="72" height="72"/>
	<path id="tripadvisor-bird" fill="#FFFFFF" d="M36,22.4991c-6.0003,0-10.5014,1.5023-15.0015,6.0024H13.5
		c0,0,0.0012,2.2514,3.0012,3.0014c-1.344,1.8465-3.0012,5.0399-3.0012,7.4984c0,6.1878,4.3119,10.4997,10.4997,10.4997
		c3.5102,0,6.9454-1.9728,8.9991-4.5018L36,49.5009l3.0012-4.5018c2.0536,2.529,5.489,4.5018,8.9991,4.5018
		c6.1863,0,10.4997-4.3119,10.4997-10.4997c0-2.4585-1.6572-5.6504-3.0012-7.4984c3.0001-0.75,3.0012-3.0014,3.0012-3.0014h-7.4985
		C46.5013,24.0014,42.0003,22.4991,36,22.4991z M36,23.9997c7.5003,0,12.0003,4.5018,12.0003,4.5018
		C42,28.5015,36,36.0028,36,43.5032c0-7.5003-6-15.0017-12.0003-15.0017C23.9997,28.5015,28.4997,23.9997,36,23.9997L36,23.9997z
		 M23.9997,31.5028c4.1417,0,7.4984,3.3567,7.4984,7.4984c0,4.1433-3.3567,7.4985-7.4984,7.4985s-7.4985-3.3552-7.4985-7.4985
		C16.5012,34.8596,19.858,31.5028,23.9997,31.5028z M48.0003,31.5028c4.1432,0,7.4985,3.3567,7.4985,7.4984
		c0,4.1433-3.3554,7.4985-7.4985,7.4985s-7.4983-3.3552-7.4983-7.4985C40.5019,34.8596,43.8571,31.5028,48.0003,31.5028z
		 M23.9997,34.4994c-2.4856,0-4.5019,2.0163-4.5019,4.5018c0,2.4871,2.0163,4.5019,4.5019,4.5019s4.5018-2.0148,4.5018-4.5019
		C28.5015,36.5157,26.4853,34.4994,23.9997,34.4994z M48.0003,34.4994c-2.4841,0-4.5018,2.0178-4.5018,4.5018
		c0,2.4871,2.0176,4.5019,4.5018,4.5019s4.502-2.0148,4.502-4.5019C52.5022,36.5172,50.4844,34.4994,48.0003,34.4994
		L48.0003,34.4994z M23.9997,36c1.656,0,3.0012,1.3452,3.0012,3.0012c0,1.6576-1.3452,3.0013-3.0012,3.0013
		c-1.6561,0-3.0012-1.3437-3.0012-3.0013C20.9985,37.3452,22.3435,36,23.9997,36z M48.0003,36c1.6562,0,3.0012,1.3452,3.0012,3.0012
		c0,1.6576-1.3451,3.0013-3.0012,3.0013c-1.656,0-3.0012-1.3437-3.0012-3.0013C44.9991,37.3452,46.3443,36,48.0003,36z
		 M23.9997,37.5006c-0.8284,0-1.5006,0.6721-1.5006,1.5006c0,0.8284,0.6721,1.5007,1.5006,1.5007
		c0.8285,0,1.5006-0.6723,1.5006-1.5007C25.5003,38.1727,24.8281,37.5006,23.9997,37.5006z M48.0003,37.5006
		c-0.8284,0-1.5006,0.6721-1.5006,1.5006c0,0.8284,0.6721,1.5007,1.5006,1.5007c0.8285,0,1.5006-0.6723,1.5006-1.5007
		C49.5009,38.1727,48.8287,37.5006,48.0003,37.5006z"/>
</g>
</svg>
