<?xml version="1.0" encoding="utf-8"?>
<!-- Generator: Adobe Illustrator 21.1.0, SVG Export Plug-In . SVG Version: 6.00 Build 0)  -->
<svg version="1.1" id="Yelp" xmlns="http://www.w3.org/2000/svg" xmlns:xlink="http://www.w3.org/1999/xlink" x="0px" y="0px"
	 viewBox="0 0 72 72" enable-background="new 0 0 72 72" xml:space="preserve">
<g>
	<rect fill="#E93921" width="72" height="72"/>
	<g>
		<path fill="#FFFFFF" d="M48.4249,55.18c0.875,0,1.7406-0.6694,1.7406-0.6694l4.8357-6.4599c0,0,0.4893-0.816,0.4986-1.5294
			c0.0187-1.0151-1.6182-1.295-1.6182-1.295l-11.4559-3.4365c0,0-1.1227-0.2767-1.869,0.4263
			c-0.8124,0.7676-0.1254,2.1606-0.1254,2.1606l6.1215,9.5449C46.5528,53.9217,47.5563,55.18,48.4249,55.18z"/>
		<path fill="#FFFFFF" d="M42.178,38.0634l11.4307-3.1202c0,0,1.5555-0.5904,1.7781-1.3798c0.2164-0.7881-0.257-1.7418-0.257-1.7418
			l-5.4632-6.0102c0,0-0.4704-0.7603-1.455-0.835c-1.0821-0.0879-1.7469,1.1368-1.7469,1.1368l-6.4571,9.4937
			c0,0-0.5709,0.9447-0.0313,1.8003C40.5628,38.3343,42.178,38.0634,42.178,38.0634z"/>
		<path fill="#FFFFFF" d="M34.5762,33.7039c1.3453-0.3092,1.5616-2.1357,1.5616-2.1357l-0.0941-15.1979
			c0,0-0.2007-1.875-1.1039-2.3847c-1.4143-0.8013-1.8315-0.3823-2.2392-0.3267l-9.4896,3.2929c0,0-0.9284,0.2886-1.4114,1.0137
			c-0.6897,1.0254,0.7024,2.5269,0.7024,2.5269l9.8629,12.5595C32.3652,33.0521,33.3375,33.9896,34.5762,33.7039z"/>
		<path fill="#FFFFFF" d="M18.2844,32.9906c-0.5613,0.3092-1.06,0.8717-1.1101,1.3681l-0.6616,7.6377
			c0,0-0.1004,1.3228,0.2666,1.9248c0.5205,0.8554,2.2297,0.2593,2.2297,0.2593l11.9074-2.4566
			c0.4611-0.2916,1.2732-0.3178,1.3172-1.8676c0.0345-1.1735-1.5053-1.8765-1.5053-1.8765l-10.1985-4.8135
			C20.5297,33.1664,19.0182,32.5833,18.2844,32.9906z"/>
		<path fill="#FFFFFF" d="M25.4283,56.0589l8.0032,2.36c0,0,0.9723,0.1889,1.7091-0.0103c1.0411-0.2812,0.8467-1.809,0.8467-1.809
			l0.1819-11.1006c0,0-0.0408-1.0679-0.9754-1.5205c-1.0224-0.4893-2.2453,0.5259-2.2453,0.5259l-7.9688,8.1972
			c0,0-0.9972,1.2555-0.7432,2.0244C24.475,55.4481,24.867,55.807,25.4283,56.0589z"/>
	</g>
</g>
</svg>
